STARTFONT 2.1
COMMENT 
COMMENT k20m.bdf, a part of Kappa 20dot Fonts Version 0.396 (2003/10/06).
COMMENT 
COMMENT Designed by KANOU Hiroki (kanou@khdd.net), designs of non-kanji
COMMENT are based on design in k20b by NAGAO Sadakazu (snagao@tkb.att.ne.jp)
COMMENT and modified by KANOU, and finally proofreaded and corrected by NAGAO.
COMMENT For more information, see http://khdd.net/20dot.fonts/
COMMENT 
COMMENT THIS FONT IS PUBLIC DOMAIN: YOU CAN USE, COPY, MODIFY, EVEN COPYRIGHT
COMMENT AS YOURS AND SELL THIS FONT, BUT YOU CAN'T PROHIBIT ANYONE FROM FREE
COMMENT CIRCULATION OF THIS FONT AND ITS DESCENDANTS INDEPENDENT OF YOUR
COMMENT VARIATIONS AND/OR DERIVATIONS. SEE `README' (IN JAPANESE) FOR DETAILS.
COMMENT 
FONT -Kappa-Mincho-Medium-R-Normal--20-190-75-75-C-200-JISX0208.1990-0
SIZE 19 75 75
FONTBOUNDINGBOX 20 20 0 -3
STARTPROPERTIES 19
FONT_ASCENT 17
FONT_DESCENT 3
COPYRIGHT "public domain"
DEFAULT_CHAR 8481
FONTNAME_REGISTRY ""
FOUNDRY "Kappa"
FAMILY_NAME "Mincho"
WEIGHT_NAME "Medium"
SLANT "R"
SETWIDTH_NAME "Normal"
ADD_STYLE_NAME ""
PIXEL_SIZE 20
POINT_SIZE 190
RESOLUTION_X 75
RESOLUTION_Y 75
SPACING "C"
AVERAGE_WIDTH 200
CHARSET_REGISTRY "JISX0208.1990"
CHARSET_ENCODING "0"
ENDPROPERTIES
CHARS 6879
STARTCHAR 01-01
ENCODING 8481
SWIDTH 1010 0
DWIDTH 20 0
BBX 20 20 0 -3
BITMAP
000000
000000
000000
000000
000000
000000
000000
000000
000000
000000
000000
000000
000000
000000
000000
000000
000000
000000
000000
000000
ENDCHAR
STARTCHAR 01-02
ENCODING 8482
SWIDTH 1010 0
DWIDTH 20 0
BBX 20 20 0 -3
BITMAP
000000
000000
000000
000000
000000
000000
000000
000000
000000
000000
000000
000000
000000
000000
600000
100000
080000
0c0000
0c0000
000000
ENDCHAR
STARTCHAR 01-03
ENCODING 8483
SWIDTH 1010 0
DWIDTH 20 0
BBX 20 20 0 -3
BITMAP
000000
000000
000000
000000
000000
000000
000000
000000
000000
000000
000000
000000
000000
000000
380000
440000
440000
440000
380000
000000
ENDCHAR
STARTCHAR 01-04
ENCODING 8484
SWIDTH 1010 0
DWIDTH 20 0
BBX 20 20 0 -3
BITMAP
000000
000000
000000
000000
000000
000000
000000
000000
000000
000000
000000
000000
000000
000000
000000
380000
380000
180000
100000
200000
ENDCHAR
STARTCHAR 01-05
ENCODING 8485
SWIDTH 1010 0
DWIDTH 20 0
BBX 20 20 0 -3
BITMAP
000000
000000
000000
000000
000000
000000
000000
000000
000000
000000
000000
000000
000000
000000
000000
380000
380000
380000
000000
000000
ENDCHAR
STARTCHAR 01-06
ENCODING 8486
SWIDTH 1010 0
DWIDTH 20 0
BBX 20 20 0 -3
BITMAP
000000
000000
000000
000000
000000
000000
000000
000000
006000
00f000
00f000
006000
000000
000000
000000
000000
000000
000000
000000
000000
ENDCHAR
STARTCHAR 01-07
ENCODING 8487
SWIDTH 1010 0
DWIDTH 20 0
BBX 20 20 0 -3
BITMAP
000000
000000
000000
000000
000000
00e000
00e000
00e000
000000
000000
000000
000000
000000
00e000
00e000
00e000
000000
000000
000000
000000
ENDCHAR
STARTCHAR 01-08
ENCODING 8488
SWIDTH 1010 0
DWIDTH 20 0
BBX 20 20 0 -3
BITMAP
000000
000000
000000
000000
000000
00e000
00e000
00e000
000000
000000
000000
000000
000000
00e000
00e000
006000
004000
008000
000000
000000
ENDCHAR
STARTCHAR 01-09
ENCODING 8489
SWIDTH 1010 0
DWIDTH 20 0
BBX 20 20 0 -3
BITMAP
000000
007800
018400
020200
040100
050100
030100
000200
000c00
001000
002000
002000
002000
002000
000000
000000
002000
007000
002000
000000
ENDCHAR
STARTCHAR 01-10
ENCODING 8490
SWIDTH 1010 0
DWIDTH 20 0
BBX 20 20 0 -3
BITMAP
000000
004000
00e000
00e000
00e000
00e000
004000
004000
004000
004000
004000
004000
004000
004000
000000
000000
004000
00e000
004000
000000
ENDCHAR
STARTCHAR 01-11
ENCODING 8491
SWIDTH 1010 0
DWIDTH 20 0
BBX 20 20 0 -3
BITMAP
040000
420000
230000
310000
110000
100000
000000
000000
000000
000000
000000
000000
000000
000000
000000
000000
000000
000000
000000
000000
ENDCHAR
STARTCHAR 01-12
ENCODING 8492
SWIDTH 1010 0
DWIDTH 20 0
BBX 20 20 0 -3
BITMAP
000000
000000
380000
440000
440000
440000
380000
000000
000000
000000
000000
000000
000000
000000
000000
000000
000000
000000
000000
000000
ENDCHAR
STARTCHAR 01-13
ENCODING 8493
SWIDTH 1010 0
DWIDTH 20 0
BBX 20 20 0 -3
BITMAP
003800
006000
008000
010000
000000
000000
000000
000000
000000
000000
000000
000000
000000
000000
000000
000000
000000
000000
000000
000000
ENDCHAR
STARTCHAR 01-14
ENCODING 8494
SWIDTH 1010 0
DWIDTH 20 0
BBX 20 20 0 -3
BITMAP
01c000
006000
001000
000800
000000
000000
000000
000000
000000
000000
000000
000000
000000
000000
000000
000000
000000
000000
000000
000000
ENDCHAR
STARTCHAR 01-15
ENCODING 8495
SWIDTH 1010 0
DWIDTH 20 0
BBX 20 20 0 -3
BITMAP
020400
070e00
020400
000000
000000
000000
000000
000000
000000
000000
000000
000000
000000
000000
000000
000000
000000
000000
000000
000000
ENDCHAR
STARTCHAR 01-16
ENCODING 8496
SWIDTH 1010 0
DWIDTH 20 0
BBX 20 20 0 -3
BITMAP
006000
019800
060600
000000
000000
000000
000000
000000
000000
000000
000000
000000
000000
000000
000000
000000
000000
000000
000000
000000
ENDCHAR
STARTCHAR 01-17
ENCODING 8497
SWIDTH 1010 0
DWIDTH 20 0
BBX 20 20 0 -3
BITMAP
7ffff0
000000
000000
000000
000000
000000
000000
000000
000000
000000
000000
000000
000000
000000
000000
000000
000000
000000
000000
000000
ENDCHAR
STARTCHAR 01-18
ENCODING 8498
SWIDTH 1010 0
DWIDTH 20 0
BBX 20 20 0 -3
BITMAP
000000
000000
000000
000000
000000
000000
000000
000000
000000
000000
000000
000000
000000
000000
000000
000000
000000
000000
000000
7ffff0
ENDCHAR
STARTCHAR 01-19
ENCODING 8499
SWIDTH 1010 0
DWIDTH 20 0
BBX 20 20 0 -3
BITMAP
000000
000000
000000
000000
000000
000000
030000
008000
006000
001000
001800
000c00
000600
000600
000000
000000
000000
000000
000000
000000
ENDCHAR
STARTCHAR 01-20
ENCODING 8500
SWIDTH 1010 0
DWIDTH 20 0
BBX 20 20 0 -3
BITMAP
000000
000000
000000
000800
000600
002200
061800
010800
00c000
002000
003000
001800
000c00
000c00
000000
000000
000000
000000
000000
000000
ENDCHAR
STARTCHAR 01-21
ENCODING 8501
SWIDTH 1010 0
DWIDTH 20 0
BBX 20 20 0 -3
BITMAP
000000
000000
000000
000000
000000
020000
010000
008000
004000
002000
001800
000c00
003c00
00c000
000000
000000
000000
000000
000000
000000
ENDCHAR
STARTCHAR 01-22
ENCODING 8502
SWIDTH 1010 0
DWIDTH 20 0
BBX 20 20 0 -3
BITMAP
000000
000000
000100
0008c0
000640
020200
010000
008000
004000
002000
001800
000c00
003c00
00c000
000000
000000
000000
000000
000000
000000
ENDCHAR
STARTCHAR 01-23
ENCODING 8503
SWIDTH 1010 0
DWIDTH 20 0
BBX 20 20 0 -3
BITMAP
000000
000000
000000
000000
000000
008400
008400
008400
008400
010800
010800
010800
021000
021000
042000
000000
000000
000000
000000
000000
ENDCHAR
STARTCHAR 01-24
ENCODING 8504
SWIDTH 1010 0
DWIDTH 20 0
BBX 20 20 0 -3
BITMAP
003000
002000
005000
004800
008800
010400
020200
040100
0800c0
100470
63fe20
002000
002000
002000
002000
002000
002000
002040
3fffe0
000000
ENDCHAR
STARTCHAR 01-25
ENCODING 8505
SWIDTH 1010 0
DWIDTH 20 0
BBX 20 20 0 -3
BITMAP
000000
000000
00c000
006000
004000
008100
00ff80
010300
020200
040400
080800
119000
206000
001000
000800
000c00
000c00
000000
000000
000000
ENDCHAR
STARTCHAR 01-26
ENCODING 8506
SWIDTH 1010 0
DWIDTH 20 0
BBX 20 20 0 -3
BITMAP
000020
000030
000070
0000c0
000100
01c200
022400
041800
042800
084400
088600
090200
120000
140000
180000
100000
300000
600000
400000
000000
ENDCHAR
STARTCHAR 01-27
ENCODING 8507
SWIDTH 1010 0
DWIDTH 20 0
BBX 20 20 0 -3
BITMAP
000000
000000
000000
01f800
060600
080100
100080
200040
200040
400020
400020
400020
200040
200040
100080
080100
060600
01f800
000000
000000
ENDCHAR
STARTCHAR 01-28
ENCODING 8508
SWIDTH 1010 0
DWIDTH 20 0
BBX 20 20 0 -3
BITMAP
000000
000000
000000
000000
000000
000000
000000
000000
2001c0
37ffe0
0e0000
000000
000000
000000
000000
000000
000000
000000
000000
000000
ENDCHAR
STARTCHAR 01-29
ENCODING 8509
SWIDTH 1010 0
DWIDTH 20 0
BBX 20 20 0 -3
BITMAP
000000
000000
000000
000000
000000
000000
000000
000000
000000
fffff0
000000
000000
000000
000000
000000
000000
000000
000000
000000
000000
ENDCHAR
STARTCHAR 01-30
ENCODING 8510
SWIDTH 1010 0
DWIDTH 20 0
BBX 20 20 0 -3
BITMAP
000000
000000
000000
000000
000000
000000
000000
000000
000000
01fc00
000000
000000
000000
000000
000000
000000
000000
000000
000000
000000
ENDCHAR
STARTCHAR 01-31
ENCODING 8511
SWIDTH 1010 0
DWIDTH 20 0
BBX 20 20 0 -3
BITMAP
000010
000020
000040
000080
000100
000200
000400
000800
001000
002000
004000
008000
010000
020000
040000
080000
100000
200000
400000
800000
ENDCHAR
STARTCHAR 01-32
ENCODING 8512
SWIDTH 1010 0
DWIDTH 20 0
BBX 20 20 0 -3
BITMAP
800000
400000
200000
100000
080000
040000
020000
010000
008000
004000
002000
001000
000800
000400
000200
000100
000080
000040
000020
000010
ENDCHAR
STARTCHAR 01-33
ENCODING 8513
SWIDTH 1010 0
DWIDTH 20 0
BBX 20 20 0 -3
BITMAP
000000
000000
000000
000000
000000
000000
000000
000000
078000
184010
207020
4010c0
000f00
000000
000000
000000
000000
000000
000000
000000
ENDCHAR
STARTCHAR 01-34
ENCODING 8514
SWIDTH 1010 0
DWIDTH 20 0
BBX 20 20 0 -3
BITMAP
010400
010400
010400
010400
010400
010400
010400
010400
010400
010400
010400
010400
010400
010400
010400
010400
010400
010400
010400
010400
ENDCHAR
STARTCHAR 01-35
ENCODING 8515
SWIDTH 1010 0
DWIDTH 20 0
BBX 20 20 0 -3
BITMAP
002000
002000
002000
002000
002000
002000
002000
002000
002000
002000
002000
002000
002000
002000
002000
002000
002000
002000
002000
002000
ENDCHAR
STARTCHAR 01-36
ENCODING 8516
SWIDTH 1010 0
DWIDTH 20 0
BBX 20 20 0 -3
BITMAP
000000
000000
000000
000000
000000
000000
000000
000000
70e1c0
70e1c0
70e1c0
000000
000000
000000
000000
000000
000000
000000
000000
000000
ENDCHAR
STARTCHAR 01-37
ENCODING 8517
SWIDTH 1010 0
DWIDTH 20 0
BBX 20 20 0 -3
BITMAP
000000
000000
000000
000000
000000
000000
000000
000000
1c0700
1c0700
1c0700
000000
000000
000000
000000
000000
000000
000000
000000
000000
ENDCHAR
STARTCHAR 01-38
ENCODING 8518
SWIDTH 1010 0
DWIDTH 20 0
BBX 20 20 0 -3
BITMAP
000080
000100
000300
000380
000380
000000
000000
000000
000000
000000
000000
000000
000000
000000
000000
000000
000000
000000
000000
000000
ENDCHAR
STARTCHAR 01-39
ENCODING 8519
SWIDTH 1010 0
DWIDTH 20 0
BBX 20 20 0 -3
BITMAP
380000
380000
180000
100000
200000
000000
000000
000000
000000
000000
000000
000000
000000
000000
000000
000000
000000
000000
000000
000000
ENDCHAR
STARTCHAR 01-40
ENCODING 8520
SWIDTH 1010 0
DWIDTH 20 0
BBX 20 20 0 -3
BITMAP
000440
000880
001980
001dc0
001dc0
000000
000000
000000
000000
000000
000000
000000
000000
000000
000000
000000
000000
000000
000000
000000
ENDCHAR
STARTCHAR 01-41
ENCODING 8521
SWIDTH 1010 0
DWIDTH 20 0
BBX 20 20 0 -3
BITMAP
3b8000
3b8000
198000
110000
220000
000000
000000
000000
000000
000000
000000
000000
000000
000000
000000
000000
000000
000000
000000
000000
ENDCHAR
STARTCHAR 01-42
ENCODING 8522
SWIDTH 1010 0
DWIDTH 20 0
BBX 20 20 0 -3
BITMAP
000100
000200
000400
000400
000800
000800
000800
001000
001000
001000
001000
001000
001000
000800
000800
000800
000400
000400
000200
000100
ENDCHAR
STARTCHAR 01-43
ENCODING 8523
SWIDTH 1010 0
DWIDTH 20 0
BBX 20 20 0 -3
BITMAP
080000
040000
020000
020000
010000
010000
010000
008000
008000
008000
008000
008000
008000
010000
010000
010000
020000
020000
040000
080000
ENDCHAR
STARTCHAR 01-44
ENCODING 8524
SWIDTH 1010 0
DWIDTH 20 0
BBX 20 20 0 -3
BITMAP
000300
000c00
001000
001000
001000
001000
001000
001000
001000
001000
001000
001000
001000
001000
001000
001000
001000
001000
000c00
000300
ENDCHAR
STARTCHAR 01-45
ENCODING 8525
SWIDTH 1010 0
DWIDTH 20 0
BBX 20 20 0 -3
BITMAP
0c0000
030000
00c000
004000
004000
004000
004000
004000
004000
004000
004000
004000
004000
004000
004000
004000
004000
00c000
030000
0c0000
ENDCHAR
STARTCHAR 01-46
ENCODING 8526
SWIDTH 1010 0
DWIDTH 20 0
BBX 20 20 0 -3
BITMAP
001f00
001000
001000
001000
001000
001000
001000
001000
001000
001000
001000
001000
001000
001000
001000
001000
001000
001000
001000
001f00
ENDCHAR
STARTCHAR 01-47
ENCODING 8527
SWIDTH 1010 0
DWIDTH 20 0
BBX 20 20 0 -3
BITMAP
07c000
004000
004000
004000
004000
004000
004000
004000
004000
004000
004000
004000
004000
004000
004000
004000
004000
004000
004000
07c000
ENDCHAR
STARTCHAR 01-48
ENCODING 8528
SWIDTH 1010 0
DWIDTH 20 0
BBX 20 20 0 -3
BITMAP
000300
000400
000800
000800
000800
000800
000800
000800
000800
007000
001000
000800
000800
000800
000800
000800
000800
000800
000400
000300
ENDCHAR
STARTCHAR 01-49
ENCODING 8529
SWIDTH 1010 0
DWIDTH 20 0
BBX 20 20 0 -3
BITMAP
0c0000
020000
010000
010000
010000
010000
010000
010000
010000
00e000
008000
010000
010000
010000
010000
010000
010000
010000
020000
0c0000
ENDCHAR
STARTCHAR 01-50
ENCODING 8530
SWIDTH 1010 0
DWIDTH 20 0
BBX 20 20 0 -3
BITMAP
000100
000200
000200
000400
000800
000800
001000
002000
002000
004000
004000
002000
002000
001000
000800
000800
000400
000200
000200
000100
ENDCHAR
STARTCHAR 01-51
ENCODING 8531
SWIDTH 1010 0
DWIDTH 20 0
BBX 20 20 0 -3
BITMAP
080000
040000
040000
020000
010000
010000
008000
004000
004000
002000
002000
004000
004000
008000
010000
010000
020000
040000
040000
080000
ENDCHAR
STARTCHAR 01-52
ENCODING 8532
SWIDTH 1010 0
DWIDTH 20 0
BBX 20 20 0 -3
BITMAP
000240
000480
000480
000900
001200
001200
002400
004800
004800
009000
009000
004800
004800
002400
001200
001200
000900
000480
000480
000240
ENDCHAR
STARTCHAR 01-53
ENCODING 8533
SWIDTH 1010 0
DWIDTH 20 0
BBX 20 20 0 -3
BITMAP
240000
120000
120000
090000
048000
048000
024000
012000
012000
009000
009000
012000
012000
024000
048000
048000
090000
120000
120000
240000
ENDCHAR
STARTCHAR 01-54
ENCODING 8534
SWIDTH 1010 0
DWIDTH 20 0
BBX 20 20 0 -3
BITMAP
003f80
002000
002000
002000
002000
002000
002000
002000
002000
002000
002000
002000
002000
002000
002000
002000
002000
002000
000000
000000
ENDCHAR
STARTCHAR 01-55
ENCODING 8535
SWIDTH 1010 0
DWIDTH 20 0
BBX 20 20 0 -3
BITMAP
000000
000000
002000
002000
002000
002000
002000
002000
002000
002000
002000
002000
002000
002000
002000
002000
002000
002000
002000
1fe000
ENDCHAR
STARTCHAR 01-56
ENCODING 8536
SWIDTH 1010 0
DWIDTH 20 0
BBX 20 20 0 -3
BITMAP
00ff80
008080
00bf80
00a000
00a000
00a000
00a000
00a000
00a000
00a000
00a000
00a000
00a000
00a000
00a000
00a000
00a000
00e000
000000
000000
ENDCHAR
STARTCHAR 01-57
ENCODING 8537
SWIDTH 1010 0
DWIDTH 20 0
BBX 20 20 0 -3
BITMAP
000000
000000
007000
005000
005000
005000
005000
005000
005000
005000
005000
005000
005000
005000
005000
005000
005000
1fd000
101000
1ff000
ENDCHAR
STARTCHAR 01-58
ENCODING 8538
SWIDTH 1010 0
DWIDTH 20 0
BBX 20 20 0 -3
BITMAP
003f00
003e00
003c00
003800
003800
003800
003000
003000
003000
003000
003000
003000
003000
003000
003800
003800
003800
003c00
003e00
003f00
ENDCHAR
STARTCHAR 01-59
ENCODING 8539
SWIDTH 1010 0
DWIDTH 20 0
BBX 20 20 0 -3
BITMAP
0fc000
07c000
03c000
01c000
01c000
01c000
00c000
00c000
00c000
00c000
00c000
00c000
00c000
00c000
01c000
01c000
01c000
03c000
07c000
0fc000
ENDCHAR
STARTCHAR 01-60
ENCODING 8540
SWIDTH 1010 0
DWIDTH 20 0
BBX 20 20 0 -3
BITMAP
000000
000000
000000
004000
004000
004000
004000
004000
004000
004000
0fff00
004000
004000
004000
004000
004000
004000
004000
000000
000000
ENDCHAR
STARTCHAR 01-61
ENCODING 8541
SWIDTH 1010 0
DWIDTH 20 0
BBX 20 20 0 -3
BITMAP
000000
000000
000000
000000
000000
000000
000000
000000
000000
1fff80
000000
000000
000000
000000
000000
000000
000000
000000
000000
000000
ENDCHAR
STARTCHAR 01-62
ENCODING 8542
SWIDTH 1010 0
DWIDTH 20 0
BBX 20 20 0 -3
BITMAP
000000
000000
000000
004000
004000
004000
004000
004000
0fff00
004000
004000
004000
004000
004000
000000
000000
0fff00
000000
000000
000000
ENDCHAR
STARTCHAR 01-63
ENCODING 8543
SWIDTH 1010 0
DWIDTH 20 0
BBX 20 20 0 -3
BITMAP
000000
000000
000000
000000
000000
040200
020400
010800
009000
006000
006000
009000
010800
020400
040200
000000
000000
000000
000000
000000
ENDCHAR
STARTCHAR 01-64
ENCODING 8544
SWIDTH 1010 0
DWIDTH 20 0
BBX 20 20 0 -3
BITMAP
000000
000000
000000
000000
006000
006000
000000
000000
000000
0fff80
000000
000000
000000
006000
006000
000000
000000
000000
000000
000000
ENDCHAR
STARTCHAR 01-65
ENCODING 8545
SWIDTH 1010 0
DWIDTH 20 0
BBX 20 20 0 -3
BITMAP
000000
000000
000000
000000
000000
000000
000000
0fff80
000000
000000
000000
0fff80
000000
000000
000000
000000
000000
000000
000000
000000
ENDCHAR
STARTCHAR 01-66
ENCODING 8546
SWIDTH 1010 0
DWIDTH 20 0
BBX 20 20 0 -3
BITMAP
000000
000000
000000
000800
000800
001000
001000
0fff80
002000
004000
004000
0fff80
008000
008000
010000
010000
000000
000000
000000
000000
ENDCHAR
STARTCHAR 01-67
ENCODING 8547
SWIDTH 1010 0
DWIDTH 20 0
BBX 20 20 0 -3
BITMAP
000000
000000
0000c0
000300
000c00
003000
00c000
030000
0c0000
300000
300000
0c0000
030000
00c000
003000
000c00
000300
0000c0
000000
000000
ENDCHAR
STARTCHAR 01-68
ENCODING 8548
SWIDTH 1010 0
DWIDTH 20 0
BBX 20 20 0 -3
BITMAP
000000
000000
300000
0c0000
030000
00c000
003000
000c00
000300
0000c0
0000c0
000300
000c00
003000
00c000
030000
0c0000
300000
000000
000000
ENDCHAR
STARTCHAR 01-69
ENCODING 8549
SWIDTH 1010 0
DWIDTH 20 0
BBX 20 20 0 -3
BITMAP
000000
000000
000000
0003c0
003c00
03c000
3c0000
3c0000
03c000
003c00
0003c0
000000
000000
1fffc0
000000
000000
1fffc0
000000
000000
000000
ENDCHAR
STARTCHAR 01-70
ENCODING 8550
SWIDTH 1010 0
DWIDTH 20 0
BBX 20 20 0 -3
BITMAP
000000
000000
000000
1c0000
03c000
003c00
0003c0
0003c0
003c00
03c000
1c0000
000000
000000
1fffc0
000000
000000
1fffc0
000000
000000
000000
ENDCHAR
STARTCHAR 01-71
ENCODING 8551
SWIDTH 1010 0
DWIDTH 20 0
BBX 20 20 0 -3
BITMAP
000000
000000
000000
000000
000000
1e0780
210840
409020
40d020
406020
406020
40b020
409020
210840
1e0780
000000
000000
000000
000000
000000
ENDCHAR
STARTCHAR 01-72
ENCODING 8552
SWIDTH 1010 0
DWIDTH 20 0
BBX 20 20 0 -3
BITMAP
000000
000000
000000
00e000
00e000
00e000
000000
000000
000000
000000
000000
000000
000000
1c0700
1c0700
1c0700
000000
000000
000000
000000
ENDCHAR
STARTCHAR 01-73
ENCODING 8553
SWIDTH 1010 0
DWIDTH 20 0
BBX 20 20 0 -3
BITMAP
000000
001fe0
000060
0000a0
000120
000220
000420
000820
0f9020
106020
202000
401000
401000
401000
401000
401000
202000
104000
0f8000
000000
ENDCHAR
STARTCHAR 01-74
ENCODING 8554
SWIDTH 1010 0
DWIDTH 20 0
BBX 20 20 0 -3
BITMAP
01f000
020800
040400
080200
080200
080200
080200
080200
040400
020800
01f000
004000
004000
1fff80
004000
004000
004000
004000
004000
000000
ENDCHAR
STARTCHAR 01-75
ENCODING 8555
SWIDTH 1010 0
DWIDTH 20 0
BBX 20 20 0 -3
BITMAP
000000
000000
180000
240000
240000
180000
000000
000000
000000
000000
000000
000000
000000
000000
000000
000000
000000
000000
000000
000000
ENDCHAR
STARTCHAR 01-76
ENCODING 8556
SWIDTH 1010 0
DWIDTH 20 0
BBX 20 20 0 -3
BITMAP
000000
060000
040000
0c0000
080000
080000
100000
100000
000000
000000
000000
000000
000000
000000
000000
000000
000000
000000
000000
000000
ENDCHAR
STARTCHAR 01-77
ENCODING 8557
SWIDTH 1010 0
DWIDTH 20 0
BBX 20 20 0 -3
BITMAP
000000
1b0000
120000
360000
240000
240000
480000
480000
000000
000000
000000
000000
000000
000000
000000
000000
000000
000000
000000
000000
ENDCHAR
STARTCHAR 01-78
ENCODING 8558
SWIDTH 1010 0
DWIDTH 20 0
BBX 20 20 0 -3
BITMAP
000000
380000
440000
441e40
4461c0
388040
008060
010020
010000
010000
010000
010000
010000
010000
008020
008020
0060c0
001f00
000000
000000
ENDCHAR
STARTCHAR 01-79
ENCODING 8559
SWIDTH 1010 0
DWIDTH 20 0
BBX 20 20 0 -3
BITMAP
000000
000000
1f87c0
040100
020200
010400
008800
005000
1fffc0
002000
002000
002000
1fffc0
002000
002000
002000
002000
00f800
000000
000000
ENDCHAR
STARTCHAR 01-80
ENCODING 8560
SWIDTH 1010 0
DWIDTH 20 0
BBX 20 20 0 -3
BITMAP
000000
004000
004000
03f800
044400
084200
084600
044000
034000
00e000
005800
004400
004200
0c4200
084200
064c00
01f000
004000
004000
000000
ENDCHAR
STARTCHAR 01-81
ENCODING 8561
SWIDTH 1010 0
DWIDTH 20 0
BBX 20 20 0 -3
BITMAP
000000
000000
000000
000000
000400
000400
000800
00f800
031400
021200
042600
042000
044000
044000
028200
018c00
017000
010000
020000
020000
ENDCHAR
STARTCHAR 01-82
ENCODING 8562
SWIDTH 1010 0
DWIDTH 20 0
BBX 20 20 0 -3
BITMAP
000000
000000
003c00
00c300
010080
010180
020000
020000
020000
1ffc00
020000
010000
010000
008000
1f8000
20c020
2330c0
1c0f00
000000
000000
ENDCHAR
STARTCHAR 01-83
ENCODING 8563
SWIDTH 1010 0
DWIDTH 20 0
BBX 20 20 0 -3
BITMAP
000000
000000
0f0040
188080
308100
208200
218400
230800
1e1000
002000
004000
008780
010c40
021840
041040
0810c0
101180
200f00
000000
000000
ENDCHAR
STARTCHAR 01-84
ENCODING 8564
SWIDTH 1010 0
DWIDTH 20 0
BBX 20 20 0 -3
BITMAP
000000
004100
004100
008200
008200
008200
0fffc0
010400
010400
010400
020800
020800
020800
1fff00
041000
041000
041000
082000
082000
000000
ENDCHAR
STARTCHAR 01-85
ENCODING 8565
SWIDTH 1010 0
DWIDTH 20 0
BBX 20 20 0 -3
BITMAP
000000
000000
03c000
042000
081000
081000
042000
044000
028f80
030200
050200
090400
108400
204800
203000
203020
104c40
0f8380
000000
000000
ENDCHAR
STARTCHAR 01-86
ENCODING 8566
SWIDTH 1010 0
DWIDTH 20 0
BBX 20 20 0 -3
BITMAP
000000
000000
000000
004000
00e000
00e000
0c4600
0c4600
035800
00e000
035800
0c4600
0c4600
00e000
00e000
004000
000000
000000
000000
000000
ENDCHAR
STARTCHAR 01-87
ENCODING 8567
SWIDTH 1010 0
DWIDTH 20 0
BBX 20 20 0 -3
BITMAP
000000
000000
000000
00f800
038600
060100
0c0100
086880
189880
110880
110880
110900
113900
08ce00
080040
040080
030300
00fc00
000000
000000
ENDCHAR
STARTCHAR 01-88
ENCODING 8568
SWIDTH 1010 0
DWIDTH 20 0
BBX 20 20 0 -3
BITMAP
000000
01f000
020c00
040200
060600
030000
01c000
017800
020c00
040600
060200
030400
01e800
003800
000c00
060200
040600
030400
00f800
000000
ENDCHAR
STARTCHAR 01-89
ENCODING 8569
SWIDTH 1010 0
DWIDTH 20 0
BBX 20 20 0 -3
BITMAP
000000
000000
004000
004000
00a000
00a000
00a000
011000
7f1fc0
100100
080200
040400
020800
044400
04a400
0b1a00
0c0600
100100
000000
000000
ENDCHAR
STARTCHAR 01-90
ENCODING 8570
SWIDTH 1010 0
DWIDTH 20 0
BBX 20 20 0 -3
BITMAP
000000
000000
004000
004000
00e000
00e000
00e000
01f000
7fffc0
1fff00
0ffe00
07fc00
03f800
07fc00
07bc00
0f1e00
0c0600
100100
000000
000000
ENDCHAR
STARTCHAR 01-91
ENCODING 8571
SWIDTH 1010 0
DWIDTH 20 0
BBX 20 20 0 -3
BITMAP
000000
01f800
060600
080100
100080
200040
200040
400020
400020
400020
400020
400020
400020
200040
200040
100080
080100
060600
01f800
000000
ENDCHAR
STARTCHAR 01-92
ENCODING 8572
SWIDTH 1010 0
DWIDTH 20 0
BBX 20 20 0 -3
BITMAP
000000
01f800
07fe00
0fff00
1fff80
3fffc0
3fffc0
7fffe0
7fffe0
7fffe0
7fffe0
7fffe0
7fffe0
3fffc0
3fffc0
1fff80
0fff00
07fe00
01f800
000000
ENDCHAR
STARTCHAR 01-93
ENCODING 8573
SWIDTH 1010 0
DWIDTH 20 0
BBX 20 20 0 -3
BITMAP
000000
01f800
060600
080100
100080
20f040
230c40
420420
440220
440220
440220
440220
420420
230c40
20f040
100080
080100
060600
01f800
000000
ENDCHAR
STARTCHAR 01-94
ENCODING 8574
SWIDTH 1010 0
DWIDTH 20 0
BBX 20 20 0 -3
BITMAP
004000
00a000
011000
020800
040400
080200
100100
200080
400040
800020
400040
200080
100100
080200
040400
020800
011000
00a000
004000
000000
ENDCHAR
STARTCHAR 02-01
ENCODING 8737
SWIDTH 1010 0
DWIDTH 20 0
BBX 20 20 0 -3
BITMAP
004000
00e000
01f000
03f800
07fc00
0ffe00
1fff00
3fff80
7fffc0
ffffe0
7fffc0
3fff80
1fff00
0ffe00
07fc00
03f800
01f000
00e000
004000
000000
ENDCHAR
STARTCHAR 02-02
ENCODING 8738
SWIDTH 1010 0
DWIDTH 20 0
BBX 20 20 0 -3
BITMAP
000000
7fffe0
400020
400020
400020
400020
400020
400020
400020
400020
400020
400020
400020
400020
400020
400020
400020
400020
7fffe0
000000
ENDCHAR
STARTCHAR 02-03
ENCODING 8739
SWIDTH 1010 0
DWIDTH 20 0
BBX 20 20 0 -3
BITMAP
000000
7fffe0
7fffe0
7fffe0
7fffe0
7fffe0
7fffe0
7fffe0
7fffe0
7fffe0
7fffe0
7fffe0
7fffe0
7fffe0
7fffe0
7fffe0
7fffe0
7fffe0
7fffe0
000000
ENDCHAR
STARTCHAR 02-04
ENCODING 8740
SWIDTH 1010 0
DWIDTH 20 0
BBX 20 20 0 -3
BITMAP
000000
004000
004000
00a000
00a000
011000
011000
020800
020800
040400
040400
080200
080200
100100
100100
200080
200080
7fffc0
000000
000000
ENDCHAR
STARTCHAR 02-05
ENCODING 8741
SWIDTH 1010 0
DWIDTH 20 0
BBX 20 20 0 -3
BITMAP
000000
004000
004000
00e000
00e000
01f000
01f000
03f800
03f800
07fc00
07fc00
0ffe00
0ffe00
1fff00
1fff00
3fff80
3fff80
7fffc0
000000
000000
ENDCHAR
STARTCHAR 02-06
ENCODING 8742
SWIDTH 1010 0
DWIDTH 20 0
BBX 20 20 0 -3
BITMAP
000000
000000
7fffc0
200080
200080
100100
100100
080200
080200
040400
040400
020800
020800
011000
011000
00a000
00a000
004000
004000
000000
ENDCHAR
STARTCHAR 02-07
ENCODING 8743
SWIDTH 1010 0
DWIDTH 20 0
BBX 20 20 0 -3
BITMAP
000000
000000
7fffc0
3fff80
3fff80
1fff00
1fff00
0ffe00
0ffe00
07fc00
07fc00
03f800
03f800
01f000
01f000
00e000
00e000
004000
004000
000000
ENDCHAR
STARTCHAR 02-08
ENCODING 8744
SWIDTH 1010 0
DWIDTH 20 0
BBX 20 20 0 -3
BITMAP
000000
000000
000000
106080
086100
040200
020400
010800
009000
186180
186180
009000
010800
020400
040200
086100
106080
000000
000000
000000
ENDCHAR
STARTCHAR 02-09
ENCODING 8745
SWIDTH 1010 0
DWIDTH 20 0
BBX 20 20 0 -3
BITMAP
000000
000000
000000
7fffe0
000000
000000
000000
000000
7fffe0
002000
002000
002000
002000
002000
002000
002000
002000
002000
002000
000000
ENDCHAR
STARTCHAR 02-10
ENCODING 8746
SWIDTH 1010 0
DWIDTH 20 0
BBX 20 20 0 -3
BITMAP
000000
000000
000000
000000
000000
000000
000400
000200
000180
ffffe0
000180
000200
000400
000000
000000
000000
000000
000000
000000
000000
ENDCHAR
STARTCHAR 02-11
ENCODING 8747
SWIDTH 1010 0
DWIDTH 20 0
BBX 20 20 0 -3
BITMAP
000000
000000
000000
000000
000000
000000
020000
040000
180000
7ffff0
180000
040000
020000
000000
000000
000000
000000
000000
000000
000000
ENDCHAR
STARTCHAR 02-12
ENCODING 8748
SWIDTH 1010 0
DWIDTH 20 0
BBX 20 20 0 -3
BITMAP
004000
004000
00e000
00e000
015000
024800
004000
004000
004000
004000
004000
004000
004000
004000
004000
004000
004000
004000
004000
000000
ENDCHAR
STARTCHAR 02-13
ENCODING 8749
SWIDTH 1010 0
DWIDTH 20 0
BBX 20 20 0 -3
BITMAP
004000
004000
004000
004000
004000
004000
004000
004000
004000
004000
004000
004000
004000
024800
015000
00e000
00e000
004000
004000
000000
ENDCHAR
STARTCHAR 02-14
ENCODING 8750
SWIDTH 1010 0
DWIDTH 20 0
BBX 20 20 0 -3
BITMAP
000000
000000
000000
000000
3fffc0
3fffc0
3fffc0
3fffc0
000000
000000
000000
000000
3fffc0
3fffc0
3fffc0
3fffc0
000000
000000
000000
000000
ENDCHAR
STARTCHAR 02-26
ENCODING 8762
SWIDTH 1010 0
DWIDTH 20 0
BBX 20 20 0 -3
BITMAP
000000
000000
000000
000000
00ff00
030000
040000
040000
080000
0fff00
080000
040000
040000
030000
00ff00
000000
000000
000000
000000
000000
ENDCHAR
STARTCHAR 02-27
ENCODING 8763
SWIDTH 1010 0
DWIDTH 20 0
BBX 20 20 0 -3
BITMAP
000000
000000
000000
000000
07f000
000c00
000200
000200
000100
07ff00
000100
000200
000200
000c00
07f000
000000
000000
000000
000000
000000
ENDCHAR
STARTCHAR 02-28
ENCODING 8764
SWIDTH 1010 0
DWIDTH 20 0
BBX 20 20 0 -3
BITMAP
000000
000000
000000
01ff80
060000
080000
080000
100000
100000
080000
080000
060000
01ff80
000000
000000
0fff80
000000
000000
000000
000000
ENDCHAR
STARTCHAR 02-29
ENCODING 8765
SWIDTH 1010 0
DWIDTH 20 0
BBX 20 20 0 -3
BITMAP
000000
000000
000000
0ff800
000600
000100
000100
000080
000080
000100
000100
000600
0ff800
000000
000000
0fff80
000000
000000
000000
000000
ENDCHAR
STARTCHAR 02-30
ENCODING 8766
SWIDTH 1010 0
DWIDTH 20 0
BBX 20 20 0 -3
BITMAP
000000
000000
000000
000000
01ff80
060000
080000
080000
100000
100000
100000
100000
080000
080000
060000
01ff80
000000
000000
000000
000000
ENDCHAR
STARTCHAR 02-31
ENCODING 8767
SWIDTH 1010 0
DWIDTH 20 0
BBX 20 20 0 -3
BITMAP
000000
000000
000000
000000
0ff800
000600
000100
000100
000080
000080
000080
000080
000100
000100
000600
0ff800
000000
000000
000000
000000
ENDCHAR
STARTCHAR 02-32
ENCODING 8768
SWIDTH 1010 0
DWIDTH 20 0
BBX 20 20 0 -3
BITMAP
000000
000000
000000
080100
080100
080100
080100
080100
080100
080100
080100
080100
080100
040200
040200
030c00
00f000
000000
000000
000000
ENDCHAR
STARTCHAR 02-33
ENCODING 8769
SWIDTH 1010 0
DWIDTH 20 0
BBX 20 20 0 -3
BITMAP
000000
000000
000000
00f000
030c00
040200
040200
080100
080100
080100
080100
080100
080100
080100
080100
080100
080100
080100
000000
000000
ENDCHAR
STARTCHAR 02-42
ENCODING 8778
SWIDTH 1010 0
DWIDTH 20 0
BBX 20 20 0 -3
BITMAP
000000
000000
000000
004000
004000
00a000
00a000
011000
011000
020800
020800
040400
040400
080200
080200
100100
100100
000000
000000
000000
ENDCHAR
STARTCHAR 02-43
ENCODING 8779
SWIDTH 1010 0
DWIDTH 20 0
BBX 20 20 0 -3
BITMAP
000000
000000
000000
100100
100100
080200
080200
040400
040400
020800
020800
011000
011000
00a000
00a000
004000
004000
000000
000000
000000
ENDCHAR
STARTCHAR 02-44
ENCODING 8780
SWIDTH 1010 0
DWIDTH 20 0
BBX 20 20 0 -3
BITMAP
000000
000000
000000
000000
000000
000000
000000
000000
0fff80
000080
000080
000080
000080
000080
000000
000000
000000
000000
000000
000000
ENDCHAR
STARTCHAR 02-45
ENCODING 8781
SWIDTH 1010 0
DWIDTH 20 0
BBX 20 20 0 -3
BITMAP
000000
000000
000000
000000
000400
000200
000100
7fff80
000040
000020
000040
7fff80
000100
000200
000400
000000
000000
000000
000000
000000
ENDCHAR
STARTCHAR 02-46
ENCODING 8782
SWIDTH 1010 0
DWIDTH 20 0
BBX 20 20 0 -3
BITMAP
000000
000000
000000
000000
040400
080200
100100
3fff80
400040
800020
400040
3fff80
100100
080200
040400
000000
000000
000000
000000
000000
ENDCHAR
STARTCHAR 02-47
ENCODING 8783
SWIDTH 1010 0
DWIDTH 20 0
BBX 20 20 0 -3
BITMAP
000000
000000
200080
200080
100100
100100
080200
0ffe00
040400
040400
020800
020800
011000
011000
00a000
00a000
004000
004000
000000
000000
ENDCHAR
STARTCHAR 02-48
ENCODING 8784
SWIDTH 1010 0
DWIDTH 20 0
BBX 20 20 0 -3
BITMAP
000000
000000
000000
07fe00
000200
000200
000200
000200
000200
07fe00
000200
000200
000200
000200
000200
07fe00
000000
000000
000000
000000
ENDCHAR
STARTCHAR 02-60
ENCODING 8796
SWIDTH 1010 0
DWIDTH 20 0
BBX 20 20 0 -3
BITMAP
000000
000000
000000
000100
000200
000400
000800
001000
002000
004000
008000
010000
020000
040000
080000
1fffc0
000000
000000
000000
000000
ENDCHAR
STARTCHAR 02-61
ENCODING 8797
SWIDTH 1010 0
DWIDTH 20 0
BBX 20 20 0 -3
BITMAP
000000
000000
000000
004000
004000
004000
004000
004000
004000
004000
004000
004000
004000
004000
004000
1fff80
000000
000000
000000
000000
ENDCHAR
STARTCHAR 02-62
ENCODING 8798
SWIDTH 1010 0
DWIDTH 20 0
BBX 20 20 0 -3
BITMAP
03f800
1c0700
6000c0
800020
000000
000000
000000
000000
000000
000000
000000
000000
000000
000000
000000
000000
000000
000000
000000
000000
ENDCHAR
STARTCHAR 02-63
ENCODING 8799
SWIDTH 1010 0
DWIDTH 20 0
BBX 20 20 0 -3
BITMAP
000000
000000
007000
018800
020400
000400
000400
000400
00e400
031400
040c00
040800
080800
080800
081000
081000
042000
03c000
000000
000000
ENDCHAR
STARTCHAR 02-64
ENCODING 8800
SWIDTH 1010 0
DWIDTH 20 0
BBX 20 20 0 -3
BITMAP
000000
000000
3fffe0
300040
180040
080080
0c0080
040100
060100
020200
030200
010400
018400
008800
00c800
005000
007000
002000
002000
000000
ENDCHAR
STARTCHAR 02-65
ENCODING 8801
SWIDTH 1010 0
DWIDTH 20 0
BBX 20 20 0 -3
BITMAP
000000
000000
000000
000000
0fffc0
000000
000000
000000
000000
0fffc0
000000
000000
000000
000000
0fffc0
000000
000000
000000
000000
000000
ENDCHAR
STARTCHAR 02-66
ENCODING 8802
SWIDTH 1010 0
DWIDTH 20 0
BBX 20 20 0 -3
BITMAP
000000
000000
000000
030000
030000
000000
000000
0fffc0
000000
000000
000000
0fffc0
000000
000000
000300
000300
000000
000000
000000
000000
ENDCHAR
STARTCHAR 02-67
ENCODING 8803
SWIDTH 1010 0
DWIDTH 20 0
BBX 20 20 0 -3
BITMAP
000000
000000
000820
0030c0
004100
018600
020800
0c3000
104000
618000
618000
104000
0c3000
020800
018600
004100
0030c0
000820
000000
000000
ENDCHAR
STARTCHAR 02-68
ENCODING 8804
SWIDTH 1010 0
DWIDTH 20 0
BBX 20 20 0 -3
BITMAP
000000
000000
410000
30c000
082000
061800
010400
00c300
002080
001860
001860
002080
00c300
010400
061800
082000
30c000
410000
000000
000000
ENDCHAR
STARTCHAR 02-69
ENCODING 8805
SWIDTH 1010 0
DWIDTH 20 0
BBX 20 20 0 -3
BITMAP
003ff0
002000
002000
002000
004000
004000
004000
004000
008000
008000
008000
108000
310000
590000
890000
0d0000
060000
060000
020000
020000
ENDCHAR
STARTCHAR 02-70
ENCODING 8806
SWIDTH 1010 0
DWIDTH 20 0
BBX 20 20 0 -3
BITMAP
000000
000000
000000
000000
000000
0e0700
100880
201040
402020
402020
404020
404020
208040
110080
0e0700
000000
000000
000000
000000
000000
ENDCHAR
STARTCHAR 02-71
ENCODING 8807
SWIDTH 1010 0
DWIDTH 20 0
BBX 20 20 0 -3
BITMAP
000000
000000
000000
000000
000000
0e0f00
111080
20a040
404000
404000
404000
404000
20a040
111080
0e0f00
000000
000000
000000
000000
000000
ENDCHAR
STARTCHAR 02-72
ENCODING 8808
SWIDTH 1010 0
DWIDTH 20 0
BBX 20 20 0 -3
BITMAP
000000
000000
000000
000000
1c0700
1c0700
1c0700
000000
000000
000000
000000
000000
000000
000000
00e000
00e000
00e000
000000
000000
000000
ENDCHAR
STARTCHAR 02-73
ENCODING 8809
SWIDTH 1010 0
DWIDTH 20 0
BBX 20 20 0 -3
BITMAP
007000
008800
011800
010000
010000
018000
008000
00c000
004000
006000
006000
002000
003000
001000
001800
000800
000800
018800
011000
00e000
ENDCHAR
STARTCHAR 02-74
ENCODING 8810
SWIDTH 1010 0
DWIDTH 20 0
BBX 20 20 0 -3
BITMAP
070e00
089100
11a300
102000
102000
183000
081000
0c1800
040800
060c00
060c00
020400
030600
010200
018300
008100
008100
18b100
112200
0e1c00
ENDCHAR
STARTCHAR 02-82
ENCODING 8818
SWIDTH 1010 0
DWIDTH 20 0
BBX 20 20 0 -3
BITMAP
000000
006000
009000
009000
006000
000000
006000
006000
00b000
009000
011800
010800
020c00
03fc00
040600
040200
080300
1f0fc0
000000
000000
ENDCHAR
STARTCHAR 02-83
ENCODING 8819
SWIDTH 1010 0
DWIDTH 20 0
BBX 20 20 0 -3
BITMAP
000000
380800
441000
441000
442000
444000
444000
448000
450000
390000
0271c0
048a20
048a20
088a20
108a20
108a20
208a20
408a20
4071c0
000000
ENDCHAR
STARTCHAR 02-84
ENCODING 8820
SWIDTH 1010 0
DWIDTH 20 0
BBX 20 20 0 -3
BITMAP
000800
020800
020800
020800
020800
020f00
03f800
1e0800
020800
020800
020800
020800
020f00
03f800
1e0800
020800
020800
020800
020000
000000
ENDCHAR
STARTCHAR 02-85
ENCODING 8821
SWIDTH 1010 0
DWIDTH 20 0
BBX 20 20 0 -3
BITMAP
010000
010000
010000
010000
010000
010000
010000
010000
013800
014400
018200
010200
010600
010c00
011800
013000
016000
018000
010000
000000
ENDCHAR
STARTCHAR 02-86
ENCODING 8822
SWIDTH 1010 0
DWIDTH 20 0
BBX 20 20 0 -3
BITMAP
004000
004000
006000
007000
007800
005c00
004e00
004600
004300
004100
004100
004200
004200
004400
03c800
0fc000
1f8000
1f8000
0e0000
000000
ENDCHAR
STARTCHAR 02-87
ENCODING 8823
SWIDTH 1010 0
DWIDTH 20 0
BBX 20 20 0 -3
BITMAP
004000
00e000
00e000
044400
0ffe00
044400
004000
004000
03f800
01f000
00e000
00e000
00e000
00e000
00e000
004000
004000
004000
004000
004000
ENDCHAR
STARTCHAR 02-88
ENCODING 8824
SWIDTH 1010 0
DWIDTH 20 0
BBX 20 20 0 -3
BITMAP
004000
00e000
00e000
044400
0ffe00
044400
00e000
00e000
00e000
004000
004000
00e000
00e000
00e000
044400
0ffe00
044400
00e000
00e000
004000
ENDCHAR
STARTCHAR 02-89
ENCODING 8825
SWIDTH 1010 0
DWIDTH 20 0
BBX 20 20 0 -3
BITMAP
000000
01fc00
07c400
07c400
0fc400
0fc400
07c400
07c400
01c400
004400
004400
004400
004400
004400
004400
004400
004400
004400
004400
004400
ENDCHAR
STARTCHAR 02-94
ENCODING 8830
SWIDTH 1010 0
DWIDTH 20 0
BBX 20 20 0 -3
BITMAP
03fc00
0c0300
100080
200040
400020
400020
800010
800010
800010
800010
800010
800010
800010
800010
400020
400020
200040
100080
0c0300
03fc00
ENDCHAR
STARTCHAR 03-16
ENCODING 9008
SWIDTH 1010 0
DWIDTH 20 0
BBX 20 20 0 -3
BITMAP
000000
00f800
030600
020200
040100
040100
040100
040100
040100
040100
040100
040100
040100
040100
040100
020200
030600
00f800
000000
000000
ENDCHAR
STARTCHAR 03-17
ENCODING 9009
SWIDTH 1010 0
DWIDTH 20 0
BBX 20 20 0 -3
BITMAP
000000
002000
00e000
032000
002000
002000
002000
002000
002000
002000
002000
002000
002000
002000
002000
002000
002000
01fc00
000000
000000
ENDCHAR
STARTCHAR 03-18
ENCODING 9010
SWIDTH 1010 0
DWIDTH 20 0
BBX 20 20 0 -3
BITMAP
000000
00f800
030600
040200
060100
060100
000300
000200
000600
000c00
001000
002000
00c000
010000
020100
040100
080200
0ffe00
000000
000000
ENDCHAR
STARTCHAR 03-19
ENCODING 9011
SWIDTH 1010 0
DWIDTH 20 0
BBX 20 20 0 -3
BITMAP
000000
00f000
030c00
020400
040200
060200
000200
000400
003800
000600
000200
000300
000100
000100
0c0300
0c0200
060600
01f800
000000
000000
ENDCHAR
STARTCHAR 03-20
ENCODING 9012
SWIDTH 1010 0
DWIDTH 20 0
BBX 20 20 0 -3
BITMAP
000000
001800
003800
002800
004800
008800
008800
010800
020800
020800
040800
080800
080800
1fff00
000800
000800
000800
003e00
000000
000000
ENDCHAR
STARTCHAR 03-21
ENCODING 9013
SWIDTH 1010 0
DWIDTH 20 0
BBX 20 20 0 -3
BITMAP
000000
07ff00
040000
040000
040000
040000
040000
05f800
060600
040200
000300
000100
000100
0c0100
0c0300
080200
060600
01f800
000000
000000
ENDCHAR
STARTCHAR 03-22
ENCODING 9014
SWIDTH 1010 0
DWIDTH 20 0
BBX 20 20 0 -3
BITMAP
000000
00f800
038600
020100
060300
040300
040000
04f800
050400
060200
040100
040100
040100
040100
040100
020200
030400
00f800
000000
000000
ENDCHAR
STARTCHAR 03-23
ENCODING 9015
SWIDTH 1010 0
DWIDTH 20 0
BBX 20 20 0 -3
BITMAP
000000
07ff00
040200
080400
080400
000800
000800
001000
001000
002000
002000
002000
004000
004000
004000
004000
004000
004000
000000
000000
ENDCHAR
STARTCHAR 03-24
ENCODING 9016
SWIDTH 1010 0
DWIDTH 20 0
BBX 20 20 0 -3
BITMAP
000000
01f800
020400
040200
040200
040200
020400
010800
01f000
020c00
040200
080100
080100
080100
080100
040200
020400
01f800
000000
000000
ENDCHAR
STARTCHAR 03-25
ENCODING 9017
SWIDTH 1010 0
DWIDTH 20 0
BBX 20 20 0 -3
BITMAP
000000
007000
018c00
020200
040200
040100
040100
040100
040100
020300
030500
00f900
000100
000100
040200
040600
020c00
01f000
000000
000000
ENDCHAR
STARTCHAR 03-33
ENCODING 9025
SWIDTH 1010 0
DWIDTH 20 0
BBX 20 20 0 -3
BITMAP
000000
000000
004000
004000
00e000
00a000
00a000
013000
011000
011800
020800
020800
07fc00
040400
040600
080200
080200
3e0f80
000000
000000
ENDCHAR
STARTCHAR 03-34
ENCODING 9026
SWIDTH 1010 0
DWIDTH 20 0
BBX 20 20 0 -3
BITMAP
000000
000000
0ff800
020400
020200
020200
020200
020400
020800
03f800
020400
020200
020100
020100
020100
020100
020200
0ffc00
000000
000000
ENDCHAR
STARTCHAR 03-35
ENCODING 9027
SWIDTH 1010 0
DWIDTH 20 0
BBX 20 20 0 -3
BITMAP
000000
000000
00fa00
010600
020200
040100
040100
080000
080000
080000
080000
080000
080000
040000
040100
020200
010c00
00f000
000000
000000
ENDCHAR
STARTCHAR 03-36
ENCODING 9028
SWIDTH 1010 0
DWIDTH 20 0
BBX 20 20 0 -3
BITMAP
000000
000000
0fe000
021800
020400
020200
020200
020100
020100
020100
020100
020100
020100
020200
020200
020400
021800
0fe000
000000
000000
ENDCHAR
STARTCHAR 03-37
ENCODING 9029
SWIDTH 1010 0
DWIDTH 20 0
BBX 20 20 0 -3
BITMAP
000000
000000
0fff00
020100
020100
020100
021000
021000
021000
03f000
021000
021000
021000
020000
020100
020100
020100
0fff00
000000
000000
ENDCHAR
STARTCHAR 03-38
ENCODING 9030
SWIDTH 1010 0
DWIDTH 20 0
BBX 20 20 0 -3
BITMAP
000000
000000
0fff00
020100
020100
020100
021000
021000
021000
03f000
021000
021000
021000
020000
020000
020000
020000
0fc000
000000
000000
ENDCHAR
STARTCHAR 03-39
ENCODING 9031
SWIDTH 1010 0
DWIDTH 20 0
BBX 20 20 0 -3
BITMAP
000000
000000
00fa00
010600
020300
040100
040000
080000
080000
080000
080f80
080100
080100
040100
040100
020300
010d00
00f100
000000
000000
ENDCHAR
STARTCHAR 03-40
ENCODING 9032
SWIDTH 1010 0
DWIDTH 20 0
BBX 20 20 0 -3
BITMAP
000000
000000
1f0f80
040200
040200
040200
040200
040200
040200
07fe00
040200
040200
040200
040200
040200
040200
040200
1f0f80
000000
000000
ENDCHAR
STARTCHAR 03-41
ENCODING 9033
SWIDTH 1010 0
DWIDTH 20 0
BBX 20 20 0 -3
BITMAP
000000
000000
00f800
002000
002000
002000
002000
002000
002000
002000
002000
002000
002000
002000
002000
002000
002000
00f800
000000
000000
ENDCHAR
STARTCHAR 03-42
ENCODING 9034
SWIDTH 1010 0
DWIDTH 20 0
BBX 20 20 0 -3
BITMAP
000000
000000
001f00
000400
000400
000400
000400
000400
000400
000400
000400
000400
000400
0c0400
0c0400
080800
041800
03e000
000000
000000
ENDCHAR
STARTCHAR 03-43
ENCODING 9035
SWIDTH 1010 0
DWIDTH 20 0
BBX 20 20 0 -3
BITMAP
000000
000000
0f9f80
020200
020400
020800
021000
022000
024000
038000
02c000
026000
023000
021800
020c00
020600
020300
0f8fc0
000000
000000
ENDCHAR
STARTCHAR 03-44
ENCODING 9036
SWIDTH 1010 0
DWIDTH 20 0
BBX 20 20 0 -3
BITMAP
000000
000000
0f8000
020000
020000
020000
020000
020000
020000
020000
020000
020000
020000
020000
020100
020100
020100
0fff00
000000
000000
ENDCHAR
STARTCHAR 03-45
ENCODING 9037
SWIDTH 1010 0
DWIDTH 20 0
BBX 20 20 0 -3
BITMAP
000000
000000
7001e0
100180
180280
180280
1c0480
140480
160880
120880
131080
111080
11a080
10a080
10c080
104080
104080
7c03e0
000000
000000
ENDCHAR
STARTCHAR 03-46
ENCODING 9038
SWIDTH 1010 0
DWIDTH 20 0
BBX 20 20 0 -3
BITMAP
000000
000000
1c0f80
0e0200
0a0200
0b0200
098200
088200
08c200
086200
082200
083200
081a00
080a00
080e00
080600
080200
3e0200
000000
000000
ENDCHAR
STARTCHAR 03-47
ENCODING 9039
SWIDTH 1010 0
DWIDTH 20 0
BBX 20 20 0 -3
BITMAP
000000
000000
00f000
030c00
040200
080100
080100
180080
100080
100080
100080
100080
100180
080100
080100
040200
030c00
00f000
000000
000000
ENDCHAR
STARTCHAR 03-48
ENCODING 9040
SWIDTH 1010 0
DWIDTH 20 0
BBX 20 20 0 -3
BITMAP
000000
000000
0ff800
020600
020300
020100
020100
020300
020600
03f800
020000
020000
020000
020000
020000
020000
020000
0f8000
000000
000000
ENDCHAR
STARTCHAR 03-49
ENCODING 9041
SWIDTH 1010 0
DWIDTH 20 0
BBX 20 20 0 -3
BITMAP
000000
000000
00f000
030c00
040200
080100
080100
180080
100080
100080
100080
100080
100180
080100
086100
049200
030c00
00f440
000440
000380
ENDCHAR
STARTCHAR 03-50
ENCODING 9042
SWIDTH 1010 0
DWIDTH 20 0
BBX 20 20 0 -3
BITMAP
000000
000000
0ffc00
020200
020100
020100
020100
020100
020200
03fc00
021000
021000
020800
020800
020400
020600
020300
0f81c0
000000
000000
ENDCHAR
STARTCHAR 03-51
ENCODING 9043
SWIDTH 1010 0
DWIDTH 20 0
BBX 20 20 0 -3
BITMAP
000000
000000
01f200
060e00
080200
080200
080000
060000
038000
00f000
001c00
000600
000300
080100
080100
0c0300
0b0600
08f800
000000
000000
ENDCHAR
STARTCHAR 03-52
ENCODING 9044
SWIDTH 1010 0
DWIDTH 20 0
BBX 20 20 0 -3
BITMAP
000000
000000
1fffc0
102040
102040
102040
002000
002000
002000
002000
002000
002000
002000
002000
002000
002000
002000
01fc00
000000
000000
ENDCHAR
STARTCHAR 03-53
ENCODING 9045
SWIDTH 1010 0
DWIDTH 20 0
BBX 20 20 0 -3
BITMAP
000000
000000
1f07c0
040100
040100
040100
040100
040100
040100
040100
040100
040100
040100
040100
020200
020200
018c00
007000
000000
000000
ENDCHAR
STARTCHAR 03-54
ENCODING 9046
SWIDTH 1010 0
DWIDTH 20 0
BBX 20 20 0 -3
BITMAP
000000
000000
1f07c0
040100
040100
060200
020200
030400
010400
010400
018800
008800
00d000
005000
007000
006000
002000
002000
000000
000000
ENDCHAR
STARTCHAR 03-55
ENCODING 9047
SWIDTH 1010 0
DWIDTH 20 0
BBX 20 20 0 -3
BITMAP
000000
000000
3efbe0
082080
082080
086080
087100
0c5100
0c9100
049100
049a00
050a00
050a00
070e00
060c00
020400
020400
020400
000000
000000
ENDCHAR
STARTCHAR 03-56
ENCODING 9048
SWIDTH 1010 0
DWIDTH 20 0
BBX 20 20 0 -3
BITMAP
000000
000000
1f0f80
040200
060200
030400
010800
019000
00d000
006000
007000
009000
011800
010c00
020400
040600
040300
1f0fc0
000000
000000
ENDCHAR
STARTCHAR 03-57
ENCODING 9049
SWIDTH 1010 0
DWIDTH 20 0
BBX 20 20 0 -3
BITMAP
000000
000000
1f8fc0
040300
060200
030400
010400
018800
00d000
006000
006000
002000
002000
002000
002000
002000
002000
00f800
000000
000000
ENDCHAR
STARTCHAR 03-58
ENCODING 9050
SWIDTH 1010 0
DWIDTH 20 0
BBX 20 20 0 -3
BITMAP
000000
000000
07ff00
040600
080c00
080800
001800
003000
002000
006000
00c000
008000
018000
030000
020100
060100
0c0200
1ffe00
000000
000000
ENDCHAR
STARTCHAR 03-65
ENCODING 9057
SWIDTH 1010 0
DWIDTH 20 0
BBX 20 20 0 -3
BITMAP
000000
000000
000000
000000
000000
000000
000000
01f800
020c00
060400
000400
003c00
01c400
020400
040400
040400
031d00
01e600
000000
000000
ENDCHAR
STARTCHAR 03-66
ENCODING 9058
SWIDTH 1010 0
DWIDTH 20 0
BBX 20 20 0 -3
BITMAP
000000
000000
070000
010000
010000
010000
010000
017800
018400
010200
010100
010100
010100
010100
010100
010200
018400
077800
000000
000000
ENDCHAR
STARTCHAR 03-67
ENCODING 9059
SWIDTH 1010 0
DWIDTH 20 0
BBX 20 20 0 -3
BITMAP
000000
000000
000000
000000
000000
000000
000000
00f800
010400
030600
020600
020000
020000
020000
020000
030200
010400
00f800
000000
000000
ENDCHAR
STARTCHAR 03-68
ENCODING 9060
SWIDTH 1010 0
DWIDTH 20 0
BBX 20 20 0 -3
BITMAP
000000
000000
001c00
000400
000400
000400
000400
01e400
021c00
040400
040400
040400
040400
040400
040400
040400
020c00
01f700
000000
000000
ENDCHAR
STARTCHAR 03-69
ENCODING 9061
SWIDTH 1010 0
DWIDTH 20 0
BBX 20 20 0 -3
BITMAP
000000
000000
000000
000000
000000
000000
000000
00f800
010400
020200
020200
03fe00
020000
020000
020000
020200
010400
00f800
000000
000000
ENDCHAR
STARTCHAR 03-70
ENCODING 9062
SWIDTH 1010 0
DWIDTH 20 0
BBX 20 20 0 -3
BITMAP
000000
000000
003c00
004200
004600
004000
004000
03fc00
004000
004000
004000
004000
004000
004000
004000
004000
004000
01f000
000000
000000
ENDCHAR
STARTCHAR 03-71
ENCODING 9063
SWIDTH 1010 0
DWIDTH 20 0
BBX 20 20 0 -3
BITMAP
000000
000000
000000
000000
000000
000000
000380
00f480
030800
040400
040400
021800
01e000
010000
01e000
061c00
080200
080200
040200
03fc00
ENDCHAR
STARTCHAR 03-72
ENCODING 9064
SWIDTH 1010 0
DWIDTH 20 0
BBX 20 20 0 -3
BITMAP
000000
000000
070000
010000
010000
010000
010000
017800
018400
010200
010200
010200
010200
010200
010200
010200
010200
07cf80
000000
000000
ENDCHAR
STARTCHAR 03-73
ENCODING 9065
SWIDTH 1010 0
DWIDTH 20 0
BBX 20 20 0 -3
BITMAP
000000
000000
002000
007000
002000
000000
000000
00e000
002000
002000
002000
002000
002000
002000
002000
002000
002000
01fc00
000000
000000
ENDCHAR
STARTCHAR 03-74
ENCODING 9066
SWIDTH 1010 0
DWIDTH 20 0
BBX 20 20 0 -3
BITMAP
000000
000000
001000
003800
001000
000000
000000
007800
000800
000800
000800
000800
000800
000800
000800
000800
000800
060800
041000
03e000
ENDCHAR
STARTCHAR 03-75
ENCODING 9067
SWIDTH 1010 0
DWIDTH 20 0
BBX 20 20 0 -3
BITMAP
000000
000000
0e0000
020000
020000
020000
020000
023e00
021000
022000
024000
028000
034000
022000
021000
020800
020400
0f9f00
000000
000000
ENDCHAR
STARTCHAR 03-76
ENCODING 9068
SWIDTH 1010 0
DWIDTH 20 0
BBX 20 20 0 -3
BITMAP
000000
000000
00e000
002000
002000
002000
002000
002000
002000
002000
002000
002000
002000
002000
002000
002000
002000
00f800
000000
000000
ENDCHAR
STARTCHAR 03-77
ENCODING 9069
SWIDTH 1010 0
DWIDTH 20 0
BBX 20 20 0 -3
BITMAP
000000
000000
000000
000000
000000
000000
000000
73cf00
0c3080
082080
082080
082080
082080
082080
082080
082080
082080
3cf3e0
000000
000000
ENDCHAR
STARTCHAR 03-78
ENCODING 9070
SWIDTH 1010 0
DWIDTH 20 0
BBX 20 20 0 -3
BITMAP
000000
000000
000000
000000
000000
000000
000000
0ef000
030800
020400
020400
020400
020400
020400
020400
020400
020400
0f9f00
000000
000000
ENDCHAR
STARTCHAR 03-79
ENCODING 9071
SWIDTH 1010 0
DWIDTH 20 0
BBX 20 20 0 -3
BITMAP
000000
000000
000000
000000
000000
000000
000000
00f800
010400
020200
020200
020200
020200
020200
020200
020200
010400
00f800
000000
000000
ENDCHAR
STARTCHAR 03-80
ENCODING 9072
SWIDTH 1010 0
DWIDTH 20 0
BBX 20 20 0 -3
BITMAP
000000
000000
000000
000000
000000
000000
000000
077800
018600
010200
010100
010100
010100
010100
010200
018600
017800
010000
010000
07c000
ENDCHAR
STARTCHAR 03-81
ENCODING 9073
SWIDTH 1010 0
DWIDTH 20 0
BBX 20 20 0 -3
BITMAP
000000
000000
000000
000000
000000
000000
000000
00f600
030c00
020400
040400
040400
040400
040400
020400
031c00
00e400
000400
000400
001f00
ENDCHAR
STARTCHAR 03-82
ENCODING 9074
SWIDTH 1010 0
DWIDTH 20 0
BBX 20 20 0 -3
BITMAP
000000
000000
000000
000000
000000
000000
000000
039c00
00a200
00c600
008000
008000
008000
008000
008000
008000
008000
03e000
000000
000000
ENDCHAR
STARTCHAR 03-83
ENCODING 9075
SWIDTH 1010 0
DWIDTH 20 0
BBX 20 20 0 -3
BITMAP
000000
000000
000000
000000
000000
000000
000000
01e800
021800
040800
040000
038000
007800
000400
040400
040400
060800
01f000
000000
000000
ENDCHAR
STARTCHAR 03-84
ENCODING 9076
SWIDTH 1010 0
DWIDTH 20 0
BBX 20 20 0 -3
BITMAP
000000
000000
004000
004000
004000
004000
00c000
03fc00
004000
004000
004000
004000
004000
004000
004000
004000
004200
003c00
000000
000000
ENDCHAR
STARTCHAR 03-85
ENCODING 9077
SWIDTH 1010 0
DWIDTH 20 0
BBX 20 20 0 -3
BITMAP
000000
000000
000000
000000
000000
000000
000000
0e1c00
020400
020400
020400
020400
020400
020400
020400
020400
010c00
00f700
000000
000000
ENDCHAR
STARTCHAR 03-86
ENCODING 9078
SWIDTH 1010 0
DWIDTH 20 0
BBX 20 20 0 -3
BITMAP
000000
000000
000000
000000
000000
000000
000000
0f8f80
020200
030400
010400
018800
008800
00d000
005000
006000
002000
002000
000000
000000
ENDCHAR
STARTCHAR 03-87
ENCODING 9079
SWIDTH 1010 0
DWIDTH 20 0
BBX 20 20 0 -3
BITMAP
000000
000000
000000
000000
000000
000000
000000
3ef7c0
084100
084100
08a200
0ca200
053400
051400
071c00
020800
020800
020800
000000
000000
ENDCHAR
STARTCHAR 03-88
ENCODING 9080
SWIDTH 1010 0
DWIDTH 20 0
BBX 20 20 0 -3
BITMAP
000000
000000
000000
000000
000000
000000
000000
0f9f00
020400
030800
019000
00e000
006000
007000
009800
010c00
020400
0f9f00
000000
000000
ENDCHAR
STARTCHAR 03-89
ENCODING 9081
SWIDTH 1010 0
DWIDTH 20 0
BBX 20 20 0 -3
BITMAP
000000
000000
000000
000000
000000
000000
000000
0f8f00
020400
020400
030800
010800
019000
009000
00a000
006000
004000
0c4000
088000
070000
ENDCHAR
STARTCHAR 03-90
ENCODING 9082
SWIDTH 1010 0
DWIDTH 20 0
BBX 20 20 0 -3
BITMAP
000000
000000
000000
000000
000000
000000
000000
03fe00
020c00
021800
001000
003000
006000
00c000
008200
018200
030200
07fe00
000000
000000
ENDCHAR
STARTCHAR 04-01
ENCODING 9249
SWIDTH 1010 0
DWIDTH 20 0
BBX 20 20 0 -3
BITMAP
000000
000000
000000
000000
018000
008000
009c00
1fe000
090000
011000
01f800
032600
052100
094100
118100
110100
128200
0c0c00
003000
000000
ENDCHAR
STARTCHAR 04-02
ENCODING 9250
SWIDTH 1010 0
DWIDTH 20 0
BBX 20 20 0 -3
BITMAP
018000
00c000
008000
008600
10b800
1fc000
090800
010800
017e00
038980
051040
092020
114020
108020
208020
214040
120080
1c0300
001c00
000000
ENDCHAR
STARTCHAR 04-03
ENCODING 9251
SWIDTH 1010 0
DWIDTH 20 0
BBX 20 20 0 -3
BITMAP
000000
000000
000000
000000
000000
000000
180000
0c0800
080400
080200
080100
080100
080680
044180
048100
050000
030000
010000
000000
000000
ENDCHAR
STARTCHAR 04-04
ENCODING 9252
SWIDTH 1010 0
DWIDTH 20 0
BBX 20 20 0 -3
BITMAP
000000
000000
000000
400000
200400
300200
200100
200080
200080
200040
200040
2081a0
110060
120040
120000
0c0000
040000
000000
000000
000000
ENDCHAR
STARTCHAR 04-05
ENCODING 9253
SWIDTH 1010 0
DWIDTH 20 0
BBX 20 20 0 -3
BITMAP
000000
000000
000000
000000
038000
006000
01b000
000000
00e000
131800
0c0400
000400
000400
000800
000800
001000
002000
00c000
030000
000000
ENDCHAR
STARTCHAR 04-06
ENCODING 9254
SWIDTH 1010 0
DWIDTH 20 0
BBX 20 20 0 -3
BITMAP
00c000
003000
001c00
006600
000000
000000
003c00
08c200
0f0100
040080
000080
000080
000080
000100
000100
000200
000400
000800
003000
00c000
ENDCHAR
STARTCHAR 04-07
ENCODING 9255
SWIDTH 1010 0
DWIDTH 20 0
BBX 20 20 0 -3
BITMAP
000000
000000
000000
000000
01c000
007000
004000
008800
083c00
07c800
021000
002000
004000
00c000
012000
022000
042000
082000
181f00
000000
ENDCHAR
STARTCHAR 04-08
ENCODING 9256
SWIDTH 1010 0
DWIDTH 20 0
BBX 20 20 0 -3
BITMAP
010000
00c000
003c00
002000
004000
000200
083f00
07c600
020800
001000
006000
008000
01c000
032000
062000
0c2000
182000
301060
300fc0
000000
ENDCHAR
STARTCHAR 04-09
ENCODING 9257
SWIDTH 1010 0
DWIDTH 20 0
BBX 20 20 0 -3
BITMAP
000000
000000
000000
000000
060000
030c00
020300
024180
238200
1e0000
020000
023c00
02c600
030100
060100
2a0100
324200
0a3c00
040000
000000
ENDCHAR
STARTCHAR 04-10
ENCODING 9258
SWIDTH 1010 0
DWIDTH 20 0
BBX 20 20 0 -3
BITMAP
000000
060000
030000
020300
0230c0
026060
2380a0
1e0100
020000
020000
023e00
02c180
030040
060040
4a0040
320080
2a6180
061e00
040000
000000
ENDCHAR
STARTCHAR 04-11
ENCODING 9259
SWIDTH 1010 0
DWIDTH 20 0
BBX 20 20 0 -3
BITMAP
000000
030000
018000
010000
010400
010200
43e100
3e1080
2210c0
021040
041060
0411e0
081040
081000
102000
222000
612000
40c000
008000
000000
ENDCHAR
STARTCHAR 04-12
ENCODING 9260
SWIDTH 1010 0
DWIDTH 20 0
BBX 20 20 0 -3
BITMAP
000040
030230
018190
010080
010400
010200
43e100
3e1080
2210c0
021040
041060
0411e0
081040
081000
102000
222000
612000
40c000
008000
000000
ENDCHAR
STARTCHAR 04-13
ENCODING 9261
SWIDTH 1010 0
DWIDTH 20 0
BBX 20 20 0 -3
BITMAP
00c000
004000
002000
002700
081c00
07f000
0009c0
000700
187c00
0f8400
000200
000200
01f900
060780
080180
080000
040000
030000
00fc00
000000
ENDCHAR
STARTCHAR 04-14
ENCODING 9262
SWIDTH 1010 0
DWIDTH 20 0
BBX 20 20 0 -3
BITMAP
00c040
004030
002110
0026c0
081c40
07f000
0009c0
000700
187c00
0f8400
000200
000200
01f900
060780
080180
080000
040000
030000
00fc00
000000
ENDCHAR
STARTCHAR 04-15
ENCODING 9263
SWIDTH 1010 0
DWIDTH 20 0
BBX 20 20 0 -3
BITMAP
000800
000c00
000800
001000
002000
004000
018000
060000
080000
080000
060000
010000
008000
004000
002000
001000
000800
000400
000400
000000
ENDCHAR
STARTCHAR 04-16
ENCODING 9264
SWIDTH 1010 0
DWIDTH 20 0
BBX 20 20 0 -3
BITMAP
001000
001840
001230
002190
004080
008000
030000
0c0000
100000
100000
0c0000
020000
010000
008000
004000
002000
001000
000800
000800
000000
ENDCHAR
STARTCHAR 04-17
ENCODING 9265
SWIDTH 1010 0
DWIDTH 20 0
BBX 20 20 0 -3
BITMAP
000800
100600
180300
100200
100200
1003c0
213e60
20c200
200200
200200
240200
240200
280200
280600
300400
100400
100800
100800
001000
002000
ENDCHAR
STARTCHAR 04-18
ENCODING 9266
SWIDTH 1010 0
DWIDTH 20 0
BBX 20 20 0 -3
BITMAP
001040
200c30
300510
2004c0
200440
200700
427cc0
418400
400400
400400
480400
480400
500400
500c00
600800
200800
201000
201000
002000
004000
ENDCHAR
STARTCHAR 04-19
ENCODING 9267
SWIDTH 1010 0
DWIDTH 20 0
BBX 20 20 0 -3
BITMAP
000000
000000
000000
060000
01fc00
000f00
003000
004000
000000
000000
000000
000000
100000
200000
200000
200000
100000
0c0180
03ff00
000000
ENDCHAR
STARTCHAR 04-20
ENCODING 9268
SWIDTH 1010 0
DWIDTH 20 0
BBX 20 20 0 -3
BITMAP
000040
000130
0000d0
060040
01fc00
000f00
003000
004000
000000
000000
000000
000000
100000
200000
200000
200000
100000
0c0180
03ff00
000000
ENDCHAR
STARTCHAR 04-21
ENCODING 9269
SWIDTH 1010 0
DWIDTH 20 0
BBX 20 20 0 -3
BITMAP
006000
002000
002200
001180
001380
180e00
0ff800
000800
000400
000400
00fa00
030700
040300
080180
080000
0c0000
040000
038000
007c00
000000
ENDCHAR
STARTCHAR 04-22
ENCODING 9270
SWIDTH 1010 0
DWIDTH 20 0
BBX 20 20 0 -3
BITMAP
006040
002130
0020d0
001040
001300
180e00
0ff800
000800
000400
000400
00fa00
030700
040300
080180
080000
0c0000
040000
038000
007c00
000000
ENDCHAR
STARTCHAR 04-23
ENCODING 9271
SWIDTH 1010 0
DWIDTH 20 0
BBX 20 20 0 -3
BITMAP
000000
180000
0c0000
040000
040000
040000
040000
040000
0c0000
080000
080000
080000
080000
080080
080100
080200
040400
071800
01e000
000000
ENDCHAR
STARTCHAR 04-24
ENCODING 9272
SWIDTH 1010 0
DWIDTH 20 0
BBX 20 20 0 -3
BITMAP
000000
180200
0c0180
040880
040600
040200
040000
040000
0c0000
080000
080000
080000
080000
080080
080100
080200
040400
071800
01e000
000000
ENDCHAR
STARTCHAR 04-25
ENCODING 9273
SWIDTH 1010 0
DWIDTH 20 0
BBX 20 20 0 -3
BITMAP
006000
001000
001800
001000
0010c0
40ffe0
7f1000
101000
00f000
011000
011800
011800
011800
00e800
001000
001000
002000
004000
008000
010000
ENDCHAR
STARTCHAR 04-26
ENCODING 9274
SWIDTH 1010 0
DWIDTH 20 0
BBX 20 20 0 -3
BITMAP
006040
001230
001990
001080
001000
40ffe0
7f1000
101000
00f000
011000
011800
011800
011800
00e800
001000
001000
002000
004000
008000
010000
ENDCHAR
STARTCHAR 04-27
ENCODING 9275
SWIDTH 1010 0
DWIDTH 20 0
BBX 20 20 0 -3
BITMAP
000000
000c00
000600
000600
060400
030400
0204c0
021ff0
43e400
7f0400
320400
022400
021c00
020800
020000
020000
010000
018000
007f00
000000
ENDCHAR
STARTCHAR 04-28
ENCODING 9276
SWIDTH 1010 0
DWIDTH 20 0
BBX 20 20 0 -3
BITMAP
000040
001930
000cd0
000c40
0c0800
060800
040980
043fe0
87c800
fe0800
640800
044800
043800
041000
040000
040000
020000
030000
00fe00
000000
ENDCHAR
STARTCHAR 04-29
ENCODING 9277
SWIDTH 1010 0
DWIDTH 20 0
BBX 20 20 0 -3
BITMAP
000000
000c00
047600
078800
021000
002000
004000
008380
017fe0
47b000
784000
208000
008000
010000
010000
008000
008000
006000
001e00
000000
ENDCHAR
STARTCHAR 04-30
ENCODING 9278
SWIDTH 1010 0
DWIDTH 20 0
BBX 20 20 0 -3
BITMAP
000040
000c30
047610
078880
021060
002020
004000
008380
017fe0
47b000
784000
208000
008000
010000
010000
008000
008000
006000
001e00
000000
ENDCHAR
STARTCHAR 04-31
ENCODING 9279
SWIDTH 1010 0
DWIDTH 20 0
BBX 20 20 0 -3
BITMAP
000000
060000
030000
010000
013000
43c000
7e1f00
2401c0
040300
040400
080000
080000
080000
100000
108000
308000
208000
606000
601fc0
000000
ENDCHAR
STARTCHAR 04-32
ENCODING 9280
SWIDTH 1010 0
DWIDTH 20 0
BBX 20 20 0 -3
BITMAP
000080
060060
030220
010180
013080
43c000
7e1f00
2401c0
040300
040400
080000
080000
080000
100000
108000
308000
208000
606000
601fc0
000000
ENDCHAR
STARTCHAR 04-33
ENCODING 9281
SWIDTH 1010 0
DWIDTH 20 0
BBX 20 20 0 -3
BITMAP
030000
018000
010000
010000
010c00
223800
1fc000
020000
020000
060000
043e00
04c100
0d0080
0e0080
0c0080
000180
000300
000c00
00f000
000000
ENDCHAR
STARTCHAR 04-34
ENCODING 9282
SWIDTH 1010 0
DWIDTH 20 0
BBX 20 20 0 -3
BITMAP
030040
018030
010110
0100c0
010c40
223800
1fc000
020000
020000
060000
043e00
04c100
0d0080
0e0080
0c0080
000180
000300
000c00
00f000
000000
ENDCHAR
STARTCHAR 04-35
ENCODING 9283
SWIDTH 1010 0
DWIDTH 20 0
BBX 20 20 0 -3
BITMAP
000000
000000
000000
000000
000000
000000
000000
000000
000000
003e00
11c100
1e0080
080080
000080
000080
000100
000600
001800
00e000
000000
ENDCHAR
STARTCHAR 04-36
ENCODING 9284
SWIDTH 1010 0
DWIDTH 20 0
BBX 20 20 0 -3
BITMAP
000000
000000
000000
000000
001e00
00e180
470040
7c0020
200020
000020
000020
000040
000080
000300
000c00
007000
000000
000000
000000
000000
ENDCHAR
STARTCHAR 04-37
ENCODING 9285
SWIDTH 1010 0
DWIDTH 20 0
BBX 20 20 0 -3
BITMAP
000040
000230
000190
000080
000000
001e00
00e180
470040
7c0020
200020
000020
000020
000040
000080
000300
000c00
007000
000000
000000
000000
ENDCHAR
STARTCHAR 04-38
ENCODING 9286
SWIDTH 1010 0
DWIDTH 20 0
BBX 20 20 0 -3
BITMAP
000000
000000
0001c0
001fe0
41ec00
7e1000
102000
004000
004000
008000
008000
008000
008000
008000
004000
006000
003800
000f00
000000
000000
ENDCHAR
STARTCHAR 04-39
ENCODING 9287
SWIDTH 1010 0
DWIDTH 20 0
BBX 20 20 0 -3
BITMAP
000000
000000
0001c0
001fe0
41ec00
7e1080
102060
004220
004180
008080
008000
008000
008000
008000
004000
006000
003800
000f00
000000
000000
ENDCHAR
STARTCHAR 04-40
ENCODING 9288
SWIDTH 1010 0
DWIDTH 20 0
BBX 20 20 0 -3
BITMAP
000000
030000
018000
008000
008000
008000
008200
008100
008600
005800
006000
018000
020000
040000
080000
080000
080000
060100
01fe00
000000
ENDCHAR
STARTCHAR 04-41
ENCODING 9289
SWIDTH 1010 0
DWIDTH 20 0
BBX 20 20 0 -3
BITMAP
000000
030080
018460
008320
008100
008000
008200
008100
008600
005800
006000
018000
020000
040000
080000
080000
080000
060100
01fe00
000000
ENDCHAR
STARTCHAR 04-42
ENCODING 9290
SWIDTH 1010 0
DWIDTH 20 0
BBX 20 20 0 -3
BITMAP
000000
018000
00c000
008000
00b000
1fc380
090040
0100e0
020120
020200
040200
080400
180400
300400
200400
00ff00
0104c0
018440
007800
000000
ENDCHAR
STARTCHAR 04-43
ENCODING 9291
SWIDTH 1010 0
DWIDTH 20 0
BBX 20 20 0 -3
BITMAP
000000
000000
200000
100000
181f00
1061c0
100300
200400
200000
200000
200000
240000
240000
288000
288000
308000
106000
101fc0
100000
000000
ENDCHAR
STARTCHAR 04-44
ENCODING 9292
SWIDTH 1010 0
DWIDTH 20 0
BBX 20 20 0 -3
BITMAP
000000
003000
001800
001000
101000
087e00
09a180
0a2040
044040
0c4020
148020
258020
230020
420040
451f80
492140
302260
001c20
000000
000000
ENDCHAR
STARTCHAR 04-45
ENCODING 9293
SWIDTH 1010 0
DWIDTH 20 0
BBX 20 20 0 -3
BITMAP
060000
030000
020000
020000
020000
028f00
4f30c0
324040
028020
030020
020020
060020
0a0020
120040
220fc0
521060
4a10b0
060f10
040000
040000
ENDCHAR
STARTCHAR 04-46
ENCODING 9294
SWIDTH 1010 0
DWIDTH 20 0
BBX 20 20 0 -3
BITMAP
000000
000000
000000
00fc00
034300
046180
0840c0
104040
208060
208020
410020
410020
420040
220040
3c0080
080100
000600
003800
000000
000000
ENDCHAR
STARTCHAR 04-47
ENCODING 9295
SWIDTH 1010 0
DWIDTH 20 0
BBX 20 20 0 -3
BITMAP
000000
200600
100300
180200
100200
108260
10ff80
204200
200200
200200
200200
240200
240200
280200
287f00
3882c0
108660
107c20
100000
000000
ENDCHAR
STARTCHAR 04-48
ENCODING 9296
SWIDTH 1010 0
DWIDTH 20 0
BBX 20 20 0 -3
BITMAP
000040
400d30
2004d0
300640
200400
2104c0
21ff00
408400
400400
400400
400400
480400
480400
500400
50fe00
710580
210cc0
20f840
200000
000000
ENDCHAR
STARTCHAR 04-49
ENCODING 9297
SWIDTH 1010 0
DWIDTH 20 0
BBX 20 20 0 -3
BITMAP
000060
400c90
200690
300460
200400
2104c0
21ff00
408400
400400
400400
400400
480400
480400
500400
50fe00
710580
210cc0
20f840
200000
000000
ENDCHAR
STARTCHAR 04-50
ENCODING 9298
SWIDTH 1010 0
DWIDTH 20 0
BBX 20 20 0 -3
BITMAP
000000
000000
008400
038400
6d0200
320200
040300
040280
0802c0
080260
100220
100400
100400
100400
100800
100800
081000
0c2000
03c000
000000
ENDCHAR
STARTCHAR 04-51
ENCODING 9299
SWIDTH 1010 0
DWIDTH 20 0
BBX 20 20 0 -3
BITMAP
000040
000030
008410
038480
6d0260
320220
040300
040280
0802c0
080260
100220
100400
100400
100400
100800
100800
081000
0c2000
03c000
000000
ENDCHAR
STARTCHAR 04-52
ENCODING 9300
SWIDTH 1010 0
DWIDTH 20 0
BBX 20 20 0 -3
BITMAP
000000
000060
008490
038490
6d0260
320200
040300
040280
0802c0
080260
100220
100400
100400
100400
100800
100800
081000
0c2000
03c000
000000
ENDCHAR
STARTCHAR 04-53
ENCODING 9301
SWIDTH 1010 0
DWIDTH 20 0
BBX 20 20 0 -3
BITMAP
000000
008000
004000
002000
003000
006000
008000
010000
010000
008000
004000
007e00
01a180
461040
281060
3811e0
11f020
106000
000000
000000
ENDCHAR
STARTCHAR 04-54
ENCODING 9302
SWIDTH 1010 0
DWIDTH 20 0
BBX 20 20 0 -3
BITMAP
000000
008080
004060
002220
003180
006080
008000
010000
010000
008000
004000
007e00
01a180
461040
281060
3811e0
11f020
106000
000000
000000
ENDCHAR
STARTCHAR 04-55
ENCODING 9303
SWIDTH 1010 0
DWIDTH 20 0
BBX 20 20 0 -3
BITMAP
000000
008000
004180
002240
003240
006180
008000
010000
010000
008000
004000
007e00
01a180
461040
281060
3811e0
11f020
106000
000000
000000
ENDCHAR
STARTCHAR 04-56
ENCODING 9304
SWIDTH 1010 0
DWIDTH 20 0
BBX 20 20 0 -3
BITMAP
000000
000000
000000
000000
000000
030000
048000
084000
084000
102000
701000
200c00
000600
000300
0001c0
000060
000000
000000
000000
000000
ENDCHAR
STARTCHAR 04-57
ENCODING 9305
SWIDTH 1010 0
DWIDTH 20 0
BBX 20 20 0 -3
BITMAP
000000
000080
000060
000220
000180
030080
048000
084000
084000
102000
701000
200c00
000600
000300
0001c0
000060
000000
000000
000000
000000
ENDCHAR
STARTCHAR 04-58
ENCODING 9306
SWIDTH 1010 0
DWIDTH 20 0
BBX 20 20 0 -3
BITMAP
000000
000000
000300
000480
000480
030300
048000
084000
084000
102000
701000
200c00
000600
000300
0001c0
000060
000000
000000
000000
000000
ENDCHAR
STARTCHAR 04-59
ENCODING 9307
SWIDTH 1010 0
DWIDTH 20 0
BBX 20 20 0 -3
BITMAP
000000
200000
1047c0
183c80
100600
100200
302200
20c2c0
207f80
200200
200200
240200
240200
280200
287f00
3082c0
308260
107c20
100000
000000
ENDCHAR
STARTCHAR 04-60
ENCODING 9308
SWIDTH 1010 0
DWIDTH 20 0
BBX 20 20 0 -3
BITMAP
000000
400000
208f40
307830
200c90
200460
204420
618580
40ff00
400400
400400
480400
480400
500400
50fe00
610580
6104c0
20f840
200000
000000
ENDCHAR
STARTCHAR 04-61
ENCODING 9309
SWIDTH 1010 0
DWIDTH 20 0
BBX 20 20 0 -3
BITMAP
000000
400000
208f60
307890
200c90
200460
204400
618580
40ff00
400400
400400
480400
480400
500400
50fe00
610580
6104c0
20f840
200000
000000
ENDCHAR
STARTCHAR 04-62
ENCODING 9310
SWIDTH 1010 0
DWIDTH 20 0
BBX 20 20 0 -3
BITMAP
006000
003000
002000
007f80
3fa1c0
082200
002000
022000
0c2700
07fc00
002000
002000
002000
002000
002000
07fc00
182780
082080
07c000
000000
ENDCHAR
STARTCHAR 04-63
ENCODING 9311
SWIDTH 1010 0
DWIDTH 20 0
BBX 20 20 0 -3
BITMAP
000000
000000
082000
07f000
062000
004000
004200
004180
008180
008100
07f900
190700
220280
420240
440460
380420
000800
001000
006000
000000
ENDCHAR
STARTCHAR 04-64
ENCODING 9312
SWIDTH 1010 0
DWIDTH 20 0
BBX 20 20 0 -3
BITMAP
000000
0e0000
030000
020000
028000
63c180
3e0240
020220
0202a0
1a0260
260220
220200
220100
240100
1c0080
080080
080080
040300
03fc00
000000
ENDCHAR
STARTCHAR 04-65
ENCODING 9313
SWIDTH 1010 0
DWIDTH 20 0
BBX 20 20 0 -3
BITMAP
000000
003000
001800
001000
101000
10fc00
0b2300
0c2080
084040
144040
248020
230020
410020
428040
424040
240180
180600
003800
000000
000000
ENDCHAR
STARTCHAR 04-66
ENCODING 9314
SWIDTH 1010 0
DWIDTH 20 0
BBX 20 20 0 -3
BITMAP
018000
00c000
00c000
008000
108000
0e8000
03e000
050000
090000
090200
050100
03f100
020080
020080
020080
020080
020100
010100
008600
007800
ENDCHAR
STARTCHAR 04-67
ENCODING 9315
SWIDTH 1010 0
DWIDTH 20 0
BBX 20 20 0 -3
BITMAP
000000
000000
000000
000000
008000
007000
082000
045e00
026100
038080
050080
391100
108e00
008000
004000
004000
006000
002000
002000
000000
ENDCHAR
STARTCHAR 04-68
ENCODING 9316
SWIDTH 1010 0
DWIDTH 20 0
BBX 20 20 0 -3
BITMAP
000000
00c000
003000
003800
184000
0c0f00
0230c0
02c020
030020
4d0020
7890c0
208f00
004000
004000
002000
002000
003000
001000
001000
000000
ENDCHAR
STARTCHAR 04-69
ENCODING 9317
SWIDTH 1010 0
DWIDTH 20 0
BBX 20 20 0 -3
BITMAP
000000
000000
000000
000000
00c000
012000
012000
42f000
232c00
262200
2a2200
2a2200
322200
122200
112400
10f800
004000
004000
008000
010000
ENDCHAR
STARTCHAR 04-70
ENCODING 9318
SWIDTH 1010 0
DWIDTH 20 0
BBX 20 20 0 -3
BITMAP
000000
003800
004400
008400
40be00
21c580
330440
350440
250420
290420
290420
288840
308840
304980
103e00
101000
001000
002000
004000
018000
ENDCHAR
STARTCHAR 04-71
ENCODING 9319
SWIDTH 1010 0
DWIDTH 20 0
BBX 20 20 0 -3
BITMAP
000000
000000
000000
000000
000000
008000
004000
006000
004000
004c00
007000
004000
004000
004000
004000
0fe000
105800
104400
0f8400
000000
ENDCHAR
STARTCHAR 04-72
ENCODING 9320
SWIDTH 1010 0
DWIDTH 20 0
BBX 20 20 0 -3
BITMAP
004000
002000
003000
002000
002000
002100
002f80
003800
002000
002000
002000
002000
002000
002000
0ff000
182e00
102180
106080
0f8000
000000
ENDCHAR
STARTCHAR 04-73
ENCODING 9321
SWIDTH 1010 0
DWIDTH 20 0
BBX 20 20 0 -3
BITMAP
008000
006000
001800
000c00
007c00
018000
020000
020000
020000
040000
043e00
04c180
050080
060040
020040
000080
000080
000700
007800
000000
ENDCHAR
STARTCHAR 04-74
ENCODING 9322
SWIDTH 1010 0
DWIDTH 20 0
BBX 20 20 0 -3
BITMAP
080000
043800
064400
048200
050200
050100
050100
0a0100
0a0100
0a0100
0e0100
040200
040200
040200
000400
000400
000800
001000
002000
00c000
ENDCHAR
STARTCHAR 04-75
ENCODING 9323
SWIDTH 1010 0
DWIDTH 20 0
BBX 20 20 0 -3
BITMAP
000000
000400
043e00
03c400
010800
001000
002000
004000
008000
017c00
038300
060080
0c0040
180040
180040
00f040
010880
018b00
00fc00
000000
ENDCHAR
STARTCHAR 04-76
ENCODING 9324
SWIDTH 1010 0
DWIDTH 20 0
BBX 20 20 0 -3
BITMAP
060000
030000
020000
020000
020000
038e00
6eb100
334100
028100
030100
020200
060200
0a0400
120400
220400
620410
420220
0a01c0
060000
040000
ENDCHAR
STARTCHAR 04-77
ENCODING 9325
SWIDTH 1010 0
DWIDTH 20 0
BBX 20 20 0 -3
BITMAP
000000
000400
043e00
03c400
010800
001000
002000
004000
008000
017c00
038300
060080
0c0040
180040
100040
000080
000100
000600
007800
000000
ENDCHAR
STARTCHAR 04-78
ENCODING 9326
SWIDTH 1010 0
DWIDTH 20 0
BBX 20 20 0 -3
BITMAP
000000
000000
000000
000000
060000
030000
020000
030000
363c00
1ac200
030100
020100
060100
0a0100
120100
320200
2a0c00
063000
040000
000000
ENDCHAR
STARTCHAR 04-79
ENCODING 9327
SWIDTH 1010 0
DWIDTH 20 0
BBX 20 20 0 -3
BITMAP
060000
030000
030000
020000
020000
038000
6e9e00
336180
028040
030040
020020
060020
0a0020
120040
220040
620080
420300
0a1c00
060000
040000
ENDCHAR
STARTCHAR 04-80
ENCODING 9328
SWIDTH 1010 0
DWIDTH 20 0
BBX 20 20 0 -3
BITMAP
000000
000800
043c00
03c800
010800
001000
001000
002000
00fe00
034180
044040
088040
108020
210020
220020
221c40
242240
182180
001e00
000000
ENDCHAR
STARTCHAR 04-81
ENCODING 9329
SWIDTH 1010 0
DWIDTH 20 0
BBX 20 20 0 -3
BITMAP
000000
000800
03fc00
011000
002000
004000
00f800
030600
0c0100
08c100
012200
012c00
00f000
008000
030000
040780
0b1840
30a060
204180
000200
ENDCHAR
STARTCHAR 04-82
ENCODING 9330
SWIDTH 1010 0
DWIDTH 20 0
BBX 20 20 0 -3
BITMAP
008000
006000
004000
004000
109c00
1fe000
088080
0100c0
03c180
062600
0c1800
187000
109000
011000
021000
040000
040000
020000
01fe00
000000
ENDCHAR
STARTCHAR 04-83
ENCODING 9331
SWIDTH 1010 0
DWIDTH 20 0
BBX 20 20 0 -3
BITMAP
000000
00c000
006000
004000
008000
008000
010000
010000
020000
020000
058000
064020
0c2020
082020
102040
102040
201080
601100
400e00
000000
ENDCHAR
STARTCHAR 05-01
ENCODING 9505
SWIDTH 1010 0
DWIDTH 20 0
BBX 20 20 0 -3
BITMAP
000000
000000
000000
000000
000000
000000
000600
1fff00
0c0400
008800
005000
004000
004000
004000
008000
008000
010000
020000
040000
000000
ENDCHAR
STARTCHAR 05-02
ENCODING 9506
SWIDTH 1010 0
DWIDTH 20 0
BBX 20 20 0 -3
BITMAP
000000
000000
000180
203fe0
1fc0c0
0c0100
004200
003400
003000
002000
006000
004000
004000
008000
008000
010000
010000
020000
040000
000000
ENDCHAR
STARTCHAR 05-03
ENCODING 9507
SWIDTH 1010 0
DWIDTH 20 0
BBX 20 20 0 -3
BITMAP
000000
000000
000000
000000
000000
000800
000c00
001800
003000
006000
00c000
016000
023000
0c2000
302000
002000
002000
002000
002000
000000
ENDCHAR
STARTCHAR 05-04
ENCODING 9508
SWIDTH 1010 0
DWIDTH 20 0
BBX 20 20 0 -3
BITMAP
000200
000100
000180
000300
000600
000c00
001800
003000
004800
018c00
020800
0c0800
300800
000800
000800
000800
000800
000800
000800
000000
ENDCHAR
STARTCHAR 05-05
ENCODING 9509
SWIDTH 1010 0
DWIDTH 20 0
BBX 20 20 0 -3
BITMAP
000000
000000
000000
000000
00c000
006000
004000
004200
18ff00
0f0200
080200
080200
080400
000400
000800
001000
002000
00c000
030000
000000
ENDCHAR
STARTCHAR 05-06
ENCODING 9510
SWIDTH 1010 0
DWIDTH 20 0
BBX 20 20 0 -3
BITMAP
000000
006000
003000
002000
102040
087fe0
0f8040
080040
0800c0
080080
080180
000100
000200
000200
000400
000800
001000
006000
018000
000000
ENDCHAR
STARTCHAR 05-07
ENCODING 9511
SWIDTH 1010 0
DWIDTH 20 0
BBX 20 20 0 -3
BITMAP
000000
000000
000000
000000
000000
000000
000000
000400
0ffe00
044000
006000
004000
004000
004000
004000
01ff00
3e0180
100000
000000
000000
ENDCHAR
STARTCHAR 05-08
ENCODING 9512
SWIDTH 1010 0
DWIDTH 20 0
BBX 20 20 0 -3
BITMAP
000000
000000
000000
000000
000600
1fff00
084000
006000
006000
004000
004000
004000
004000
004000
00ffc0
7f0060
100000
000000
000000
000000
ENDCHAR
STARTCHAR 05-09
ENCODING 9513
SWIDTH 1010 0
DWIDTH 20 0
BBX 20 20 0 -3
BITMAP
000000
000000
000000
000000
002000
001800
001000
001000
001100
1fff80
083000
005000
009000
011000
021000
041000
189000
007000
002000
000000
ENDCHAR
STARTCHAR 05-10
ENCODING 9514
SWIDTH 1010 0
DWIDTH 20 0
BBX 20 20 0 -3
BITMAP
001000
000800
000c00
000800
000800
0008c0
7fffe0
181800
003800
006800
00c800
018800
030800
060800
080800
100800
604800
003800
001000
000000
ENDCHAR
STARTCHAR 05-11
ENCODING 9515
SWIDTH 1010 0
DWIDTH 20 0
BBX 20 20 0 -3
BITMAP
000000
00c000
006000
004000
004000
004080
007fc0
7fc080
188080
008080
018180
010100
030100
020300
040200
080600
106400
201c00
400800
000000
ENDCHAR
STARTCHAR 05-12
ENCODING 9516
SWIDTH 1010 0
DWIDTH 20 0
BBX 20 20 0 -3
BITMAP
000040
00c030
006110
0040c0
004040
004080
007fc0
7fc080
188080
008080
018180
010100
030100
020300
040200
080600
106400
201c00
400800
000000
ENDCHAR
STARTCHAR 05-13
ENCODING 9517
SWIDTH 1010 0
DWIDTH 20 0
BBX 20 20 0 -3
BITMAP
000000
018000
00c000
004000
004700
007c00
3fe000
182000
002040
0027e0
007800
039000
7c1000
301000
001800
000800
000800
000c00
000800
000000
ENDCHAR
STARTCHAR 05-14
ENCODING 9518
SWIDTH 1010 0
DWIDTH 20 0
BBX 20 20 0 -3
BITMAP
000040
018130
00c0d0
004040
004700
007c00
3fe000
182000
002040
0027e0
007800
039000
7c1000
301000
001800
000800
000800
000c00
000800
000000
ENDCHAR
STARTCHAR 05-15
ENCODING 9519
SWIDTH 1010 0
DWIDTH 20 0
BBX 20 20 0 -3
BITMAP
000000
00c000
006000
004080
00cfc0
01b080
010180
020100
040300
080200
100400
000400
000800
001000
002000
004000
008000
030000
0c0000
000000
ENDCHAR
STARTCHAR 05-16
ENCODING 9520
SWIDTH 1010 0
DWIDTH 20 0
BBX 20 20 0 -3
BITMAP
000040
018030
00c090
008060
019f20
036100
020300
040200
080600
100400
200800
000800
001000
002000
004000
008000
010000
060000
180000
000000
ENDCHAR
STARTCHAR 05-17
ENCODING 9521
SWIDTH 1010 0
DWIDTH 20 0
BBX 20 20 0 -3
BITMAP
000000
030000
018000
010000
030000
020180
063fe0
07c800
080c00
100800
201800
401000
001000
002000
002000
004000
008000
010000
060000
000000
ENDCHAR
STARTCHAR 05-18
ENCODING 9522
SWIDTH 1010 0
DWIDTH 20 0
BBX 20 20 0 -3
BITMAP
000040
030230
018190
010080
030000
020180
063fe0
07c800
080c00
100800
201800
401000
001000
002000
002000
004000
008000
010000
060000
000000
ENDCHAR
STARTCHAR 05-19
ENCODING 9523
SWIDTH 1010 0
DWIDTH 20 0
BBX 20 20 0 -3
BITMAP
000000
000000
000000
000000
000080
1fffc0
0c0080
000080
000100
000100
000100
000200
000200
000200
3fff00
180100
000000
000000
000000
000000
ENDCHAR
STARTCHAR 05-20
ENCODING 9524
SWIDTH 1010 0
DWIDTH 20 0
BBX 20 20 0 -3
BITMAP
000040
000230
000190
000080
000000
1fff80
0c0080
000080
000100
000100
000100
000200
000200
000200
3fff00
180100
000000
000000
000000
000000
ENDCHAR
STARTCHAR 05-21
ENCODING 9525
SWIDTH 1010 0
DWIDTH 20 0
BBX 20 20 0 -3
BITMAP
000000
000c00
060600
030200
010200
010240
413fe0
7fe200
210200
010600
010400
030400
010400
000800
000800
001000
002000
004000
018000
000000
ENDCHAR
STARTCHAR 05-22
ENCODING 9526
SWIDTH 1010 0
DWIDTH 20 0
BBX 20 20 0 -3
BITMAP
000040
000d30
0606d0
030240
010200
010240
413fe0
7fe200
210200
010600
010400
030400
010400
000800
000800
001000
002000
004000
018000
000000
ENDCHAR
STARTCHAR 05-23
ENCODING 9527
SWIDTH 1010 0
DWIDTH 20 0
BBX 20 20 0 -3
BITMAP
000000
000000
000000
060000
018000
00c000
004000
000020
180040
060080
030100
010200
000400
000800
001000
006000
118000
0f0000
040000
000000
ENDCHAR
STARTCHAR 05-24
ENCODING 9528
SWIDTH 1010 0
DWIDTH 20 0
BBX 20 20 0 -3
BITMAP
000000
000080
000460
060320
018100
00c000
004000
000020
180040
060080
030100
010200
000400
000800
001000
006000
118000
0f0000
040000
000000
ENDCHAR
STARTCHAR 05-25
ENCODING 9529
SWIDTH 1010 0
DWIDTH 20 0
BBX 20 20 0 -3
BITMAP
000000
000000
000000
000200
0fff00
070600
000c00
000800
001800
003000
002000
004800
008400
010200
020100
040180
0800c0
3000c0
000000
000000
ENDCHAR
STARTCHAR 05-26
ENCODING 9530
SWIDTH 1010 0
DWIDTH 20 0
BBX 20 20 0 -3
BITMAP
000040
000130
0000d0
000240
0fff00
070600
000c00
000800
001800
003000
002000
004800
008400
010200
020100
040180
0800c0
3000c0
000000
000000
ENDCHAR
STARTCHAR 05-27
ENCODING 9531
SWIDTH 1010 0
DWIDTH 20 0
BBX 20 20 0 -3
BITMAP
000000
000000
030000
018000
010000
010000
010180
011fe0
01e0c0
7f0100
310600
010800
010000
010000
010000
010000
00c180
007f00
000000
000000
ENDCHAR
STARTCHAR 05-28
ENCODING 9532
SWIDTH 1010 0
DWIDTH 20 0
BBX 20 20 0 -3
BITMAP
000040
000030
030110
0180c0
010040
010000
010180
011fe0
01e0c0
7f0100
310600
010800
010000
010000
010000
010000
00c180
007f00
000000
000000
ENDCHAR
STARTCHAR 05-29
ENCODING 9533
SWIDTH 1010 0
DWIDTH 20 0
BBX 20 20 0 -3
BITMAP
000000
000000
000200
100100
080180
040180
020100
030300
010200
010600
000400
000800
000800
001000
002000
004000
008000
010000
060000
000000
ENDCHAR
STARTCHAR 05-30
ENCODING 9534
SWIDTH 1010 0
DWIDTH 20 0
BBX 20 20 0 -3
BITMAP
000040
000130
0004d0
200240
100300
080300
040200
060600
020400
020c00
000800
001000
001000
002000
004000
008000
010000
020000
0c0000
000000
ENDCHAR
STARTCHAR 05-31
ENCODING 9535
SWIDTH 1010 0
DWIDTH 20 0
BBX 20 20 0 -3
BITMAP
000000
00c000
006000
004080
00cfc0
00b080
010080
020180
05c100
083300
101a00
000600
000400
000800
001000
002000
00c000
030000
0c0000
000000
ENDCHAR
STARTCHAR 05-32
ENCODING 9536
SWIDTH 1010 0
DWIDTH 20 0
BBX 20 20 0 -3
BITMAP
000040
018030
00c090
008060
019fa0
016100
020100
040300
0b8200
106600
203400
000c00
000800
001000
002000
004000
018000
060000
180000
000000
ENDCHAR
STARTCHAR 05-33
ENCODING 9537
SWIDTH 1010 0
DWIDTH 20 0
BBX 20 20 0 -3
BITMAP
000000
000200
001f00
00e000
073800
001000
001000
00ff80
7f20e0
302000
002000
006000
004000
004000
008000
008000
010000
020000
040000
000000
ENDCHAR
STARTCHAR 05-34
ENCODING 9538
SWIDTH 1010 0
DWIDTH 20 0
BBX 20 20 0 -3
BITMAP
000040
000430
001e90
00e060
073820
001000
001000
00ff80
7f20e0
302000
002000
006000
004000
004000
008000
008000
010000
020000
040000
000000
ENDCHAR
STARTCHAR 05-35
ENCODING 9539
SWIDTH 1010 0
DWIDTH 20 0
BBX 20 20 0 -3
BITMAP
000000
000000
000000
000000
000000
000000
010000
008400
104300
084200
040600
040400
000800
000800
001000
002000
004000
008000
030000
000000
ENDCHAR
STARTCHAR 05-36
ENCODING 9540
SWIDTH 1010 0
DWIDTH 20 0
BBX 20 20 0 -3
BITMAP
000000
000000
008100
004080
1040c0
082080
042080
042180
040100
000300
000200
000400
000400
000800
001000
002000
004000
018000
060000
000000
ENDCHAR
STARTCHAR 05-37
ENCODING 9541
SWIDTH 1010 0
DWIDTH 20 0
BBX 20 20 0 -3
BITMAP
000040
000130
0100d0
008240
208100
104180
084100
084300
080200
000600
000400
000800
000800
001000
002000
004000
008000
030000
0c0000
000000
ENDCHAR
STARTCHAR 05-38
ENCODING 9542
SWIDTH 1010 0
DWIDTH 20 0
BBX 20 20 0 -3
BITMAP
000000
000000
000600
0fff00
060000
000000
000000
00ff80
7f20e0
303000
002000
006000
004000
004000
008000
008000
010000
020000
040000
000000
ENDCHAR
STARTCHAR 05-39
ENCODING 9543
SWIDTH 1010 0
DWIDTH 20 0
BBX 20 20 0 -3
BITMAP
000040
000030
000c10
1ffe80
0c0060
000020
000000
01ff00
fe41c0
606000
004000
00c000
008000
008000
010000
010000
020000
040000
080000
000000
ENDCHAR
STARTCHAR 05-40
ENCODING 9544
SWIDTH 1010 0
DWIDTH 20 0
BBX 20 20 0 -3
BITMAP
018000
00c000
00c000
008000
008000
008000
008000
008000
00e000
009c00
008700
008100
008000
008000
008000
008000
018000
018000
008000
000000
ENDCHAR
STARTCHAR 05-41
ENCODING 9545
SWIDTH 1010 0
DWIDTH 20 0
BBX 20 20 0 -3
BITMAP
018000
00c080
00c060
008220
008180
008080
008000
008000
00e000
009c00
008700
008100
008000
008000
008000
008000
018000
018000
008000
000000
ENDCHAR
STARTCHAR 05-42
ENCODING 9546
SWIDTH 1010 0
DWIDTH 20 0
BBX 20 20 0 -3
BITMAP
000000
006000
003000
002000
002000
002000
00ff80
7f20e0
302000
002000
004000
004000
004000
008000
008000
010000
010000
020000
040000
000000
ENDCHAR
STARTCHAR 05-43
ENCODING 9547
SWIDTH 1010 0
DWIDTH 20 0
BBX 20 20 0 -3
BITMAP
000000
000000
000000
000000
000000
080600
0fff00
060000
000000
000000
000000
000000
000000
000000
40ff80
3f00e0
100000
000000
000000
000000
ENDCHAR
STARTCHAR 05-44
ENCODING 9548
SWIDTH 1010 0
DWIDTH 20 0
BBX 20 20 0 -3
BITMAP
000000
000000
000100
003f80
0fc100
060200
000600
000400
00c800
003000
001800
002400
004200
008300
010180
060080
080000
300000
000000
000000
ENDCHAR
STARTCHAR 05-45
ENCODING 9549
SWIDTH 1010 0
DWIDTH 20 0
BBX 20 20 0 -3
BITMAP
00c000
003000
001000
000200
003f00
0fc600
040c00
001800
003000
006000
00dc00
012300
0221c0
0c2040
302000
002000
002000
002000
002000
000000
ENDCHAR
STARTCHAR 05-46
ENCODING 9550
SWIDTH 1010 0
DWIDTH 20 0
BBX 20 20 0 -3
BITMAP
000000
000000
000300
000180
000100
000300
000200
000600
000400
000800
000800
001000
002000
004000
008000
010000
020000
0c0000
300000
000000
ENDCHAR
STARTCHAR 05-47
ENCODING 9551
SWIDTH 1010 0
DWIDTH 20 0
BBX 20 20 0 -3
BITMAP
000000
000000
000000
000000
001000
040800
030400
020200
020100
060100
040080
0800c0
080040
100060
200020
c00020
000000
000000
000000
000000
ENDCHAR
STARTCHAR 05-48
ENCODING 9552
SWIDTH 1010 0
DWIDTH 20 0
BBX 20 20 0 -3
BITMAP
000000
000080
000460
000320
001100
040800
030400
020200
020100
060100
040080
0800c0
080040
100060
200020
c00020
000000
000000
000000
000000
ENDCHAR
STARTCHAR 05-49
ENCODING 9553
SWIDTH 1010 0
DWIDTH 20 0
BBX 20 20 0 -3
BITMAP
000000
0000c0
000120
000120
0010c0
040800
030400
020200
020100
060100
040080
0800c0
080040
100060
200020
c00020
000000
000000
000000
000000
ENDCHAR
STARTCHAR 05-50
ENCODING 9554
SWIDTH 1010 0
DWIDTH 20 0
BBX 20 20 0 -3
BITMAP
000000
180000
0c0000
0c0000
080000
080000
080200
081f00
0fe000
080000
080000
080000
080000
080000
080000
080000
060300
01fe00
000000
000000
ENDCHAR
STARTCHAR 05-51
ENCODING 9555
SWIDTH 1010 0
DWIDTH 20 0
BBX 20 20 0 -3
BITMAP
000040
180030
0c0110
0c00c0
080040
080000
080200
081f00
0fe000
080000
080000
080000
080000
080000
080000
080000
060300
01fe00
000000
000000
ENDCHAR
STARTCHAR 05-52
ENCODING 9556
SWIDTH 1010 0
DWIDTH 20 0
BBX 20 20 0 -3
BITMAP
000000
180060
0c0090
0c0090
080060
080000
080200
081f00
0fe000
080000
080000
080000
080000
080000
080000
080000
060300
01fe00
000000
000000
ENDCHAR
STARTCHAR 05-53
ENCODING 9557
SWIDTH 1010 0
DWIDTH 20 0
BBX 20 20 0 -3
BITMAP
000000
000000
000000
000040
101fe0
1fe040
0c0040
0000c0
000080
000180
000100
000300
000200
000400
000800
001000
002000
00c000
030000
000000
ENDCHAR
STARTCHAR 05-54
ENCODING 9558
SWIDTH 1010 0
DWIDTH 20 0
BBX 20 20 0 -3
BITMAP
000040
000130
0000d0
000140
203f80
3fc100
180100
000100
000300
000200
000600
000400
000800
000800
001000
002000
004000
018000
060000
000000
ENDCHAR
STARTCHAR 05-55
ENCODING 9559
SWIDTH 1010 0
DWIDTH 20 0
BBX 20 20 0 -3
BITMAP
000060
000090
000090
000160
203f80
3fc100
180100
000100
000300
000200
000600
000400
000800
000800
001000
002000
004000
018000
060000
000000
ENDCHAR
STARTCHAR 05-56
ENCODING 9560
SWIDTH 1010 0
DWIDTH 20 0
BBX 20 20 0 -3
BITMAP
000000
000000
000000
000000
010000
038000
024000
042000
081000
100800
700400
200200
000180
0000e0
000020
000000
000000
000000
000000
000000
ENDCHAR
STARTCHAR 05-57
ENCODING 9561
SWIDTH 1010 0
DWIDTH 20 0
BBX 20 20 0 -3
BITMAP
000000
000080
000060
000220
010180
038080
024000
042000
081000
100800
700400
200200
000180
0000e0
000020
000000
000000
000000
000000
000000
ENDCHAR
STARTCHAR 05-58
ENCODING 9562
SWIDTH 1010 0
DWIDTH 20 0
BBX 20 20 0 -3
BITMAP
000000
000000
000180
000240
010240
038180
024000
042000
081000
100800
700400
200200
000180
0000e0
000020
000000
000000
000000
000000
000000
ENDCHAR
STARTCHAR 05-59
ENCODING 9563
SWIDTH 1010 0
DWIDTH 20 0
BBX 20 20 0 -3
BITMAP
000000
00c000
006000
006000
004000
004000
007f00
7fc1c0
184000
004000
004400
084200
0c4100
084080
1040c0
204040
414000
00c000
008000
000000
ENDCHAR
STARTCHAR 05-60
ENCODING 9564
SWIDTH 1010 0
DWIDTH 20 0
BBX 20 20 0 -3
BITMAP
000040
00c130
0060d0
006040
004000
004000
007f00
7fc1c0
184000
004000
004400
084200
0c4100
084080
1040c0
204040
414000
00c000
008000
000000
ENDCHAR
STARTCHAR 05-61
ENCODING 9565
SWIDTH 1010 0
DWIDTH 20 0
BBX 20 20 0 -3
BITMAP
0000c0
00c120
006120
0060c0
004000
004000
007f00
7fc1c0
184000
004000
004400
084200
0c4100
084080
1040c0
204040
414000
00c000
008000
000000
ENDCHAR
STARTCHAR 05-62
ENCODING 9566
SWIDTH 1010 0
DWIDTH 20 0
BBX 20 20 0 -3
BITMAP
000000
000000
000000
000000
000040
003fe0
7fc180
180100
000200
000400
000800
033000
00c000
003000
001800
000c00
000400
000000
000000
000000
ENDCHAR
STARTCHAR 05-63
ENCODING 9567
SWIDTH 1010 0
DWIDTH 20 0
BBX 20 20 0 -3
BITMAP
000000
000000
030000
00e000
001800
000e00
000200
000000
030000
00e000
003800
000c00
000400
000000
0e0000
01c000
003000
001c00
000600
000200
ENDCHAR
STARTCHAR 05-64
ENCODING 9568
SWIDTH 1010 0
DWIDTH 20 0
BBX 20 20 0 -3
BITMAP
000000
000000
00c000
006000
004000
00c000
008000
008000
010000
010000
010800
020600
020100
040080
047fc0
7f8040
300040
000000
000000
000000
ENDCHAR
STARTCHAR 05-65
ENCODING 9569
SWIDTH 1010 0
DWIDTH 20 0
BBX 20 20 0 -3
BITMAP
000000
000000
000300
000180
000100
000300
000200
000600
018400
006c00
001800
001400
002200
004300
008100
010000
020000
0c0000
300000
000000
ENDCHAR
STARTCHAR 05-66
ENCODING 9570
SWIDTH 1010 0
DWIDTH 20 0
BBX 20 20 0 -3
BITMAP
000000
000000
000000
000600
1fff00
0c8000
00c000
008000
008180
009fe0
7fe000
308000
008000
008000
008000
008000
0040c0
003f80
000000
000000
ENDCHAR
STARTCHAR 05-67
ENCODING 9571
SWIDTH 1010 0
DWIDTH 20 0
BBX 20 20 0 -3
BITMAP
000000
000000
000000
000000
000000
030000
018000
008000
008100
009f80
03e200
3c8400
108800
004000
004000
004000
002000
002000
002000
000000
ENDCHAR
STARTCHAR 05-68
ENCODING 9572
SWIDTH 1010 0
DWIDTH 20 0
BBX 20 20 0 -3
BITMAP
000000
030000
070000
010000
010040
0087e0
00b8c0
01c100
7e8200
304400
004800
004000
002000
002000
002000
003000
001000
001000
001000
000000
ENDCHAR
STARTCHAR 05-69
ENCODING 9573
SWIDTH 1010 0
DWIDTH 20 0
BBX 20 20 0 -3
BITMAP
000000
000000
000000
000000
000000
000000
000000
000000
000800
07fc00
020800
000800
001800
001000
001000
01fe00
1e0380
080000
000000
000000
ENDCHAR
STARTCHAR 05-70
ENCODING 9574
SWIDTH 1010 0
DWIDTH 20 0
BBX 20 20 0 -3
BITMAP
000000
000000
000000
000000
000200
0fff00
060400
000400
000c00
000800
000800
001000
001000
01ff80
7e00e0
300000
000000
000000
000000
000000
ENDCHAR
STARTCHAR 05-71
ENCODING 9575
SWIDTH 1010 0
DWIDTH 20 0
BBX 20 20 0 -3
BITMAP
000000
000000
000000
000000
000000
000000
000200
0fff00
060200
000200
000400
07fc00
020400
000800
000800
000800
1ffc00
0c0400
000000
000000
ENDCHAR
STARTCHAR 05-72
ENCODING 9576
SWIDTH 1010 0
DWIDTH 20 0
BBX 20 20 0 -3
BITMAP
000000
000000
000000
000080
1fffc0
0c0080
000080
000080
000100
0fff00
060100
000100
000200
000200
000200
3fff00
180100
000000
000000
000000
ENDCHAR
STARTCHAR 05-73
ENCODING 9577
SWIDTH 1010 0
DWIDTH 20 0
BBX 20 20 0 -3
BITMAP
000000
000600
0fff00
060000
000000
000080
201fc0
3fe080
180080
000180
000100
000300
000200
000400
000800
001000
002000
00c000
030000
000000
ENDCHAR
STARTCHAR 05-74
ENCODING 9578
SWIDTH 1010 0
DWIDTH 20 0
BBX 20 20 0 -3
BITMAP
000000
000600
060300
030100
010100
010100
010100
010100
010100
010200
010200
010200
000600
000400
000800
000800
001000
002000
00c000
000000
ENDCHAR
STARTCHAR 05-75
ENCODING 9579
SWIDTH 1010 0
DWIDTH 20 0
BBX 20 20 0 -3
BITMAP
000000
000000
006000
003000
0c3000
062000
062000
042000
042000
042000
0c2020
082040
082080
102100
102200
202c00
403800
801000
000000
000000
ENDCHAR
STARTCHAR 05-76
ENCODING 9580
SWIDTH 1010 0
DWIDTH 20 0
BBX 20 20 0 -3
BITMAP
000000
000000
0c0000
060000
020000
020000
020000
020000
020000
040040
040080
040100
040200
040400
041800
043000
04c000
0f8000
060000
000000
ENDCHAR
STARTCHAR 05-77
ENCODING 9581
SWIDTH 1010 0
DWIDTH 20 0
BBX 20 20 0 -3
BITMAP
000000
000000
000000
000000
200080
103fc0
1fe080
100080
100080
100080
080180
080100
080100
080100
080100
0fff00
080100
000000
000000
000000
ENDCHAR
STARTCHAR 05-78
ENCODING 9582
SWIDTH 1010 0
DWIDTH 20 0
BBX 20 20 0 -3
BITMAP
000000
000000
000000
000000
000000
000000
080200
043f00
07c200
040200
040600
040400
000400
000800
000800
001000
002000
004000
018000
000000
ENDCHAR
STARTCHAR 05-79
ENCODING 9583
SWIDTH 1010 0
DWIDTH 20 0
BBX 20 20 0 -3
BITMAP
000000
000000
100080
083fc0
0fc080
080080
080080
080180
080100
080300
000200
000200
000400
000400
000800
001000
002000
00c000
030000
000000
ENDCHAR
STARTCHAR 05-80
ENCODING 9584
SWIDTH 1010 0
DWIDTH 20 0
BBX 20 20 0 -3
BITMAP
000000
003000
001800
001000
001000
003f00
1fd180
041000
021000
031000
021000
027fc0
7f9060
301000
001000
001000
003000
003000
001000
000000
ENDCHAR
STARTCHAR 05-81
ENCODING 9585
SWIDTH 1010 0
DWIDTH 20 0
BBX 20 20 0 -3
BITMAP
000000
000000
000000
000000
001f00
1fe380
0c0600
00c800
005000
006000
004000
004000
004000
004000
00ff80
7f00e0
300000
000000
000000
000000
ENDCHAR
STARTCHAR 05-82
ENCODING 9586
SWIDTH 1010 0
DWIDTH 20 0
BBX 20 20 0 -3
BITMAP
000000
000000
000080
001fc0
0fe080
030080
000100
000100
003f80
0fc200
030200
000400
000400
000800
001000
002000
004000
018000
060000
000000
ENDCHAR
STARTCHAR 05-83
ENCODING 9587
SWIDTH 1010 0
DWIDTH 20 0
BBX 20 20 0 -3
BITMAP
000000
000000
000000
180000
060000
030000
010040
000080
000100
000200
000400
000800
001000
002000
00c000
230000
1e0000
080000
000000
000000
ENDCHAR
STARTCHAR 05-84
ENCODING 9588
SWIDTH 1010 0
DWIDTH 20 0
BBX 20 20 0 -3
BITMAP
000040
00c130
0060d0
004040
204100
10ff80
1f0100
100100
100100
100300
100200
000200
000400
000400
000800
001000
002000
00c000
030000
000000
ENDCHAR
STARTCHAR 05-85
ENCODING 9589
SWIDTH 1010 0
DWIDTH 20 0
BBX 20 20 0 -3
BITMAP
000000
000000
000000
000000
000000
006000
003000
002000
002100
003f80
0fe100
044100
004100
008100
008200
010200
022200
041c00
080800
000000
ENDCHAR
STARTCHAR 05-86
ENCODING 9590
SWIDTH 1010 0
DWIDTH 20 0
BBX 20 20 0 -3
BITMAP
000000
000000
000000
000000
000000
010000
018000
010000
030200
023f00
07e000
083000
102000
202000
004000
004000
008000
010000
060000
000000
ENDCHAR
STARTCHAR 06-01
ENCODING 9761
SWIDTH 1010 0
DWIDTH 20 0
BBX 20 20 0 -3
BITMAP
000000
000000
004000
004000
00e000
00a000
00a000
013000
011000
011800
020800
020800
07fc00
040400
040600
080200
080200
3e0f80
000000
000000
ENDCHAR
STARTCHAR 06-02
ENCODING 9762
SWIDTH 1010 0
DWIDTH 20 0
BBX 20 20 0 -3
BITMAP
000000
000000
0ff800
020400
020200
020200
020200
020400
020800
03f800
020400
020200
020100
020100
020100
020100
020200
0ffc00
000000
000000
ENDCHAR
STARTCHAR 06-03
ENCODING 9763
SWIDTH 1010 0
DWIDTH 20 0
BBX 20 20 0 -3
BITMAP
000000
000000
07ff80
010080
010080
010080
010000
010000
010000
010000
010000
010000
010000
010000
010000
010000
010000
07c000
000000
000000
ENDCHAR
STARTCHAR 06-04
ENCODING 9764
SWIDTH 1010 0
DWIDTH 20 0
BBX 20 20 0 -3
BITMAP
000000
000000
004000
004000
00e000
00a000
013000
011000
011800
020800
020c00
040400
040600
080200
080300
100100
100180
3fff80
000000
000000
ENDCHAR
STARTCHAR 06-05
ENCODING 9765
SWIDTH 1010 0
DWIDTH 20 0
BBX 20 20 0 -3
BITMAP
000000
000000
0fff00
020100
020100
020100
021000
021000
021000
03f000
021000
021000
021000
020000
020100
020100
020100
0fff00
000000
000000
ENDCHAR
STARTCHAR 06-06
ENCODING 9766
SWIDTH 1010 0
DWIDTH 20 0
BBX 20 20 0 -3
BITMAP
000000
000000
0fff00
080600
080c00
080800
001800
003000
002000
006000
00c000
008000
018000
030000
020100
060100
0c0100
1fff00
000000
000000
ENDCHAR
STARTCHAR 06-07
ENCODING 9767
SWIDTH 1010 0
DWIDTH 20 0
BBX 20 20 0 -3
BITMAP
000000
000000
1f0f80
040200
040200
040200
040200
040200
040200
07fe00
040200
040200
040200
040200
040200
040200
040200
1f0f80
000000
000000
ENDCHAR
STARTCHAR 06-08
ENCODING 9768
SWIDTH 1010 0
DWIDTH 20 0
BBX 20 20 0 -3
BITMAP
000000
000000
00f000
030c00
040200
080100
080100
110880
110880
11f880
110880
110880
110880
080100
080100
040200
030c00
00f000
000000
000000
ENDCHAR
STARTCHAR 06-09
ENCODING 9769
SWIDTH 1010 0
DWIDTH 20 0
BBX 20 20 0 -3
BITMAP
000000
000000
01fc00
002000
002000
002000
002000
002000
002000
002000
002000
002000
002000
002000
002000
002000
002000
01fc00
000000
000000
ENDCHAR
STARTCHAR 06-10
ENCODING 9770
SWIDTH 1010 0
DWIDTH 20 0
BBX 20 20 0 -3
BITMAP
000000
000000
0f9f80
020200
020400
020800
021000
022000
024000
038000
02c000
026000
023000
021800
020c00
020600
020300
0f8fc0
000000
000000
ENDCHAR
STARTCHAR 06-11
ENCODING 9771
SWIDTH 1010 0
DWIDTH 20 0
BBX 20 20 0 -3
BITMAP
000000
000000
004000
004000
00e000
00a000
00b000
011000
011000
011800
020800
020c00
060400
040400
040600
080200
080200
3e0f80
000000
000000
ENDCHAR
STARTCHAR 06-12
ENCODING 9772
SWIDTH 1010 0
DWIDTH 20 0
BBX 20 20 0 -3
BITMAP
000000
000000
7001e0
100180
180280
180280
1c0480
140480
160880
120880
131080
111080
11a080
10a080
10c080
104080
104080
7c03e0
000000
000000
ENDCHAR
STARTCHAR 06-13
ENCODING 9773
SWIDTH 1010 0
DWIDTH 20 0
BBX 20 20 0 -3
BITMAP
000000
000000
1c0f80
0e0200
0a0200
0b0200
098200
088200
08c200
086200
082200
083200
081a00
080a00
080e00
080600
080200
3e0200
000000
000000
ENDCHAR
STARTCHAR 06-14
ENCODING 9774
SWIDTH 1010 0
DWIDTH 20 0
BBX 20 20 0 -3
BITMAP
000000
000000
0fff80
080080
080080
080080
000000
010400
010400
01fc00
010400
010400
000000
080080
080080
080080
080080
0fff80
000000
000000
ENDCHAR
STARTCHAR 06-15
ENCODING 9775
SWIDTH 1010 0
DWIDTH 20 0
BBX 20 20 0 -3
BITMAP
000000
000000
00f000
030c00
040200
080100
080100
180080
100080
100080
100080
100080
100180
080100
080100
040200
030c00
00f000
000000
000000
ENDCHAR
STARTCHAR 06-16
ENCODING 9776
SWIDTH 1010 0
DWIDTH 20 0
BBX 20 20 0 -3
BITMAP
000000
000000
0fff80
020200
020200
020200
020200
020200
020200
020200
020200
020200
020200
020200
020200
020200
020200
0f8f80
000000
000000
ENDCHAR
STARTCHAR 06-17
ENCODING 9777
SWIDTH 1010 0
DWIDTH 20 0
BBX 20 20 0 -3
BITMAP
000000
000000
07fe00
010100
010080
010080
010080
010080
010100
01fe00
010000
010000
010000
010000
010000
010000
010000
07c000
000000
000000
ENDCHAR
STARTCHAR 06-18
ENCODING 9778
SWIDTH 1010 0
DWIDTH 20 0
BBX 20 20 0 -3
BITMAP
000000
000000
1fff00
0c0100
060100
030100
018000
00c000
006000
003000
004000
008000
010000
020100
040100
080100
100100
1fff00
000000
000000
ENDCHAR
STARTCHAR 06-19
ENCODING 9779
SWIDTH 1010 0
DWIDTH 20 0
BBX 20 20 0 -3
BITMAP
000000
000000
1fffc0
102040
102040
102040
002000
002000
002000
002000
002000
002000
002000
002000
002000
002000
002000
00f800
000000
000000
ENDCHAR
STARTCHAR 06-20
ENCODING 9780
SWIDTH 1010 0
DWIDTH 20 0
BBX 20 20 0 -3
BITMAP
000000
000000
038e00
0c5180
102040
102040
202020
202020
002000
002000
002000
002000
002000
002000
002000
002000
002000
01fc00
000000
000000
ENDCHAR
STARTCHAR 06-21
ENCODING 9781
SWIDTH 1010 0
DWIDTH 20 0
BBX 20 20 0 -3
BITMAP
000000
000000
00f800
002000
002000
01fc00
062300
082080
102040
102040
102040
102040
082080
062300
01fc00
002000
002000
00f800
000000
000000
ENDCHAR
STARTCHAR 06-22
ENCODING 9782
SWIDTH 1010 0
DWIDTH 20 0
BBX 20 20 0 -3
BITMAP
000000
000000
1f0f80
040200
060200
030400
010800
019000
00d000
006000
007000
009000
011800
010c00
020400
040600
040300
1f0fc0
000000
000000
ENDCHAR
STARTCHAR 06-23
ENCODING 9783
SWIDTH 1010 0
DWIDTH 20 0
BBX 20 20 0 -3
BITMAP
000000
000000
00f800
1c21c0
222220
022200
022200
022200
022200
022200
012400
012400
00f800
002000
002000
002000
002000
00f800
000000
000000
ENDCHAR
STARTCHAR 06-24
ENCODING 9784
SWIDTH 1010 0
DWIDTH 20 0
BBX 20 20 0 -3
BITMAP
000000
000000
01f800
060600
080100
080100
100080
100080
100080
080100
080100
040200
020400
110880
109080
109080
109080
1f9f80
000000
000000
ENDCHAR
STARTCHAR 06-33
ENCODING 9793
SWIDTH 1010 0
DWIDTH 20 0
BBX 20 20 0 -3
BITMAP
000000
000000
000000
000000
000000
000000
000000
00e300
011200
021200
041400
041400
081800
081000
082900
044a00
038400
000000
000000
000000
ENDCHAR
STARTCHAR 06-34
ENCODING 9794
SWIDTH 1010 0
DWIDTH 20 0
BBX 20 20 0 -3
BITMAP
000000
001e00
002100
004100
004100
008100
008200
013400
010800
020400
020200
040200
040200
040200
080400
090400
18f800
100000
100000
100000
ENDCHAR
STARTCHAR 06-35
ENCODING 9795
SWIDTH 1010 0
DWIDTH 20 0
BBX 20 20 0 -3
BITMAP
000000
000000
000000
000000
000000
000000
000000
000000
078300
084600
104400
004800
005000
006000
004000
008000
008000
018000
010000
010000
ENDCHAR
STARTCHAR 06-36
ENCODING 9796
SWIDTH 1010 0
DWIDTH 20 0
BBX 20 20 0 -3
BITMAP
000000
00f000
010c00
010200
008300
004100
002000
007000
018800
020800
040400
080400
080400
080800
080800
043000
03c000
000000
000000
000000
ENDCHAR
STARTCHAR 06-37
ENCODING 9797
SWIDTH 1010 0
DWIDTH 20 0
BBX 20 20 0 -3
BITMAP
000000
000000
000000
000000
000000
000000
000000
00fc00
010200
020000
010000
00f800
030000
040000
040000
030600
00f800
000000
000000
000000
ENDCHAR
STARTCHAR 06-38
ENCODING 9798
SWIDTH 1010 0
DWIDTH 20 0
BBX 20 20 0 -3
BITMAP
000000
010000
020200
040600
040800
03f000
002000
004000
008000
010000
020000
040000
040000
030000
00c000
003000
000800
000800
000800
007000
ENDCHAR
STARTCHAR 06-39
ENCODING 9799
SWIDTH 1010 0
DWIDTH 20 0
BBX 20 20 0 -3
BITMAP
000000
000000
000000
000000
000000
000000
000000
071c00
08a200
00c100
018100
010200
020200
020400
040400
040800
0c0800
001000
001000
003000
ENDCHAR
STARTCHAR 06-40
ENCODING 9800
SWIDTH 1010 0
DWIDTH 20 0
BBX 20 20 0 -3
BITMAP
000000
001c00
006200
008100
008100
010100
020100
020100
03ff00
040200
040200
040200
040400
040800
040800
023000
01c000
000000
000000
000000
ENDCHAR
STARTCHAR 06-41
ENCODING 9801
SWIDTH 1010 0
DWIDTH 20 0
BBX 20 20 0 -3
BITMAP
000000
000000
000000
000000
000000
000000
000000
008000
008000
010000
010000
020000
020200
040400
040800
023000
01c000
000000
000000
000000
ENDCHAR
STARTCHAR 06-42
ENCODING 9802
SWIDTH 1010 0
DWIDTH 20 0
BBX 20 20 0 -3
BITMAP
000000
000000
000000
000000
000000
000000
000000
010c00
011200
022200
024000
03c000
044000
044000
044200
082400
081800
000000
000000
000000
ENDCHAR
STARTCHAR 06-43
ENCODING 9803
SWIDTH 1010 0
DWIDTH 20 0
BBX 20 20 0 -3
BITMAP
000000
006000
001000
001000
001000
001000
001000
003000
005800
004800
008800
010800
010400
020400
020600
040200
0c0300
000000
000000
000000
ENDCHAR
STARTCHAR 06-44
ENCODING 9804
SWIDTH 1010 0
DWIDTH 20 0
BBX 20 20 0 -3
BITMAP
000000
000000
000000
000000
000000
000000
000000
030400
020400
020400
020800
040800
040800
041000
0c1080
0a2900
09c600
080000
100000
100000
ENDCHAR
STARTCHAR 06-45
ENCODING 9805
SWIDTH 1010 0
DWIDTH 20 0
BBX 20 20 0 -3
BITMAP
000000
000000
000000
000000
000000
000000
000000
060100
020100
010200
010200
020400
020800
041000
046000
0d8000
060000
000000
000000
000000
ENDCHAR
STARTCHAR 06-46
ENCODING 9806
SWIDTH 1010 0
DWIDTH 20 0
BBX 20 20 0 -3
BITMAP
000000
001e00
002000
004000
002000
00fe00
010000
020000
010000
00fe00
070000
080000
080000
040000
03c000
003800
000400
000400
001800
03e000
ENDCHAR
STARTCHAR 06-47
ENCODING 9807
SWIDTH 1010 0
DWIDTH 20 0
BBX 20 20 0 -3
BITMAP
000000
000000
000000
000000
000000
000000
000000
007800
018400
020200
020200
040200
040200
040400
040400
021800
01e000
000000
000000
000000
ENDCHAR
STARTCHAR 06-48
ENCODING 9808
SWIDTH 1010 0
DWIDTH 20 0
BBX 20 20 0 -3
BITMAP
000000
000000
000000
000000
000000
000000
000100
07fe00
088800
010800
011000
021000
022000
022000
042100
042200
0c1c00
000000
000000
000000
ENDCHAR
STARTCHAR 06-49
ENCODING 9809
SWIDTH 1010 0
DWIDTH 20 0
BBX 20 20 0 -3
BITMAP
000000
000000
000000
000000
000000
000000
000000
003c00
004200
008100
010100
010100
020100
020200
020200
068c00
047000
040000
040000
0c0000
ENDCHAR
STARTCHAR 06-50
ENCODING 9810
SWIDTH 1010 0
DWIDTH 20 0
BBX 20 20 0 -3
BITMAP
000000
000000
000000
000000
000000
000100
000180
007f00
018800
020400
020200
040200
040400
040400
040800
021000
01e000
000000
000000
000000
ENDCHAR
STARTCHAR 06-51
ENCODING 9811
SWIDTH 1010 0
DWIDTH 20 0
BBX 20 20 0 -3
BITMAP
000000
000000
000000
000000
000000
000000
000100
07fe00
084000
008000
008000
010000
010000
020400
020800
013000
00c000
000000
000000
000000
ENDCHAR
STARTCHAR 06-52
ENCODING 9812
SWIDTH 1010 0
DWIDTH 20 0
BBX 20 20 0 -3
BITMAP
000000
000000
000000
000000
000000
000000
000000
060400
010200
010200
020200
040200
040400
040400
040800
023000
01c000
000000
000000
000000
ENDCHAR
STARTCHAR 06-53
ENCODING 9813
SWIDTH 1010 0
DWIDTH 20 0
BBX 20 20 0 -3
BITMAP
000000
000c00
000800
000800
001000
001000
001000
01fc00
062200
042100
082100
084100
084200
044600
03f800
008000
008000
010000
010000
030000
ENDCHAR
STARTCHAR 06-54
ENCODING 9814
SWIDTH 1010 0
DWIDTH 20 0
BBX 20 20 0 -3
BITMAP
000000
000000
000000
000000
000000
000000
000000
038300
044600
004400
004800
005000
006000
004000
00c000
014000
024000
044000
082200
101c00
ENDCHAR
STARTCHAR 06-55
ENCODING 9815
SWIDTH 1010 0
DWIDTH 20 0
BBX 20 20 0 -3
BITMAP
000000
000600
000400
000400
000800
000800
000800
061100
091100
011100
012100
022200
042200
044400
024800
01f000
008000
008000
008000
018000
ENDCHAR
STARTCHAR 06-56
ENCODING 9816
SWIDTH 1010 0
DWIDTH 20 0
BBX 20 20 0 -3
BITMAP
000000
000000
000000
000000
000000
000000
000000
030100
042080
082080
082040
104040
104080
104080
10c100
092200
061c00
000000
000000
000000
ENDCHAR
STARTCHAR 07-01
ENCODING 10017
SWIDTH 1010 0
DWIDTH 20 0
BBX 20 20 0 -3
BITMAP
000000
000000
004000
004000
00e000
00a000
00a000
013000
011000
011800
020800
020800
07fc00
040400
040600
080200
080200
3e0f80
000000
000000
ENDCHAR
STARTCHAR 07-02
ENCODING 10018
SWIDTH 1010 0
DWIDTH 20 0
BBX 20 20 0 -3
BITMAP
000000
000000
0ffe00
020200
020200
020200
020000
020000
020000
03fc00
020200
020100
020100
020100
020100
020100
020200
0ffc00
000000
000000
ENDCHAR
STARTCHAR 07-03
ENCODING 10019
SWIDTH 1010 0
DWIDTH 20 0
BBX 20 20 0 -3
BITMAP
000000
000000
0ff800
020400
020200
020200
020200
020400
020800
03f800
020400
020200
020100
020100
020100
020100
020200
0ffc00
000000
000000
ENDCHAR
STARTCHAR 07-04
ENCODING 10020
SWIDTH 1010 0
DWIDTH 20 0
BBX 20 20 0 -3
BITMAP
000000
000000
07ff00
010100
010080
010080
010000
010000
010000
010000
010000
010000
010000
010000
010000
010000
010000
07c000
000000
000000
ENDCHAR
STARTCHAR 07-05
ENCODING 10021
SWIDTH 1010 0
DWIDTH 20 0
BBX 20 20 0 -3
BITMAP
000000
000000
03ff80
008200
008200
008200
008200
008200
010200
010200
010200
020200
020200
020200
040200
040200
080200
3fff80
200080
200080
ENDCHAR
STARTCHAR 07-06
ENCODING 10022
SWIDTH 1010 0
DWIDTH 20 0
BBX 20 20 0 -3
BITMAP
000000
000000
0fff00
020100
020080
020080
021000
021000
021000
03f000
021000
021000
021000
020080
020080
020080
020100
0fff00
000000
000000
ENDCHAR
STARTCHAR 07-07
ENCODING 10023
SWIDTH 1010 0
DWIDTH 20 0
BBX 20 20 0 -3
BITMAP
030c00
030c00
000000
0fff00
020100
020080
020080
021000
021000
021000
03d000
023000
021000
021000
020080
020080
020100
0fff00
000000
000000
ENDCHAR
STARTCHAR 07-08
ENCODING 10024
SWIDTH 1010 0
DWIDTH 20 0
BBX 20 20 0 -3
BITMAP
000000
000000
18f8c0
242120
342160
022200
022200
022200
012400
00f800
00a800
012400
012400
022200
022200
042100
082080
3e73e0
000000
000000
ENDCHAR
STARTCHAR 07-09
ENCODING 10025
SWIDTH 1010 0
DWIDTH 20 0
BBX 20 20 0 -3
BITMAP
000000
000000
03f800
040400
080200
080300
000300
000200
000400
00f800
000400
000200
000300
000100
080300
080200
040400
03f800
000000
000000
ENDCHAR
STARTCHAR 07-10
ENCODING 10026
SWIDTH 1010 0
DWIDTH 20 0
BBX 20 20 0 -3
BITMAP
000000
000000
1e07c0
040300
040500
040900
040900
041100
042100
042100
044100
044100
048100
050100
050100
060100
040100
1f07c0
000000
000000
ENDCHAR
STARTCHAR 07-11
ENCODING 10027
SWIDTH 1010 0
DWIDTH 20 0
BBX 20 20 0 -3
BITMAP
019800
010800
00f000
1e07c0
040100
040300
040500
040900
041100
041100
042100
044100
044100
048100
050100
060100
040100
1f07c0
000000
000000
ENDCHAR
STARTCHAR 07-12
ENCODING 10028
SWIDTH 1010 0
DWIDTH 20 0
BBX 20 20 0 -3
BITMAP
000000
000000
0f8300
020480
020980
021000
021000
022000
024000
038000
024000
022000
021000
020800
020400
020200
020300
0f87c0
000000
000000
ENDCHAR
STARTCHAR 07-13
ENCODING 10029
SWIDTH 1010 0
DWIDTH 20 0
BBX 20 20 0 -3
BITMAP
000000
000000
03ff80
008200
008200
008200
008200
008200
008200
008200
010200
010200
010200
010200
020200
320200
240200
180f80
000000
000000
ENDCHAR
STARTCHAR 07-14
ENCODING 10030
SWIDTH 1010 0
DWIDTH 20 0
BBX 20 20 0 -3
BITMAP
000000
000000
3c01e0
0c0180
0e0180
0a0280
0a0280
0b0480
090480
098880
0888c0
10d040
105040
106040
102040
102040
100040
7c01f0
000000
000000
ENDCHAR
STARTCHAR 07-15
ENCODING 10031
SWIDTH 1010 0
DWIDTH 20 0
BBX 20 20 0 -3
BITMAP
000000
000000
1f07c0
040100
040100
040100
040100
040100
040100
07ff00
040100
040100
040100
040100
040100
040100
040100
1f07c0
000000
000000
ENDCHAR
STARTCHAR 07-16
ENCODING 10032
SWIDTH 1010 0
DWIDTH 20 0
BBX 20 20 0 -3
BITMAP
000000
000000
00f000
030c00
040200
080100
080100
180080
100080
100080
100080
100080
100180
080100
080100
040200
030c00
00f000
000000
000000
ENDCHAR
STARTCHAR 07-17
ENCODING 10033
SWIDTH 1010 0
DWIDTH 20 0
BBX 20 20 0 -3
BITMAP
000000
000000
1fff80
040200
040200
040200
040200
040200
040200
040200
040200
040200
040200
040200
040200
040200
040200
1f0f80
000000
000000
ENDCHAR
STARTCHAR 07-18
ENCODING 10034
SWIDTH 1010 0
DWIDTH 20 0
BBX 20 20 0 -3
BITMAP
000000
000000
0ffc00
020200
020100
020100
020100
020100
020200
03fc00
020000
020000
020000
020000
020000
020000
020000
0f8000
000000
000000
ENDCHAR
STARTCHAR 07-19
ENCODING 10035
SWIDTH 1010 0
DWIDTH 20 0
BBX 20 20 0 -3
BITMAP
000000
000000
01fc00
020300
040100
080100
080080
100000
100000
100000
100000
100000
100000
080000
080080
040100
020600
01f800
000000
000000
ENDCHAR
STARTCHAR 07-20
ENCODING 10036
SWIDTH 1010 0
DWIDTH 20 0
BBX 20 20 0 -3
BITMAP
000000
000000
1fffc0
102040
102040
102040
002000
002000
002000
002000
002000
002000
002000
002000
002000
002000
002000
00f800
000000
000000
ENDCHAR
STARTCHAR 07-21
ENCODING 10037
SWIDTH 1010 0
DWIDTH 20 0
BBX 20 20 0 -3
BITMAP
000000
000000
1f87c0
040100
060100
020200
030200
010400
018400
008800
00c800
005000
003000
002000
182000
184000
108000
0f0000
000000
000000
ENDCHAR
STARTCHAR 07-22
ENCODING 10038
SWIDTH 1010 0
DWIDTH 20 0
BBX 20 20 0 -3
BITMAP
000000
000000
00f800
002000
002000
01fc00
062300
082080
102040
102040
102040
102040
082080
062300
01fc00
002000
002000
00f800
000000
000000
ENDCHAR
STARTCHAR 07-23
ENCODING 10039
SWIDTH 1010 0
DWIDTH 20 0
BBX 20 20 0 -3
BITMAP
000000
000000
0f87c0
020100
030200
010400
018400
00c800
005000
006000
003000
005800
008800
008c00
010600
020200
020300
0f87c0
000000
000000
ENDCHAR
STARTCHAR 07-24
ENCODING 10040
SWIDTH 1010 0
DWIDTH 20 0
BBX 20 20 0 -3
BITMAP
000000
000000
1f0f80
040200
040200
040200
040200
040200
040200
040200
040200
040200
040200
040200
040200
040200
040200
1fff80
000080
000080
ENDCHAR
STARTCHAR 07-25
ENCODING 10041
SWIDTH 1010 0
DWIDTH 20 0
BBX 20 20 0 -3
BITMAP
000000
000000
0f87c0
020100
020100
020100
020100
020100
020100
020100
020700
010900
00f100
000100
000100
000100
000100
0007c0
000000
000000
ENDCHAR
STARTCHAR 07-26
ENCODING 10042
SWIDTH 1010 0
DWIDTH 20 0
BBX 20 20 0 -3
BITMAP
000000
000000
7cf9f0
102040
102040
102040
102040
102040
102040
102040
102040
102040
102040
102040
102040
102040
102040
7ffff0
000000
000000
ENDCHAR
STARTCHAR 07-27
ENCODING 10043
SWIDTH 1010 0
DWIDTH 20 0
BBX 20 20 0 -3
BITMAP
000000
000000
7cf9f0
102040
102040
102040
102040
102040
102040
102040
102040
102040
102040
102040
102040
102040
102040
7ffff0
000010
000010
ENDCHAR
STARTCHAR 07-28
ENCODING 10044
SWIDTH 1010 0
DWIDTH 20 0
BBX 20 20 0 -3
BITMAP
000000
000000
3fc000
210000
210000
210000
010000
010000
010000
01fe00
010100
010080
010080
010080
010080
010080
010100
07fe00
000000
000000
ENDCHAR
STARTCHAR 07-29
ENCODING 10045
SWIDTH 1010 0
DWIDTH 20 0
BBX 20 20 0 -3
BITMAP
000000
000000
3e03e0
080080
080080
080080
080080
080080
080080
0fe080
081080
080880
080880
080880
080880
081080
081080
3fe3e0
000000
000000
ENDCHAR
STARTCHAR 07-30
ENCODING 10046
SWIDTH 1010 0
DWIDTH 20 0
BBX 20 20 0 -3
BITMAP
000000
000000
0f8000
020000
020000
020000
020000
020000
020000
03fc00
020200
020100
020100
020100
020100
020100
020600
0ff800
000000
000000
ENDCHAR
STARTCHAR 07-31
ENCODING 10047
SWIDTH 1010 0
DWIDTH 20 0
BBX 20 20 0 -3
BITMAP
000000
000000
01f800
060600
080100
000100
000080
000080
01c080
022380
001c80
000080
000080
000080
000100
080100
060600
01f800
000000
000000
ENDCHAR
STARTCHAR 07-32
ENCODING 10048
SWIDTH 1010 0
DWIDTH 20 0
BBX 20 20 0 -3
BITMAP
000000
000000
3e0f00
081080
082040
082040
084020
084020
084020
0fc020
084020
084020
084020
084020
082040
082040
081080
3e0f00
000000
000000
ENDCHAR
STARTCHAR 07-33
ENCODING 10049
SWIDTH 1010 0
DWIDTH 20 0
BBX 20 20 0 -3
BITMAP
000000
000000
01ffc0
020100
040100
040100
040100
040100
020100
01ff00
004100
004100
008100
008100
010100
020100
040100
1807c0
000000
000000
ENDCHAR
STARTCHAR 07-49
ENCODING 10065
SWIDTH 1010 0
DWIDTH 20 0
BBX 20 20 0 -3
BITMAP
000000
000000
000000
000000
000000
000000
000000
00f000
030800
020400
060400
003c00
01c400
020400
040400
040400
021d00
01e600
000000
000000
ENDCHAR
STARTCHAR 07-50
ENCODING 10066
SWIDTH 1010 0
DWIDTH 20 0
BBX 20 20 0 -3
BITMAP
000000
000200
000c00
007000
018000
020000
020000
04f800
070400
040400
040200
040200
040200
040200
040200
020400
030800
00f000
000000
000000
ENDCHAR
STARTCHAR 07-51
ENCODING 10067
SWIDTH 1010 0
DWIDTH 20 0
BBX 20 20 0 -3
BITMAP
000000
000000
000000
000000
000000
000000
000000
03f800
008400
008200
008200
008400
00fc00
008200
008200
008200
008200
03fc00
000000
000000
ENDCHAR
STARTCHAR 07-52
ENCODING 10068
SWIDTH 1010 0
DWIDTH 20 0
BBX 20 20 0 -3
BITMAP
000000
000000
000000
000000
000000
000000
000000
03fe00
008200
008200
008200
008000
008000
008000
008000
008000
008000
03e000
000000
000000
ENDCHAR
STARTCHAR 07-53
ENCODING 10069
SWIDTH 1010 0
DWIDTH 20 0
BBX 20 20 0 -3
BITMAP
000000
000000
000000
000000
000000
000000
000000
03ff00
008400
008400
008400
008400
010400
010400
010400
020400
020400
0fff00
080100
080100
ENDCHAR
STARTCHAR 07-54
ENCODING 10070
SWIDTH 1010 0
DWIDTH 20 0
BBX 20 20 0 -3
BITMAP
000000
000000
000000
000000
000000
000000
000000
00f800
010400
020200
020200
03fe00
020000
020000
020000
020200
010400
00f800
000000
000000
ENDCHAR
STARTCHAR 07-55
ENCODING 10071
SWIDTH 1010 0
DWIDTH 20 0
BBX 20 20 0 -3
BITMAP
000000
000000
000000
018c00
018c00
000000
000000
00f800
010400
020200
020200
03fe00
020000
020000
020000
020200
010400
00f800
000000
000000
ENDCHAR
STARTCHAR 07-56
ENCODING 10072
SWIDTH 1010 0
DWIDTH 20 0
BBX 20 20 0 -3
BITMAP
000000
000000
000000
000000
000000
000000
000000
0cf980
122240
1924c0
012400
00a800
00f800
012400
022200
042100
082080
3efbe0
000000
000000
ENDCHAR
STARTCHAR 07-57
ENCODING 10073
SWIDTH 1010 0
DWIDTH 20 0
BBX 20 20 0 -3
BITMAP
000000
000000
000000
000000
000000
000000
000000
00f800
010400
020200
000200
000400
003800
000400
000200
020200
010400
00f800
000000
000000
ENDCHAR
STARTCHAR 07-58
ENCODING 10074
SWIDTH 1010 0
DWIDTH 20 0
BBX 20 20 0 -3
BITMAP
000000
000000
000000
000000
000000
000000
000000
07cf80
010600
010a00
011200
011200
012200
014200
014200
018200
010200
07cf80
000000
000000
ENDCHAR
STARTCHAR 07-59
ENCODING 10075
SWIDTH 1010 0
DWIDTH 20 0
BBX 20 20 0 -3
BITMAP
000000
000000
000000
01ce00
010200
00fc00
000000
07cf80
010600
010a00
011200
011200
012200
014200
014200
018200
010200
078f80
000000
000000
ENDCHAR
STARTCHAR 07-60
ENCODING 10076
SWIDTH 1010 0
DWIDTH 20 0
BBX 20 20 0 -3
BITMAP
000000
000000
000000
000000
000000
000000
000000
07c600
010b00
011200
011000
012000
01c000
012000
011000
010800
010400
079f00
000000
000000
ENDCHAR
STARTCHAR 07-61
ENCODING 10077
SWIDTH 1010 0
DWIDTH 20 0
BBX 20 20 0 -3
BITMAP
000000
000000
000000
000000
000000
000000
000000
01ff00
004400
004400
004400
004400
004400
008400
008400
048400
0d0400
061f00
000000
000000
ENDCHAR
STARTCHAR 07-62
ENCODING 10078
SWIDTH 1010 0
DWIDTH 20 0
BBX 20 20 0 -3
BITMAP
000000
000000
000000
000000
000000
000000
000000
0f9f80
020600
020e00
050a00
051200
049200
04a300
086100
084100
084100
3e07c0
000000
000000
ENDCHAR
STARTCHAR 07-63
ENCODING 10079
SWIDTH 1010 0
DWIDTH 20 0
BBX 20 20 0 -3
BITMAP
000000
000000
000000
000000
000000
000000
000000
0f9f00
020400
020400
020400
020400
03fc00
020400
020400
020400
020400
0f9f00
000000
000000
ENDCHAR
STARTCHAR 07-64
ENCODING 10080
SWIDTH 1010 0
DWIDTH 20 0
BBX 20 20 0 -3
BITMAP
000000
000000
000000
000000
000000
000000
000000
00f800
010400
020200
020200
020200
020200
020200
020200
020200
010400
00f800
000000
000000
ENDCHAR
STARTCHAR 07-65
ENCODING 10081
SWIDTH 1010 0
DWIDTH 20 0
BBX 20 20 0 -3
BITMAP
000000
000000
000000
000000
000000
000000
000000
0fff00
020400
020400
020400
020400
020400
020400
020400
020400
020400
0f9f00
000000
000000
ENDCHAR
STARTCHAR 07-66
ENCODING 10082
SWIDTH 1010 0
DWIDTH 20 0
BBX 20 20 0 -3
BITMAP
000000
000000
000000
000000
000000
000000
000000
077800
018600
010200
010100
010100
010100
010100
010200
018600
017800
010000
010000
07c000
ENDCHAR
STARTCHAR 07-67
ENCODING 10083
SWIDTH 1010 0
DWIDTH 20 0
BBX 20 20 0 -3
BITMAP
000000
000000
000000
000000
000000
000000
000000
00f800
010400
020200
020600
020000
020000
020000
020000
020200
010400
00f800
000000
000000
ENDCHAR
STARTCHAR 07-68
ENCODING 10084
SWIDTH 1010 0
DWIDTH 20 0
BBX 20 20 0 -3
BITMAP
000000
000000
000000
000000
000000
000000
000000
07ff00
042100
042100
042100
002000
002000
002000
002000
002000
002000
00f800
000000
000000
ENDCHAR
STARTCHAR 07-69
ENCODING 10085
SWIDTH 1010 0
DWIDTH 20 0
BBX 20 20 0 -3
BITMAP
000000
000000
000000
000000
000000
000000
000000
078f00
020400
020400
010800
010800
009000
009000
006000
006000
004000
0c4000
088000
070000
ENDCHAR
STARTCHAR 07-70
ENCODING 10086
SWIDTH 1010 0
DWIDTH 20 0
BBX 20 20 0 -3
BITMAP
000000
002000
00e000
002000
002000
002000
002000
03ae00
047100
082080
082080
082080
082080
082080
047100
03ae00
002000
002000
002000
00f800
ENDCHAR
STARTCHAR 07-71
ENCODING 10087
SWIDTH 1010 0
DWIDTH 20 0
BBX 20 20 0 -3
BITMAP
000000
000000
000000
000000
000000
000000
000000
0f9f00
020400
030800
019000
00e000
006000
007000
009800
010c00
020400
0f9f00
000000
000000
ENDCHAR
STARTCHAR 07-72
ENCODING 10088
SWIDTH 1010 0
DWIDTH 20 0
BBX 20 20 0 -3
BITMAP
000000
000000
000000
000000
000000
000000
000000
07cf80
010200
010200
010200
010200
010200
010200
010200
010200
010200
07ff80
000080
000080
ENDCHAR
STARTCHAR 07-73
ENCODING 10089
SWIDTH 1010 0
DWIDTH 20 0
BBX 20 20 0 -3
BITMAP
000000
000000
000000
000000
000000
000000
000000
0f9f00
020400
020400
020400
020400
020400
021c00
01e400
000400
000400
001f00
000000
000000
ENDCHAR
STARTCHAR 07-74
ENCODING 10090
SWIDTH 1010 0
DWIDTH 20 0
BBX 20 20 0 -3
BITMAP
000000
000000
000000
000000
000000
000000
000000
3efbe0
082080
082080
082080
082080
082080
082080
082080
082080
082080
3fffe0
000000
000000
ENDCHAR
STARTCHAR 07-75
ENCODING 10091
SWIDTH 1010 0
DWIDTH 20 0
BBX 20 20 0 -3
BITMAP
000000
000000
000000
000000
000000
000000
000000
3efbe0
082080
082080
082080
082080
082080
082080
082080
082080
082080
3fffe0
000020
000020
ENDCHAR
STARTCHAR 07-76
ENCODING 10092
SWIDTH 1010 0
DWIDTH 20 0
BBX 20 20 0 -3
BITMAP
000000
000000
000000
000000
000000
000000
000000
0ff000
084000
084000
084000
004000
007e00
004100
004080
004080
004100
01fe00
000000
000000
ENDCHAR
STARTCHAR 07-77
ENCODING 10093
SWIDTH 1010 0
DWIDTH 20 0
BBX 20 20 0 -3
BITMAP
000000
000000
000000
000000
000000
000000
000000
1f07c0
040100
040100
040100
040100
07c100
042100
041100
041100
042100
1fc7c0
000000
000000
ENDCHAR
STARTCHAR 07-78
ENCODING 10094
SWIDTH 1010 0
DWIDTH 20 0
BBX 20 20 0 -3
BITMAP
000000
000000
000000
000000
000000
000000
000000
07c000
010000
010000
010000
010000
01f800
010400
010200
010200
010400
07f800
000000
000000
ENDCHAR
STARTCHAR 07-79
ENCODING 10095
SWIDTH 1010 0
DWIDTH 20 0
BBX 20 20 0 -3
BITMAP
000000
000000
000000
000000
000000
000000
000000
03f000
040800
000400
000200
00ce00
013200
000200
000200
000400
040800
03f000
000000
000000
ENDCHAR
STARTCHAR 07-80
ENCODING 10096
SWIDTH 1010 0
DWIDTH 20 0
BBX 20 20 0 -3
BITMAP
000000
000000
000000
000000
000000
000000
000000
0f9e00
022100
022100
024080
024080
03c080
024080
024080
022100
022100
0f9e00
000000
000000
ENDCHAR
STARTCHAR 07-81
ENCODING 10097
SWIDTH 1010 0
DWIDTH 20 0
BBX 20 20 0 -3
BITMAP
000000
000000
000000
000000
000000
000000
000000
01ff00
020400
040400
040400
020400
01fc00
004400
008400
010400
020400
0c1f00
000000
000000
ENDCHAR
STARTCHAR 08-01
ENCODING 10273
SWIDTH 1010 0
DWIDTH 20 0
BBX 20 20 0 -3
BITMAP
000000
000000
000000
000000
000000
000000
000000
000000
000000
7ffff0
000000
000000
000000
000000
000000
000000
000000
000000
000000
000000
ENDCHAR
STARTCHAR 08-02
ENCODING 10274
SWIDTH 1010 0
DWIDTH 20 0
BBX 20 20 0 -3
BITMAP
004000
004000
004000
004000
004000
004000
004000
004000
004000
004000
004000
004000
004000
004000
004000
004000
004000
004000
004000
004000
ENDCHAR
STARTCHAR 08-03
ENCODING 10275
SWIDTH 1010 0
DWIDTH 20 0
BBX 20 20 0 -3
BITMAP
000000
000000
000000
000000
000000
000000
000000
000000
000000
007ff0
004000
004000
004000
004000
004000
004000
004000
004000
004000
004000
ENDCHAR
STARTCHAR 08-04
ENCODING 10276
SWIDTH 1010 0
DWIDTH 20 0
BBX 20 20 0 -3
BITMAP
000000
000000
000000
000000
000000
000000
000000
000000
000000
7fc000
004000
004000
004000
004000
004000
004000
004000
004000
004000
004000
ENDCHAR
STARTCHAR 08-05
ENCODING 10277
SWIDTH 1010 0
DWIDTH 20 0
BBX 20 20 0 -3
BITMAP
004000
004000
004000
004000
004000
004000
004000
004000
004000
7fc000
000000
000000
000000
000000
000000
000000
000000
000000
000000
000000
ENDCHAR
STARTCHAR 08-06
ENCODING 10278
SWIDTH 1010 0
DWIDTH 20 0
BBX 20 20 0 -3
BITMAP
004000
004000
004000
004000
004000
004000
004000
004000
004000
007ff0
000000
000000
000000
000000
000000
000000
000000
000000
000000
000000
ENDCHAR
STARTCHAR 08-07
ENCODING 10279
SWIDTH 1010 0
DWIDTH 20 0
BBX 20 20 0 -3
BITMAP
004000
004000
004000
004000
004000
004000
004000
004000
004000
007ff0
004000
004000
004000
004000
004000
004000
004000
004000
004000
004000
ENDCHAR
STARTCHAR 08-08
ENCODING 10280
SWIDTH 1010 0
DWIDTH 20 0
BBX 20 20 0 -3
BITMAP
000000
000000
000000
000000
000000
000000
000000
000000
000000
7ffff0
004000
004000
004000
004000
004000
004000
004000
004000
004000
004000
ENDCHAR
STARTCHAR 08-09
ENCODING 10281
SWIDTH 1010 0
DWIDTH 20 0
BBX 20 20 0 -3
BITMAP
004000
004000
004000
004000
004000
004000
004000
004000
004000
7fc000
004000
004000
004000
004000
004000
004000
004000
004000
004000
004000
ENDCHAR
STARTCHAR 08-10
ENCODING 10282
SWIDTH 1010 0
DWIDTH 20 0
BBX 20 20 0 -3
BITMAP
004000
004000
004000
004000
004000
004000
004000
004000
004000
7ffff0
000000
000000
000000
000000
000000
000000
000000
000000
000000
000000
ENDCHAR
STARTCHAR 08-11
ENCODING 10283
SWIDTH 1010 0
DWIDTH 20 0
BBX 20 20 0 -3
BITMAP
004000
004000
004000
004000
004000
004000
004000
004000
004000
7ffff0
004000
004000
004000
004000
004000
004000
004000
004000
004000
004000
ENDCHAR
STARTCHAR 08-12
ENCODING 10284
SWIDTH 1010 0
DWIDTH 20 0
BBX 20 20 0 -3
BITMAP
000000
000000
000000
000000
000000
000000
000000
000000
000000
fffff0
fffff0
000000
000000
000000
000000
000000
000000
000000
000000
000000
ENDCHAR
STARTCHAR 08-13
ENCODING 10285
SWIDTH 1010 0
DWIDTH 20 0
BBX 20 20 0 -3
BITMAP
006000
006000
006000
006000
006000
006000
006000
006000
006000
006000
006000
006000
006000
006000
006000
006000
006000
006000
006000
006000
ENDCHAR
STARTCHAR 08-14
ENCODING 10286
SWIDTH 1010 0
DWIDTH 20 0
BBX 20 20 0 -3
BITMAP
000000
000000
000000
000000
000000
000000
000000
000000
000000
007ff0
007ff0
006000
006000
006000
006000
006000
006000
006000
006000
006000
ENDCHAR
STARTCHAR 08-15
ENCODING 10287
SWIDTH 1010 0
DWIDTH 20 0
BBX 20 20 0 -3
BITMAP
000000
000000
000000
000000
000000
000000
000000
000000
000000
ffe000
ffe000
006000
006000
006000
006000
006000
006000
006000
006000
006000
ENDCHAR
STARTCHAR 08-16
ENCODING 10288
SWIDTH 1010 0
DWIDTH 20 0
BBX 20 20 0 -3
BITMAP
006000
006000
006000
006000
006000
006000
006000
006000
006000
ffe000
ffe000
000000
000000
000000
000000
000000
000000
000000
000000
000000
ENDCHAR
STARTCHAR 08-17
ENCODING 10289
SWIDTH 1010 0
DWIDTH 20 0
BBX 20 20 0 -3
BITMAP
006000
006000
006000
006000
006000
006000
006000
006000
006000
007ff0
007ff0
000000
000000
000000
000000
000000
000000
000000
000000
000000
ENDCHAR
STARTCHAR 08-18
ENCODING 10290
SWIDTH 1010 0
DWIDTH 20 0
BBX 20 20 0 -3
BITMAP
006000
006000
006000
006000
006000
006000
006000
006000
006000
007ff0
007ff0
006000
006000
006000
006000
006000
006000
006000
006000
006000
ENDCHAR
STARTCHAR 08-19
ENCODING 10291
SWIDTH 1010 0
DWIDTH 20 0
BBX 20 20 0 -3
BITMAP
000000
000000
000000
000000
000000
000000
000000
000000
000000
fffff0
fffff0
006000
006000
006000
006000
006000
006000
006000
006000
006000
ENDCHAR
STARTCHAR 08-20
ENCODING 10292
SWIDTH 1010 0
DWIDTH 20 0
BBX 20 20 0 -3
BITMAP
006000
006000
006000
006000
006000
006000
006000
006000
006000
ffe000
ffe000
006000
006000
006000
006000
006000
006000
006000
006000
006000
ENDCHAR
STARTCHAR 08-21
ENCODING 10293
SWIDTH 1010 0
DWIDTH 20 0
BBX 20 20 0 -3
BITMAP
006000
006000
006000
006000
006000
006000
006000
006000
006000
fffff0
fffff0
000000
000000
000000
000000
000000
000000
000000
000000
000000
ENDCHAR
STARTCHAR 08-22
ENCODING 10294
SWIDTH 1010 0
DWIDTH 20 0
BBX 20 20 0 -3
BITMAP
006000
006000
006000
006000
006000
006000
006000
006000
006000
fffff0
fffff0
006000
006000
006000
006000
006000
006000
006000
006000
006000
ENDCHAR
STARTCHAR 08-23
ENCODING 10295
SWIDTH 1010 0
DWIDTH 20 0
BBX 20 20 0 -3
BITMAP
006000
006000
006000
006000
006000
006000
006000
006000
006000
007ff0
007ff0
006000
006000
006000
006000
006000
006000
006000
006000
006000
ENDCHAR
STARTCHAR 08-24
ENCODING 10296
SWIDTH 1010 0
DWIDTH 20 0
BBX 20 20 0 -3
BITMAP
000000
000000
000000
000000
000000
000000
000000
000000
000000
fffff0
fffff0
006000
006000
006000
006000
006000
006000
006000
006000
006000
ENDCHAR
STARTCHAR 08-25
ENCODING 10297
SWIDTH 1010 0
DWIDTH 20 0
BBX 20 20 0 -3
BITMAP
006000
006000
006000
006000
006000
006000
006000
006000
006000
ffe000
ffe000
006000
006000
006000
006000
006000
006000
006000
006000
006000
ENDCHAR
STARTCHAR 08-26
ENCODING 10298
SWIDTH 1010 0
DWIDTH 20 0
BBX 20 20 0 -3
BITMAP
006000
006000
006000
006000
006000
006000
006000
006000
006000
fffff0
fffff0
000000
000000
000000
000000
000000
000000
000000
000000
000000
ENDCHAR
STARTCHAR 08-27
ENCODING 10299
SWIDTH 1010 0
DWIDTH 20 0
BBX 20 20 0 -3
BITMAP
006000
006000
006000
006000
006000
006000
006000
006000
006000
fffff0
fffff0
006000
006000
006000
006000
006000
006000
006000
006000
006000
ENDCHAR
STARTCHAR 08-28
ENCODING 10300
SWIDTH 1010 0
DWIDTH 20 0
BBX 20 20 0 -3
BITMAP
006000
006000
006000
006000
006000
006000
006000
006000
006000
007ff0
007ff0
006000
006000
006000
006000
006000
006000
006000
006000
006000
ENDCHAR
STARTCHAR 08-29
ENCODING 10301
SWIDTH 1010 0
DWIDTH 20 0
BBX 20 20 0 -3
BITMAP
000000
000000
000000
000000
000000
000000
000000
000000
000000
fffff0
fffff0
006000
006000
006000
006000
006000
006000
006000
006000
006000
ENDCHAR
STARTCHAR 08-30
ENCODING 10302
SWIDTH 1010 0
DWIDTH 20 0
BBX 20 20 0 -3
BITMAP
006000
006000
006000
006000
006000
006000
006000
006000
006000
ffe000
ffe000
006000
006000
006000
006000
006000
006000
006000
006000
006000
ENDCHAR
STARTCHAR 08-31
ENCODING 10303
SWIDTH 1010 0
DWIDTH 20 0
BBX 20 20 0 -3
BITMAP
006000
006000
006000
006000
006000
006000
006000
006000
006000
fffff0
fffff0
000000
000000
000000
000000
000000
000000
000000
000000
000000
ENDCHAR
STARTCHAR 08-32
ENCODING 10304
SWIDTH 1010 0
DWIDTH 20 0
BBX 20 20 0 -3
BITMAP
006000
006000
006000
006000
006000
006000
006000
006000
006000
fffff0
fffff0
006000
006000
006000
006000
006000
006000
006000
006000
006000
ENDCHAR
STARTCHAR 16-01
ENCODING 12321
SWIDTH 1010 0
DWIDTH 20 0
BBX 20 20 0 -3
BITMAP
000040
3fffe0
010800
010800
010800
110880
1fffc0
110880
110880
110880
110880
110880
1fff80
110880
010800
010800
010800
010820
7ffff0
000000
ENDCHAR
STARTCHAR 16-02
ENCODING 12322
SWIDTH 1010 0
DWIDTH 20 0
BBX 20 20 0 -3
BITMAP
000020
00fff0
220900
3f0900
220900
224920
227ff0
224920
224920
224920
224920
224920
227fe0
224920
3e0900
220900
200900
000920
01fff0
000000
ENDCHAR
STARTCHAR 16-03
ENCODING 12323
SWIDTH 1010 0
DWIDTH 20 0
BBX 20 20 0 -3
BITMAP
0c0300
080200
080240
083fe0
090200
7fc200
110200
110220
117ff0
110000
210300
220200
320240
6a3fe0
460200
050200
088200
108220
207ff0
400000
ENDCHAR
STARTCHAR 16-04
ENCODING 12324
SWIDTH 1010 0
DWIDTH 20 0
BBX 20 20 0 -3
BITMAP
000000
440020
7efff0
440040
480040
484440
507e40
504440
484440
444440
424440
424440
424440
467c40
7c4440
484040
400040
400040
4003c0
400080
ENDCHAR
STARTCHAR 16-05
ENCODING 12325
SWIDTH 1010 0
DWIDTH 20 0
BBX 20 20 0 -3
BITMAP
006000
004000
004040
7fffe0
000000
080200
0fff00
080200
080200
080200
0ffe00
091240
0390e0
060980
1a0a00
620400
020300
03e180
3e00f0
080040
ENDCHAR
STARTCHAR 16-06
ENCODING 12326
SWIDTH 1010 0
DWIDTH 20 0
BBX 20 20 0 -3
BITMAP
000180
001fe0
1fe100
044180
222220
3ffff0
604020
433120
0a1480
130680
31fc00
008100
01ff80
030200
0d0400
30c800
003000
01cf00
0e01f0
700040
ENDCHAR
STARTCHAR 16-07
ENCODING 12327
SWIDTH 1010 0
DWIDTH 20 0
BBX 20 20 0 -3
BITMAP
0c1000
081800
081080
082040
7e27e0
09fc20
088000
083000
082040
0a7fe0
0c8400
180400
680420
29fff0
080c00
080a00
081100
0820c0
38c070
130020
ENDCHAR
STARTCHAR 16-08
ENCODING 12328
SWIDTH 1010 0
DWIDTH 20 0
BBX 20 20 0 -3
BITMAP
0c0600
080600
080500
080d00
088880
7fd080
111040
112060
112130
115fa0
210000
220000
322040
6a3fe0
462040
052040
092040
112040
203fc0
402040
ENDCHAR
STARTCHAR 16-09
ENCODING 12329
SWIDTH 1010 0
DWIDTH 20 0
BBX 20 20 0 -3
BITMAP
001800
201080
101fc0
182080
086100
019200
000c00
081b00
7c60f0
098c20
080800
09ffc0
080800
09ffc0
080800
0bffe0
080800
140800
238000
407ff0
ENDCHAR
STARTCHAR 16-10
ENCODING 12330
SWIDTH 1010 0
DWIDTH 20 0
BBX 20 20 0 -3
BITMAP
030300
020220
7ffff0
020200
020200
009000
1fd080
010900
420420
240a40
1bfd80
3040f0
404020
004080
3fffc0
009000
010800
020600
0c03e0
700080
ENDCHAR
STARTCHAR 16-11
ENCODING 12331
SWIDTH 1010 0
DWIDTH 20 0
BBX 20 20 0 -3
BITMAP
018600
010400
010420
7ffff0
010400
010400
000020
7ffff0
009000
109040
1fffe0
111040
111140
121140
1411c0
180f40
100040
100040
1fffc0
100040
ENDCHAR
STARTCHAR 16-12
ENCODING 12332
SWIDTH 1010 0
DWIDTH 20 0
BBX 20 20 0 -3
BITMAP
021100
0f1f80
782200
084440
08ffe0
0a4440
7f7fc0
084440
187fc0
1c0420
1afff0
2a8420
28ffe0
288420
48ffe0
088420
080400
080420
080630
0803e0
ENDCHAR
STARTCHAR 16-13
ENCODING 12333
SWIDTH 1010 0
DWIDTH 20 0
BBX 20 20 0 -3
BITMAP
000040
3fffe0
008800
088880
0fffc0
088880
088880
088880
0fff80
088880
008820
7ffff0
004000
022080
131040
121020
320220
220200
430300
01fe00
ENDCHAR
STARTCHAR 16-14
ENCODING 12334
SWIDTH 1010 0
DWIDTH 20 0
BBX 20 20 0 -3
BITMAP
0c8020
08fff0
088020
088020
0affe0
7f8000
088040
08bfe0
088400
0a8680
0c8840
78bfe0
289220
098200
090240
093fe0
090200
0a0220
3afff0
140000
ENDCHAR
STARTCHAR 16-15
ENCODING 12335
SWIDTH 1010 0
DWIDTH 20 0
BBX 20 20 0 -3
BITMAP
108020
08fff0
048020
048020
40ffe0
208000
108040
12bfe0
128400
048680
048840
08bfe0
089220
518200
310240
113fe0
110200
120220
12fff0
140000
ENDCHAR
STARTCHAR 16-16
ENCODING 12336
SWIDTH 1010 0
DWIDTH 20 0
BBX 20 20 0 -3
BITMAP
0c0000
081040
081fe0
081040
081040
091040
7f9040
091fc0
091040
091040
091040
091040
091fc0
091040
191000
110020
110020
218030
20ffe0
400000
ENDCHAR
STARTCHAR 16-17
ENCODING 12337
SWIDTH 1010 0
DWIDTH 20 0
BBX 20 20 0 -3
BITMAP
030600
020420
7ffff0
020400
02c400
008100
1fff80
010120
7ffff0
000000
0fff00
080100
0fff00
001000
1fffc0
041000
041020
7ffff0
001000
001000
ENDCHAR
STARTCHAR 16-18
ENCODING 12338
SWIDTH 1010 0
DWIDTH 20 0
BBX 20 20 0 -3
BITMAP
018600
010420
7ffff0
010400
010400
000040
3fffe0
000000
040080
07ffc0
040080
040080
040080
07ff80
0c0080
080000
080000
100000
200000
400000
ENDCHAR
STARTCHAR 16-19
ENCODING 12339
SWIDTH 1010 0
DWIDTH 20 0
BBX 20 20 0 -3
BITMAP
180800
120e80
1f1040
3223e0
24fc20
7e2300
2a0600
2afff0
2a0900
3e1080
2a2270
2ac720
2a0880
3e30c0
220300
000c20
557030
5500c0
540700
40f800
ENDCHAR
STARTCHAR 16-20
ENCODING 12340
SWIDTH 1010 0
DWIDTH 20 0
BBX 20 20 0 -3
BITMAP
0c0600
080400
080440
0affe0
7f4100
0821c0
0c3100
1a1200
1a1220
1afff0
3a0400
280400
280400
480440
087fe0
080400
080400
080400
080400
080400
ENDCHAR
STARTCHAR 16-21
ENCODING 12341
SWIDTH 1010 0
DWIDTH 20 0
BBX 20 20 0 -3
BITMAP
000000
080020
0ffff0
080000
080000
080c00
080800
080800
080800
080800
180880
11ffc0
100800
100800
100800
300800
200800
200820
4ffff0
000000
ENDCHAR
STARTCHAR 16-22
ENCODING 12342
SWIDTH 1010 0
DWIDTH 20 0
BBX 20 20 0 -3
BITMAP
060700
040600
048500
7fcc80
0408c0
041070
3f9020
20a0c0
208880
3f8680
208280
20a080
3f9880
0408a0
0480f0
7fc780
043880
040080
040080
040080
ENDCHAR
STARTCHAR 16-23
ENCODING 12343
SWIDTH 1010 0
DWIDTH 20 0
BBX 20 20 0 -3
BITMAP
0c0080
09ffc0
081080
081080
0a1100
7f1100
083120
082bf0
082a20
092820
0a2460
0c6440
7846c0
284380
08c100
088380
0886c0
090c60
791030
126020
ENDCHAR
STARTCHAR 16-24
ENCODING 12344
SWIDTH 1010 0
DWIDTH 20 0
BBX 20 20 0 -3
BITMAP
003000
002000
202020
3ffff0
600020
400040
060000
049080
0fdfc0
089080
109080
209080
591080
051780
021100
021000
041020
081020
101030
600fe0
ENDCHAR
STARTCHAR 16-25
ENCODING 12345
SWIDTH 1010 0
DWIDTH 20 0
BBX 20 20 0 -3
BITMAP
061080
041fc0
041080
041080
049080
7fd080
089080
089f80
189080
119080
111080
211080
3b1080
261f80
231080
051080
099080
119080
2010a0
407ff0
ENDCHAR
STARTCHAR 16-26
ENCODING 12346
SWIDTH 1010 0
DWIDTH 20 0
BBX 20 20 0 -3
BITMAP
060180
040100
040100
248100
3fd120
249ff0
249000
249000
249000
249000
3f9000
249000
041000
041000
051000
049000
07d000
7c5800
204fe0
000000
ENDCHAR
STARTCHAR 16-27
ENCODING 12347
SWIDTH 1010 0
DWIDTH 20 0
BBX 20 20 0 -3
BITMAP
060200
040300
0a0200
090600
108440
168420
240820
5f89f0
10be10
1f9810
108000
1f8820
108ff0
100820
120820
110820
118820
168820
788fe0
200820
ENDCHAR
STARTCHAR 16-28
ENCODING 12348
SWIDTH 1010 0
DWIDTH 20 0
BBX 20 20 0 -3
BITMAP
081800
0c1000
081000
502020
223ff0
134020
164220
04bf20
082220
0a2220
112220
7fbe20
24a220
042260
262240
353e40
24a2c0
448080
040780
040100
ENDCHAR
STARTCHAR 16-29
ENCODING 12349
SWIDTH 1010 0
DWIDTH 20 0
BBX 20 20 0 -3
BITMAP
040600
060400
080440
2a7fe0
130400
140420
14fff0
080900
0a0920
111130
7f2ce0
294840
081fe0
2c1040
2a2880
2ac500
2a0200
480d80
0830f0
08c020
ENDCHAR
STARTCHAR 16-30
ENCODING 12350
SWIDTH 1010 0
DWIDTH 20 0
BBX 20 20 0 -3
BITMAP
0c0300
090200
1f8200
120200
244220
5fe3f0
124200
124200
124200
1fc200
125240
125fe0
125040
1fd040
105040
001040
155040
155040
355fc0
201040
ENDCHAR
STARTCHAR 16-31
ENCODING 12351
SWIDTH 1010 0
DWIDTH 20 0
BBX 20 20 0 -3
BITMAP
000d00
000880
000880
000820
7ffff0
000800
000800
108840
1fc860
108cc0
108480
108580
1f8700
108200
100700
00c920
0711a0
7c20e0
20c070
030020
ENDCHAR
STARTCHAR 16-32
ENCODING 12352
SWIDTH 1010 0
DWIDTH 20 0
BBX 20 20 0 -3
BITMAP
000020
7ffff0
010400
210420
3ffff0
210420
210420
210420
3fffe0
242220
022300
032400
012820
7ffff0
006800
01a600
062380
1820f0
602020
002000
ENDCHAR
STARTCHAR 16-33
ENCODING 12353
SWIDTH 1010 0
DWIDTH 20 0
BBX 20 20 0 -3
BITMAP
0c0700
080600
080500
0a0d00
7f0880
0218c0
061060
052030
09a0a0
095fc0
1e0000
2a0000
491040
099fe0
091040
081040
081040
081040
081fc0
081040
ENDCHAR
STARTCHAR 16-34
ENCODING 12354
SWIDTH 1010 0
DWIDTH 20 0
BBX 20 20 0 -3
BITMAP
003000
002000
202020
3ffff0
200020
60c040
408080
018000
010020
7ffff0
020200
020400
040800
041000
0f2000
08f000
008c00
030300
0c0180
700080
ENDCHAR
STARTCHAR 16-35
ENCODING 12355
SWIDTH 1010 0
DWIDTH 20 0
BBX 20 20 0 -3
BITMAP
001800
101020
1ffff0
100000
103000
102080
17ffc0
104400
109200
111180
13ff70
1d1120
11ff00
111100
111100
21ff00
211120
201020
401030
000fe0
ENDCHAR
STARTCHAR 16-36
ENCODING 12356
SWIDTH 1010 0
DWIDTH 20 0
BBX 20 20 0 -3
BITMAP
0c0600
080400
084420
087ff0
08c020
7e8c40
080800
080800
080820
0afff0
0c1080
781080
282100
082100
087a00
084600
080980
081040
386060
118020
ENDCHAR
STARTCHAR 16-37
ENCODING 12357
SWIDTH 1010 0
DWIDTH 20 0
BBX 20 20 0 -3
BITMAP
000600
220400
3f0440
227fe0
222080
2210c0
220900
220900
3e0220
22fff0
220000
222080
223fc0
222080
3e2080
223f80
202080
002080
003f80
002080
ENDCHAR
STARTCHAR 16-38
ENCODING 12358
SWIDTH 1010 0
DWIDTH 20 0
BBX 20 20 0 -3
BITMAP
003000
202020
3ffff0
600040
40c080
008020
7ffff0
010600
07d800
047000
01ce00
0e0300
703100
002020
7ffff0
00e800
03a700
0e21f0
702020
002000
ENDCHAR
STARTCHAR 16-39
ENCODING 12359
SWIDTH 1010 0
DWIDTH 20 0
BBX 20 20 0 -3
BITMAP
208820
3fcff0
208820
208820
3f8fe0
208820
208820
3f8fe0
202020
202420
23fe20
210820
209220
27ff20
200020
21fc20
210420
21fc20
2105e0
21fc40
ENDCHAR
STARTCHAR 16-40
ENCODING 12360
SWIDTH 1010 0
DWIDTH 20 0
BBX 20 20 0 -3
BITMAP
198300
110200
111220
7fdff0
113020
112220
1f0300
150200
040420
3fbff0
248440
248440
3f8840
248880
041480
7fd300
040280
040440
041820
046020
ENDCHAR
STARTCHAR 16-41
ENCODING 12361
SWIDTH 1010 0
DWIDTH 20 0
BBX 20 20 0 -3
BITMAP
003000
002000
002000
002020
7ffff0
007000
00a800
012600
062180
182070
602020
002000
040100
07ff80
040100
040100
040100
040100
07ff00
040100
ENDCHAR
STARTCHAR 16-42
ENCODING 12362
SWIDTH 1010 0
DWIDTH 20 0
BBX 20 20 0 -3
BITMAP
000000
0c0060
080040
080040
080040
088040
0840c0
082080
083080
081180
080100
080100
080300
080280
084440
098820
0e1020
782030
20c010
030010
ENDCHAR
STARTCHAR 16-43
ENCODING 12363
SWIDTH 1010 0
DWIDTH 20 0
BBX 20 20 0 -3
BITMAP
060000
040040
04ffe0
0c0840
080840
080840
19fff0
180840
280840
280840
480840
08ffc0
080840
080800
081000
081000
082000
082000
084000
098000
ENDCHAR
STARTCHAR 16-44
ENCODING 12364
SWIDTH 1010 0
DWIDTH 20 0
BBX 20 20 0 -3
BITMAP
060600
040400
040400
0c0400
080440
18ffe0
180000
180080
2880c0
284080
484080
082180
082100
082100
082100
080200
080200
080220
09fff0
080000
ENDCHAR
STARTCHAR 16-45
ENCODING 12365
SWIDTH 1010 0
DWIDTH 20 0
BBX 20 20 0 -3
BITMAP
060600
040400
040400
0c0420
09fff0
180800
180800
181420
281430
282440
486280
08a300
092200
0a2100
082100
082080
0820c0
083c60
09e030
088020
ENDCHAR
STARTCHAR 16-46
ENCODING 12366
SWIDTH 1010 0
DWIDTH 20 0
BBX 20 20 0 -3
BITMAP
060c00
040880
047fc0
0c1080
0810a0
19fff0
180000
184040
287fe0
284040
484040
087fc0
080200
080240
087fe0
082200
082220
09fff0
080200
080200
ENDCHAR
STARTCHAR 16-47
ENCODING 12367
SWIDTH 1010 0
DWIDTH 20 0
BBX 20 20 0 -3
BITMAP
200020
3ffff0
200020
20cc20
208820
208820
208a20
27ff20
208820
208820
208920
2fffa0
210820
210820
220820
240820
280820
200020
3fffe0
200020
ENDCHAR
STARTCHAR 16-48
ENCODING 12368
SWIDTH 1010 0
DWIDTH 20 0
BBX 20 20 0 -3
BITMAP
003000
002020
3ffff0
002000
002040
1fffe0
002040
082040
0fffc0
082000
102020
1ffff0
106020
005020
0091c0
010880
020400
040300
1800f0
600020
ENDCHAR
STARTCHAR 16-49
ENCODING 12369
SWIDTH 1010 0
DWIDTH 20 0
BBX 20 20 0 -3
BITMAP
000c00
007f00
0fa000
002020
7ffff0
007000
00a800
012600
062380
1820f0
60a020
008000
010020
7ffff0
020600
060c00
0df000
004f00
0381c0
3c0040
ENDCHAR
STARTCHAR 16-50
ENCODING 12370
SWIDTH 1010 0
DWIDTH 20 0
BBX 20 20 0 -3
BITMAP
000680
000440
000440
100400
1ffff0
100400
104400
17e440
100660
118240
1122c0
1ff280
124380
124100
178320
34c3a0
2166a0
222c60
440870
003030
ENDCHAR
STARTCHAR 16-51
ENCODING 12371
SWIDTH 1010 0
DWIDTH 20 0
BBX 20 20 0 -3
BITMAP
102060
1ff040
102040
102040
1fe040
102ff0
100040
108040
17c040
100440
104240
1fe340
110140
154040
372040
252040
292040
210040
4703c0
020080
ENDCHAR
STARTCHAR 16-52
ENCODING 12372
SWIDTH 1010 0
DWIDTH 20 0
BBX 20 20 0 -3
BITMAP
0c1100
081980
081100
083100
0a2220
293ff0
296200
296200
28a240
693fe0
482200
082200
082240
083fe0
082200
082200
082200
082220
083ff0
082000
ENDCHAR
STARTCHAR 16-53
ENCODING 12373
SWIDTH 1010 0
DWIDTH 20 0
BBX 20 20 0 -3
BITMAP
003000
002080
1fffc0
020200
010300
010420
7ffff0
000000
07ff00
040100
07ff00
040100
07ff00
002000
031080
121840
120a20
220220
630300
01fe00
ENDCHAR
STARTCHAR 16-54
ENCODING 12374
SWIDTH 1010 0
DWIDTH 20 0
BBX 20 20 0 -3
BITMAP
102060
1ff040
102040
1fe040
100ff0
104040
17e440
100240
2ff240
208240
2ca040
489040
1383c0
010080
006000
131880
120860
220220
620300
01fe00
ENDCHAR
STARTCHAR 16-55
ENCODING 12375
SWIDTH 1010 0
DWIDTH 20 0
BBX 20 20 0 -3
BITMAP
040100
07ff80
040100
040100
07ff00
040100
040100
07ff00
048100
008020
01fff0
022220
042220
184420
608420
010840
061040
186080
018780
000100
ENDCHAR
STARTCHAR 16-56
ENCODING 12376
SWIDTH 1010 0
DWIDTH 20 0
BBX 20 20 0 -3
BITMAP
0c0600
080400
080440
087fe0
0a0c00
7f1b00
0830c0
18c040
1c0020
1afff0
3a0040
2a4440
287e40
284440
484440
087c40
084440
084040
0803c0
080080
ENDCHAR
STARTCHAR 16-57
ENCODING 12377
SWIDTH 1010 0
DWIDTH 20 0
BBX 20 20 0 -3
BITMAP
0c3000
022000
022000
002200
1fff00
004200
004200
008280
01ffc0
010080
020080
0400a0
0ffff0
100020
612420
049220
089220
309060
2003c0
000080
ENDCHAR
STARTCHAR 16-58
ENCODING 12378
SWIDTH 1010 0
DWIDTH 20 0
BBX 20 20 0 -3
BITMAP
080080
0fffc0
082080
082080
0fff80
082080
082080
0fff80
080080
000020
7ffff0
042080
0420e0
041180
041a00
040c00
04c600
070380
7c00f0
100020
ENDCHAR
STARTCHAR 16-59
ENCODING 12379
SWIDTH 1010 0
DWIDTH 20 0
BBX 20 20 0 -3
BITMAP
080080
0fffc0
082080
082080
0fff80
082080
082080
0fff80
080080
018600
010440
3fffe0
010400
010420
7ffff0
020000
038600
060180
0800c0
300040
ENDCHAR
STARTCHAR 16-60
ENCODING 12380
SWIDTH 1010 0
DWIDTH 20 0
BBX 20 20 0 -3
BITMAP
021800
0f1080
783fc0
082180
086100
0a9300
7f0a00
080400
180800
1c1300
1a6220
3907f0
290c60
281840
2864c0
480280
080100
080200
080c00
087000
ENDCHAR
STARTCHAR 16-61
ENCODING 12381
SWIDTH 1010 0
DWIDTH 20 0
BBX 20 20 0 -3
BITMAP
040880
060cc0
080980
521900
231220
121ff0
143100
0c3100
085140
121fe0
111100
7f9100
249140
041fe0
251100
349100
249100
449120
041ff0
041000
ENDCHAR
STARTCHAR 16-62
ENCODING 12382
SWIDTH 1010 0
DWIDTH 20 0
BBX 20 20 0 -3
BITMAP
040600
060480
083fc0
520880
2308a0
127ff0
140000
0c1040
081fe0
121040
111040
7f9fc0
248200
040240
263fe0
351200
259220
457ff0
040200
040200
ENDCHAR
STARTCHAR 16-63
ENCODING 12383
SWIDTH 1010 0
DWIDTH 20 0
BBX 20 20 0 -3
BITMAP
100040
1fffe0
102040
1fffc0
102040
102040
1fffc0
100040
040100
07ff80
040100
040100
07ff00
040100
040100
07ff00
040100
040100
040f00
040200
ENDCHAR
STARTCHAR 16-64
ENCODING 12384
SWIDTH 1010 0
DWIDTH 20 0
BBX 20 20 0 -3
BITMAP
030300
020220
7ffff0
020200
000800
007f00
0fe000
002020
7ffff0
00e800
032700
0c20f0
718020
010000
7ffff0
020600
078c00
047800
01c600
3e0180
ENDCHAR
STARTCHAR 16-65
ENCODING 12385
SWIDTH 1010 0
DWIDTH 20 0
BBX 20 20 0 -3
BITMAP
003000
002000
002000
002020
7ffff0
009000
019040
031070
0608c0
0c0900
340a00
440c00
040400
040600
040200
040300
040180
04f0c0
3f0070
180020
ENDCHAR
STARTCHAR 16-66
ENCODING 12386
SWIDTH 1010 0
DWIDTH 20 0
BBX 20 20 0 -3
BITMAP
088020
3cfff0
008420
04ffe0
7e8420
008420
08ffe0
3c0000
004040
087fe0
3c4040
004040
447fc0
7e4040
444040
447fc0
444040
7c4040
4443c0
404080
ENDCHAR
STARTCHAR 16-67
ENCODING 12387
SWIDTH 1010 0
DWIDTH 20 0
BBX 20 20 0 -3
BITMAP
001800
201080
10ffc0
082080
0820a0
01fff0
000000
087fc0
7c4040
084040
087fc0
080200
080240
09ffe0
084200
084220
09fff0
140200
238200
407ff0
ENDCHAR
STARTCHAR 16-68
ENCODING 12388
SWIDTH 1010 0
DWIDTH 20 0
BBX 20 20 0 -3
BITMAP
000600
204440
107fe0
084440
087fc0
000420
01fff0
080000
7c7fc0
084040
087fc0
084040
087fc0
084040
087fc0
082100
083880
14c040
630040
20fff0
ENDCHAR
STARTCHAR 16-69
ENCODING 12389
SWIDTH 1010 0
DWIDTH 20 0
BBX 20 20 0 -3
BITMAP
200020
3ffff0
200000
218000
210100
23ff80
221000
241000
201080
27ffc0
203000
202800
204400
204200
208100
210180
260080
200020
3ffff0
200000
ENDCHAR
STARTCHAR 16-70
ENCODING 12390
SWIDTH 1010 0
DWIDTH 20 0
BBX 20 20 0 -3
BITMAP
018600
010400
010400
010400
010440
3fffe0
010400
010400
010400
010400
010400
010420
7ffff0
020400
020400
020400
040400
040400
080400
100400
ENDCHAR
STARTCHAR 16-71
ENCODING 12391
SWIDTH 1010 0
DWIDTH 20 0
BBX 20 20 0 -3
BITMAP
003000
002000
002000
002020
7ffff0
004000
006200
088700
050c00
020880
0310c0
012180
00c200
010400
060800
383600
004180
018040
060060
380020
ENDCHAR
STARTCHAR 16-72
ENCODING 12392
SWIDTH 1010 0
DWIDTH 20 0
BBX 20 20 0 -3
BITMAP
180340
100220
100220
100200
11fff0
140200
7e0200
111220
11fa30
111220
111260
111240
11f280
111380
1c0100
703aa0
23c4a0
010860
001030
006010
ENDCHAR
STARTCHAR 16-73
ENCODING 12393
SWIDTH 1010 0
DWIDTH 20 0
BBX 20 20 0 -3
BITMAP
003000
002020
7ffff0
018200
010100
023f80
1fc080
080080
040100
07ff80
040100
040100
07ff00
040100
040100
07ff00
040100
040100
040f00
040200
ENDCHAR
STARTCHAR 16-74
ENCODING 12394
SWIDTH 1010 0
DWIDTH 20 0
BBX 20 20 0 -3
BITMAP
060420
0407f0
042420
7ff440
080480
084480
0fe500
184480
184440
184420
2fc420
284410
284410
484430
0fc7e0
084440
084400
084400
0bc400
088400
ENDCHAR
STARTCHAR 16-75
ENCODING 12395
SWIDTH 1010 0
DWIDTH 20 0
BBX 20 20 0 -3
BITMAP
002640
3e3460
094680
089520
08a540
184480
10a520
11f7f0
3e9510
320480
328440
52fff0
128440
12c660
1ea2c0
129180
119320
0106a0
011c70
026020
ENDCHAR
STARTCHAR 16-76
ENCODING 12396
SWIDTH 1010 0
DWIDTH 20 0
BBX 20 20 0 -3
BITMAP
000000
000000
000000
000000
000000
000000
000000
000000
000020
7ffff0
000000
000000
000000
000000
000000
000000
000000
000000
000000
000000
ENDCHAR
STARTCHAR 16-77
ENCODING 12397
SWIDTH 1010 0
DWIDTH 20 0
BBX 20 20 0 -3
BITMAP
003000
002000
002020
7ffff0
002000
002080
1fffc0
000000
200020
3ffff0
600020
460440
040e80
041800
046000
078000
040080
040080
0600c0
03ff80
ENDCHAR
STARTCHAR 16-78
ENCODING 12398
SWIDTH 1010 0
DWIDTH 20 0
BBX 20 20 0 -3
BITMAP
104100
0821c0
042100
040220
41fff0
202100
102100
124080
1240c0
048060
050030
0a0020
088040
50ffe0
309240
109240
109240
109240
13fff0
100000
ENDCHAR
STARTCHAR 16-79
ENCODING 12399
SWIDTH 1010 0
DWIDTH 20 0
BBX 20 20 0 -3
BITMAP
001800
201100
103f80
082100
084200
008440
017fe0
084440
7c4440
084440
087fc0
081200
081200
082200
082220
084220
088230
1401e0
238000
407ff0
ENDCHAR
STARTCHAR 16-80
ENCODING 12400
SWIDTH 1010 0
DWIDTH 20 0
BBX 20 20 0 -3
BITMAP
020020
0f01f0
780f00
09f020
088830
0a4460
7f2240
082280
180080
1c6920
1a4ff0
394820
294820
284820
284fe0
484820
084820
084820
084fe0
084820
ENDCHAR
STARTCHAR 16-81
ENCODING 12401
SWIDTH 1010 0
DWIDTH 20 0
BBX 20 20 0 -3
BITMAP
030300
020220
7ffff0
020200
020200
003000
202000
102020
087ff0
084420
008440
010480
000400
010c00
020a00
041100
182180
7040c0
208070
030020
ENDCHAR
STARTCHAR 16-82
ENCODING 12402
SWIDTH 1010 0
DWIDTH 20 0
BBX 20 20 0 -3
BITMAP
018600
010400
010420
7ffff0
010400
010400
000080
1fffc0
002000
002000
002000
002020
7ffff0
002000
002000
002000
002000
002000
01e000
004000
ENDCHAR
STARTCHAR 16-83
ENCODING 12403
SWIDTH 1010 0
DWIDTH 20 0
BBX 20 20 0 -3
BITMAP
180820
127df0
1f0820
220820
2428a0
5f38e0
1528a0
152080
157df0
1f4510
150410
152490
151450
1f0410
111450
002cb0
554920
550820
5579e0
401040
ENDCHAR
STARTCHAR 16-84
ENCODING 12404
SWIDTH 1010 0
DWIDTH 20 0
BBX 20 20 0 -3
BITMAP
010000
018000
030200
020100
040080
040040
087fc0
7fc860
310840
010800
010800
010800
020800
020800
040800
040800
080820
080820
100c30
2007e0
ENDCHAR
STARTCHAR 16-85
ENCODING 12405
SWIDTH 1010 0
DWIDTH 20 0
BBX 20 20 0 -3
BITMAP
008000
01c000
261040
381fe0
201040
201040
201040
201040
211040
3f9040
201040
201040
201040
201040
201040
2113c0
3f9080
201000
201000
001000
ENDCHAR
STARTCHAR 16-86
ENCODING 12406
SWIDTH 1010 0
DWIDTH 20 0
BBX 20 20 0 -3
BITMAP
008020
00fff0
448020
7e8620
448420
448420
448520
44bfa0
448420
448420
448c20
448a20
448920
7c9120
4490a0
40a0a0
008020
008020
00ffe0
008020
ENDCHAR
STARTCHAR 16-87
ENCODING 12407
SWIDTH 1010 0
DWIDTH 20 0
BBX 20 20 0 -3
BITMAP
040100
07ff80
040100
040100
07ff00
040100
080080
0fffc0
080080
0fff80
080080
0fff80
080080
080080
0fff80
090080
038e00
060180
180060
600020
ENDCHAR
STARTCHAR 16-88
ENCODING 12408
SWIDTH 1010 0
DWIDTH 20 0
BBX 20 20 0 -3
BITMAP
200020
3ffff0
200020
203020
202020
202020
202120
2fffa0
202020
202020
205020
205020
208820
208420
210220
2203a0
2c0120
200020
3fffe0
200020
ENDCHAR
STARTCHAR 16-89
ENCODING 12409
SWIDTH 1010 0
DWIDTH 20 0
BBX 20 20 0 -3
BITMAP
0c4020
087ff0
084020
084620
0a4420
7f4420
124520
125fa0
124420
124420
124c20
144a20
344920
2c4920
2650a0
0950a0
096020
114020
207fe0
404020
ENDCHAR
STARTCHAR 16-90
ENCODING 12410
SWIDTH 1010 0
DWIDTH 20 0
BBX 20 20 0 -3
BITMAP
0040c0
3fe080
004080
004080
004080
104080
1fc080
104080
100080
100080
104080
3fe080
204080
004080
004080
004080
008080
008080
0f0080
020080
ENDCHAR
STARTCHAR 16-91
ENCODING 12411
SWIDTH 1010 0
DWIDTH 20 0
BBX 20 20 0 -3
BITMAP
060c00
040800
0a0800
090820
109ff0
169220
242240
5fa280
10c200
1f8200
108600
1f8500
108500
100500
120480
110880
118840
169060
789030
202020
ENDCHAR
STARTCHAR 16-92
ENCODING 12412
SWIDTH 1010 0
DWIDTH 20 0
BBX 20 20 0 -3
BITMAP
100080
0803e0
04fc00
040040
408860
204480
102480
122500
120240
0401e0
047f00
080400
080420
51fff0
300400
100400
100400
100440
10ffe0
100000
ENDCHAR
STARTCHAR 16-93
ENCODING 12413
SWIDTH 1010 0
DWIDTH 20 0
BBX 20 20 0 -3
BITMAP
0c20c0
083080
0a4080
094880
089c80
08a080
084880
088480
0bfe80
098280
080080
09fc80
090480
19fc80
110480
11fc80
1104a0
2104a0
213cb0
410860
ENDCHAR
STARTCHAR 16-94
ENCODING 12414
SWIDTH 1010 0
DWIDTH 20 0
BBX 20 20 0 -3
BITMAP
018600
010420
7ffff0
010400
220300
3f0200
220500
2408c0
283770
24c020
223fc0
230080
210100
217fe0
3f0000
22fff0
200880
201040
20ffe0
202020
ENDCHAR
STARTCHAR 17-01
ENCODING 12577
SWIDTH 1010 0
DWIDTH 20 0
BBX 20 20 0 -3
BITMAP
420600
7f0400
428420
44fff0
498020
490040
500080
48ffc0
440000
420000
420020
43fff0
462200
7c2200
486200
404200
404220
408220
410230
4601e0
ENDCHAR
STARTCHAR 17-02
ENCODING 12578
SWIDTH 1010 0
DWIDTH 20 0
BBX 20 20 0 -3
BITMAP
220600
3f0c00
220a00
241100
2420c0
284170
31bfa0
280000
243fc0
260080
220100
227fc0
220000
3efff0
241800
201080
202040
2043e0
21fc30
20c010
ENDCHAR
STARTCHAR 17-03
ENCODING 12579
SWIDTH 1010 0
DWIDTH 20 0
BBX 20 20 0 -3
BITMAP
220040
3f07e0
22fc40
244860
242480
282500
240040
227fe0
220040
217fc0
210040
217fc0
210840
3e0400
248640
20b020
212090
232090
2220c0
201f80
ENDCHAR
STARTCHAR 17-04
ENCODING 12580
SWIDTH 1010 0
DWIDTH 20 0
BBX 20 20 0 -3
BITMAP
060840
040fe0
048840
7fc840
210fc0
118840
121020
129ff0
7fd020
001fe0
211020
3f9fe0
211020
211fe0
3f1020
210480
210640
3f0860
211020
002020
ENDCHAR
STARTCHAR 17-05
ENCODING 12581
SWIDTH 1010 0
DWIDTH 20 0
BBX 20 20 0 -3
BITMAP
000180
220100
3f0100
220100
220120
22fff0
220100
220100
220100
226100
221100
221900
220900
220100
3e0100
220100
200100
000100
000f00
000200
ENDCHAR
STARTCHAR 17-06
ENCODING 12582
SWIDTH 1010 0
DWIDTH 20 0
BBX 20 20 0 -3
BITMAP
006000
004000
004000
004000
008020
7ffff0
010000
010000
020000
020000
040080
0bffc0
120080
620080
020080
020080
020080
020080
03ff80
020080
ENDCHAR
STARTCHAR 17-07
ENCODING 12583
SWIDTH 1010 0
DWIDTH 20 0
BBX 20 20 0 -3
BITMAP
003000
002000
202020
3ffff0
200020
600040
400280
07ff00
002000
002000
002000
002040
3fffe0
002000
002000
002000
002000
002000
01e000
004000
ENDCHAR
STARTCHAR 17-08
ENCODING 12584
SWIDTH 1010 0
DWIDTH 20 0
BBX 20 20 0 -3
BITMAP
002000
003000
024200
03ff00
020200
020200
020200
03fe00
020200
020040
03ffe0
020000
020020
03fff0
000820
144420
122260
211040
6103c0
400080
ENDCHAR
STARTCHAR 17-09
ENCODING 12585
SWIDTH 1010 0
DWIDTH 20 0
BBX 20 20 0 -3
BITMAP
008020
7fdff0
008020
008020
008020
208820
108420
088220
088220
018060
0280a0
048120
088220
108420
60b820
208820
008020
008020
0781e0
010040
ENDCHAR
STARTCHAR 17-10
ENCODING 12586
SWIDTH 1010 0
DWIDTH 20 0
BBX 20 20 0 -3
BITMAP
000000
200040
10ffe0
080400
080400
000400
000400
080420
7dfff0
080400
080400
080400
080400
080400
080400
081c00
080800
140000
238000
407ff0
ENDCHAR
STARTCHAR 17-11
ENCODING 12587
SWIDTH 1010 0
DWIDTH 20 0
BBX 20 20 0 -3
BITMAP
000020
7ffff0
002000
002000
202020
3ffff0
202020
282820
242420
222220
222220
202020
282820
242420
222220
222220
202020
202020
2021e0
202040
ENDCHAR
STARTCHAR 17-12
ENCODING 12588
SWIDTH 1010 0
DWIDTH 20 0
BBX 20 20 0 -3
BITMAP
004000
00e000
138820
1c0ff0
10c820
108820
108820
108820
108820
108820
108820
108820
178820
788820
2109e0
010840
020800
040800
080800
300800
ENDCHAR
STARTCHAR 17-13
ENCODING 12589
SWIDTH 1010 0
DWIDTH 20 0
BBX 20 20 0 -3
BITMAP
210200
118300
121440
049fe0
7fd040
049fc0
249040
3f9fc0
241040
449020
7fdff0
449000
0c9020
0c9ff0
178020
152aa0
242aa0
442860
0441c0
040080
ENDCHAR
STARTCHAR 17-14
ENCODING 12590
SWIDTH 1010 0
DWIDTH 20 0
BBX 20 20 0 -3
BITMAP
003000
202020
3ffff0
210840
4208a0
0c0830
7007e0
0c0000
081fc0
091040
7f9fc0
081040
089fc0
7fd040
081fc0
0c0500
120520
110920
211130
4060e0
ENDCHAR
STARTCHAR 17-15
ENCODING 12591
SWIDTH 1010 0
DWIDTH 20 0
BBX 20 20 0 -3
BITMAP
000000
000200
3fff00
008200
008200
008200
010200
010200
010220
7ffff0
020200
020200
020200
020200
040200
040200
040200
040220
7ffff0
000000
ENDCHAR
STARTCHAR 17-16
ENCODING 12592
SWIDTH 1010 0
DWIDTH 20 0
BBX 20 20 0 -3
BITMAP
000880
010cc0
7f8980
081900
081220
081ff0
083100
1f3100
115140
119fe0
311100
311100
511140
111fe0
111100
1f1100
111100
101120
001ff0
001000
ENDCHAR
STARTCHAR 17-17
ENCODING 12593
SWIDTH 1010 0
DWIDTH 20 0
BBX 20 20 0 -3
BITMAP
008000
01c000
130040
1c0fe0
100040
100040
100040
100040
100040
110040
1f8fc0
100040
100040
100040
100040
100040
100040
100040
1fffc0
100040
ENDCHAR
STARTCHAR 17-18
ENCODING 12594
SWIDTH 1010 0
DWIDTH 20 0
BBX 20 20 0 -3
BITMAP
102080
083fc0
042080
042480
002780
402480
202480
12a4a0
12fff0
048020
049120
049fa0
089120
589120
309120
109f20
109120
109020
1081e0
108040
ENDCHAR
STARTCHAR 17-19
ENCODING 12595
SWIDTH 1010 0
DWIDTH 20 0
BBX 20 20 0 -3
BITMAP
000600
440480
7e07c0
448420
44fff0
449020
449140
449f80
44f040
449060
448fc0
448000
7d8d80
454920
412930
022940
022980
040920
08fff0
000000
ENDCHAR
STARTCHAR 17-20
ENCODING 12596
SWIDTH 1010 0
DWIDTH 20 0
BBX 20 20 0 -3
BITMAP
004040
447fe0
7e4040
444040
444040
447fc0
444040
444040
444040
447fc0
444040
444040
444040
7c7fc0
444040
400000
003180
006060
008030
030010
ENDCHAR
STARTCHAR 17-21
ENCODING 12597
SWIDTH 1010 0
DWIDTH 20 0
BBX 20 20 0 -3
BITMAP
084880
7e33f0
18c8c0
2c01b0
4a4aa0
083080
004800
3fffe0
210420
3fffe0
000000
1fc060
104040
1fdff0
104040
1fc840
110440
108440
7f41c0
204080
ENDCHAR
STARTCHAR 17-22
ENCODING 12598
SWIDTH 1010 0
DWIDTH 20 0
BBX 20 20 0 -3
BITMAP
018600
010420
7ffff0
010400
010400
1020c0
1ff080
1020a0
102ff0
1fe080
100080
13e880
100480
17f280
108280
24c080
26a080
289080
539380
010100
ENDCHAR
STARTCHAR 17-23
ENCODING 12599
SWIDTH 1010 0
DWIDTH 20 0
BBX 20 20 0 -3
BITMAP
181040
121fe0
1f1040
121fc0
251040
3f9fc0
692020
293ff0
292920
3f2920
293fe0
290000
290020
3f7ff0
211040
000880
550500
550700
5518f0
40e020
ENDCHAR
STARTCHAR 17-24
ENCODING 12600
SWIDTH 1010 0
DWIDTH 20 0
BBX 20 20 0 -3
BITMAP
0c0600
080420
080430
083fe0
088440
7fc480
110500
110620
117ff0
110400
220800
221840
3230e0
4cd300
461c00
091000
091020
111020
201830
400fe0
ENDCHAR
STARTCHAR 17-25
ENCODING 12601
SWIDTH 1010 0
DWIDTH 20 0
BBX 20 20 0 -3
BITMAP
100020
1ffff0
100000
122440
13f7e0
122480
122480
13e480
122480
1224a0
13eff0
122100
1201c0
128180
124280
222280
22e4a0
2f24a0
4408b0
003060
ENDCHAR
STARTCHAR 17-26
ENCODING 12602
SWIDTH 1010 0
DWIDTH 20 0
BBX 20 20 0 -3
BITMAP
100680
080440
040440
040400
00fff0
420400
224420
127ff0
144420
044420
047fe0
084420
484420
304420
107fe0
104420
104420
104420
1045e0
104440
ENDCHAR
STARTCHAR 17-27
ENCODING 12603
SWIDTH 1010 0
DWIDTH 20 0
BBX 20 20 0 -3
BITMAP
000200
000f80
043800
07e200
042200
042200
042200
042200
042100
042100
042100
082100
082080
082880
082480
102240
103f40
27c160
220130
400020
ENDCHAR
STARTCHAR 17-28
ENCODING 12604
SWIDTH 1010 0
DWIDTH 20 0
BBX 20 20 0 -3
BITMAP
208820
3fcff0
208820
208820
3f8fe0
208820
208820
3f8fe0
208820
200420
23fe20
202020
202820
21fc20
202020
202220
27ff20
200020
2001e0
200040
ENDCHAR
STARTCHAR 17-29
ENCODING 12605
SWIDTH 1010 0
DWIDTH 20 0
BBX 20 20 0 -3
BITMAP
002100
441180
7e1200
45fff0
441200
449240
44ffe0
44a240
44c3c0
448040
44ffc0
448040
44ffc0
7c8140
440120
41fff0
004100
002100
002f00
000200
ENDCHAR
STARTCHAR 17-30
ENCODING 12606
SWIDTH 1010 0
DWIDTH 20 0
BBX 20 20 0 -3
BITMAP
000000
000100
0fff80
000000
000000
000000
000000
000020
7ffff0
00c000
008000
010000
010000
020600
020100
040080
083fc0
7fc060
300020
000020
ENDCHAR
STARTCHAR 17-31
ENCODING 12607
SWIDTH 1010 0
DWIDTH 20 0
BBX 20 20 0 -3
BITMAP
000000
208020
10fff0
098020
090640
000400
00ffe0
080400
7c7fc0
084440
087fc0
084440
087fc0
084440
080420
09fff0
080400
140400
238000
407ff0
ENDCHAR
STARTCHAR 17-32
ENCODING 12608
SWIDTH 1010 0
DWIDTH 20 0
BBX 20 20 0 -3
BITMAP
000080
0fffc0
202020
3ffff0
602020
4f27a0
002000
0f2780
002000
000080
1fffc0
000000
000020
7ffff0
030000
020200
040100
081f80
3fe040
180040
ENDCHAR
STARTCHAR 17-33
ENCODING 12609
SWIDTH 1010 0
DWIDTH 20 0
BBX 20 20 0 -3
BITMAP
018600
010420
7ffff0
010400
010400
040080
0603c0
0c0e00
087400
180400
1c0400
280420
29fff0
480400
080400
080400
080400
080440
08ffe0
080000
ENDCHAR
STARTCHAR 17-34
ENCODING 12610
SWIDTH 1010 0
DWIDTH 20 0
BBX 20 20 0 -3
BITMAP
060020
043ff0
0b0840
088840
184840
164fc0
240840
248840
5fc840
108fc0
1f8840
108840
108840
1f8870
100bc0
113c40
109040
13c040
7c4040
204040
ENDCHAR
STARTCHAR 17-35
ENCODING 12611
SWIDTH 1010 0
DWIDTH 20 0
BBX 20 20 0 -3
BITMAP
050000
078020
245ff0
3fe820
404820
5f8860
100840
1b0440
20c4c0
444480
0a0280
118300
20e100
5fc380
108280
1f84c0
108440
1f8860
109030
1fa020
ENDCHAR
STARTCHAR 17-36
ENCODING 12612
SWIDTH 1010 0
DWIDTH 20 0
BBX 20 20 0 -3
BITMAP
088100
044180
022200
222420
3ffff0
600020
440240
07ff00
040200
040200
07fe00
046200
004000
108080
1fffc0
100080
100080
100080
1fff80
100080
ENDCHAR
STARTCHAR 17-37
ENCODING 12613
SWIDTH 1010 0
DWIDTH 20 0
BBX 20 20 0 -3
BITMAP
208820
3fcff0
208820
3f8fe0
208820
3f8fe0
208820
3f8fe0
120480
190640
210820
405020
008000
7ffff0
010200
020400
07e800
041f00
01e1c0
3e0040
ENDCHAR
STARTCHAR 17-38
ENCODING 12614
SWIDTH 1010 0
DWIDTH 20 0
BBX 20 20 0 -3
BITMAP
104040
1fe060
1040c0
1fc180
104200
1fcc00
020020
022030
7ff060
000080
1fc100
104200
104c20
1fc030
020060
128040
1a4080
224100
4e4600
041800
ENDCHAR
STARTCHAR 17-39
ENCODING 12615
SWIDTH 1010 0
DWIDTH 20 0
BBX 20 20 0 -3
BITMAP
000600
000400
440400
7e4440
447fe0
444440
444440
444440
444440
7c4440
444440
45fff0
440a00
440a00
441100
7c1080
0020c0
004060
008030
030020
ENDCHAR
STARTCHAR 17-40
ENCODING 12616
SWIDTH 1010 0
DWIDTH 20 0
BBX 20 20 0 -3
BITMAP
003000
002000
102040
1fffe0
102040
102040
1fffc0
102040
102040
102040
1fffc0
101000
101080
0011c0
000b00
000420
001a20
0061a0
0380f0
7c0030
ENDCHAR
STARTCHAR 17-41
ENCODING 12617
SWIDTH 1010 0
DWIDTH 20 0
BBX 20 20 0 -3
BITMAP
084100
042180
022300
022200
200420
3ffff0
600020
403040
002000
002020
7ffff0
007000
006800
00a400
012200
022100
0420c0
182070
602020
002000
ENDCHAR
STARTCHAR 17-42
ENCODING 12618
SWIDTH 1010 0
DWIDTH 20 0
BBX 20 20 0 -3
BITMAP
01c000
003800
000c00
000400
002000
0ff000
002040
0020e0
00a180
3ff200
00b400
012800
012400
022200
022180
0420c0
082070
102020
61e000
004000
ENDCHAR
STARTCHAR 17-43
ENCODING 12619
SWIDTH 1010 0
DWIDTH 20 0
BBX 20 20 0 -3
BITMAP
103800
080700
040100
040000
000400
42fe20
220430
120460
141640
05fe80
041680
081500
482500
302480
104440
104460
108430
110420
103c00
100800
ENDCHAR
STARTCHAR 17-44
ENCODING 12620
SWIDTH 1010 0
DWIDTH 20 0
BBX 20 20 0 -3
BITMAP
100600
080400
048420
04fff0
408420
208420
12ffe0
128420
048420
048420
04ffe0
088420
480480
2802c0
300300
100200
100520
1018a0
106060
138030
ENDCHAR
STARTCHAR 17-45
ENCODING 12621
SWIDTH 1010 0
DWIDTH 20 0
BBX 20 20 0 -3
BITMAP
001980
041120
7efff0
101100
101100
100400
100400
104440
7c7fe0
104440
104440
104440
11fff0
140a00
180a00
701100
202080
0040c0
008070
030020
ENDCHAR
STARTCHAR 17-46
ENCODING 12622
SWIDTH 1010 0
DWIDTH 20 0
BBX 20 20 0 -3
BITMAP
000100
3fff80
040100
040120
0413f0
0ffa20
081020
132060
10c040
2333c0
4c1080
000000
080080
0fffc0
088880
088880
088880
0888a0
7ffff0
000000
ENDCHAR
STARTCHAR 17-47
ENCODING 12623
SWIDTH 1010 0
DWIDTH 20 0
BBX 20 20 0 -3
BITMAP
300020
213ff0
238300
3c0200
209440
20dfe0
1f9040
001040
011fc0
079040
3c1040
041fc0
049040
7fd040
0e1fc0
0d1040
148980
248c40
441020
046020
ENDCHAR
STARTCHAR 17-48
ENCODING 12624
SWIDTH 1010 0
DWIDTH 20 0
BBX 20 20 0 -3
BITMAP
300020
213ff0
238300
3c0200
209440
20dfe0
1f9040
001040
011fc0
3f9040
001040
009fc0
7fd040
041040
251fc0
349040
248980
448c40
1c1020
086020
ENDCHAR
STARTCHAR 17-49
ENCODING 12625
SWIDTH 1010 0
DWIDTH 20 0
BBX 20 20 0 -3
BITMAP
030300
020200
020220
7ffff0
020200
023200
002000
042100
07ff80
042100
042100
042100
042120
7ffff0
00d000
018800
030600
040380
1800f0
600020
ENDCHAR
STARTCHAR 17-50
ENCODING 12626
SWIDTH 1010 0
DWIDTH 20 0
BBX 20 20 0 -3
BITMAP
086040
0c41e0
084800
11fc00
108800
208800
4bfe20
0c01f0
19f840
110840
310840
31f840
502040
102040
11f840
10a040
10a040
13fc40
1021c0
102080
ENDCHAR
STARTCHAR 17-51
ENCODING 12627
SWIDTH 1010 0
DWIDTH 20 0
BBX 20 20 0 -3
BITMAP
083800
3c0700
000100
040000
7e0400
00fe20
080430
3c0460
001640
09fe80
3c1680
001500
442500
7e2480
444440
444460
448430
450420
7c3c00
440800
ENDCHAR
STARTCHAR 17-52
ENCODING 12628
SWIDTH 1010 0
DWIDTH 20 0
BBX 20 20 0 -3
BITMAP
0c2080
0810c0
140980
120900
214240
217fe0
404040
3f4040
084040
0a4040
7f7fc0
085240
0a1200
4b1200
2a1200
2c2200
092220
0e4220
788230
2101e0
ENDCHAR
STARTCHAR 17-53
ENCODING 12629
SWIDTH 1010 0
DWIDTH 20 0
BBX 20 20 0 -3
BITMAP
100600
080400
040420
05fff0
402200
223300
126220
1447f0
04c420
04ca20
094940
0a5540
506480
304280
304280
104100
104280
1044c0
104870
105020
ENDCHAR
STARTCHAR 17-54
ENCODING 12630
SWIDTH 1010 0
DWIDTH 20 0
BBX 20 20 0 -3
BITMAP
001800
081020
0ffff0
480000
284200
287f00
284200
084220
084220
188230
6b01e0
280100
0bff80
108100
104200
102400
201800
206700
4180f0
0e0020
ENDCHAR
STARTCHAR 17-55
ENCODING 12631
SWIDTH 1010 0
DWIDTH 20 0
BBX 20 20 0 -3
BITMAP
080200
040300
020600
020800
001020
7ffff0
008800
010400
020200
040100
0800c0
100070
600020
0fff80
088880
088880
088880
0888a0
7ffff0
000000
ENDCHAR
STARTCHAR 17-56
ENCODING 12632
SWIDTH 1010 0
DWIDTH 20 0
BBX 20 20 0 -3
BITMAP
204420
3fe7f0
220420
220420
228420
3fc420
220420
228420
3fc7e0
220520
220500
222500
3ff500
202c80
152880
552840
556840
505020
43d030
00a020
ENDCHAR
STARTCHAR 17-57
ENCODING 12633
SWIDTH 1010 0
DWIDTH 20 0
BBX 20 20 0 -3
BITMAP
0c2080
0810c0
080980
080900
284240
2c7fe0
2a4040
294040
694040
484040
087fc0
085240
081200
081200
081200
082200
082220
084220
088230
0b01e0
ENDCHAR
STARTCHAR 17-58
ENCODING 12634
SWIDTH 1010 0
DWIDTH 20 0
BBX 20 20 0 -3
BITMAP
042080
3e3fc0
002080
022080
7f3f80
002080
042080
3e3f80
001080
041020
3e3ff0
004020
00b420
3e2620
223820
222220
222360
221e40
3e01c0
220080
ENDCHAR
STARTCHAR 17-59
ENCODING 12635
SWIDTH 1010 0
DWIDTH 20 0
BBX 20 20 0 -3
BITMAP
060340
040220
050220
3fa200
043ff0
042200
04a220
7fe230
042220
042140
052140
37a580
2428a0
2431a0
24e260
344c30
2c3010
240000
238000
407ff0
ENDCHAR
STARTCHAR 17-60
ENCODING 12636
SWIDTH 1010 0
DWIDTH 20 0
BBX 20 20 0 -3
BITMAP
208820
3fcff0
208820
208820
3f8fe0
208820
208820
3f8fe0
200020
211020
209820
20a020
23fc20
220420
220420
23fc20
209020
211220
2212e0
2c0e40
ENDCHAR
STARTCHAR 17-61
ENCODING 12637
SWIDTH 1010 0
DWIDTH 20 0
BBX 20 20 0 -3
BITMAP
0c0020
08fff0
080c00
0a2840
7f3fe0
082040
083fc0
1c2040
1a3fc0
192040
193fc0
282040
281800
281040
483fe0
086080
099100
080e00
0831f0
09c020
ENDCHAR
STARTCHAR 17-62
ENCODING 12638
SWIDTH 1010 0
DWIDTH 20 0
BBX 20 20 0 -3
BITMAP
100020
1ffff0
100000
1421a0
17f110
142110
17e100
142120
17eff0
142100
100100
142300
17f280
142280
27e280
242440
27e440
242460
44e830
045020
ENDCHAR
STARTCHAR 17-63
ENCODING 12639
SWIDTH 1010 0
DWIDTH 20 0
BBX 20 20 0 -3
BITMAP
200020
3ffff0
202020
202020
202020
202020
202020
202020
202020
202020
3fffe0
200020
200020
200020
200020
200020
200020
200020
2001e0
200040
ENDCHAR
STARTCHAR 17-64
ENCODING 12640
SWIDTH 1010 0
DWIDTH 20 0
BBX 20 20 0 -3
BITMAP
200020
3ffff0
202020
202420
23fe20
202020
2fffa0
200020
23fe20
220220
220220
23fea0
2060e0
20b920
212620
222120
2c2120
202020
3fffe0
200020
ENDCHAR
STARTCHAR 17-65
ENCODING 12641
SWIDTH 1010 0
DWIDTH 20 0
BBX 20 20 0 -3
BITMAP
190020
11fff0
110000
113fc0
112040
153fc0
7f2040
113fc0
110800
110840
117fe0
111080
113d00
1d2300
710cc0
217040
010000
010020
01fff0
010000
ENDCHAR
STARTCHAR 17-66
ENCODING 12642
SWIDTH 1010 0
DWIDTH 20 0
BBX 20 20 0 -3
BITMAP
006000
004000
008020
7ffff0
010800
020400
043200
082180
1ffff0
6820a0
082080
0fff80
082080
082080
0fff80
082080
002020
002020
002030
001fe0
ENDCHAR
STARTCHAR 17-67
ENCODING 12643
SWIDTH 1010 0
DWIDTH 20 0
BBX 20 20 0 -3
BITMAP
003000
202020
3ffff0
600020
440140
07ff80
040100
07ff00
040100
07ff00
04c100
008020
7ffff0
010200
020400
078800
047000
008f00
0301c0
3c0040
ENDCHAR
STARTCHAR 17-68
ENCODING 12644
SWIDTH 1010 0
DWIDTH 20 0
BBX 20 20 0 -3
BITMAP
040040
7e01e0
040f00
047200
080200
080200
123200
1f2240
2223e0
222200
022200
042200
442200
242200
182220
08fff0
140000
130000
20e000
401ff0
ENDCHAR
STARTCHAR 17-69
ENCODING 12645
SWIDTH 1010 0
DWIDTH 20 0
BBX 20 20 0 -3
BITMAP
0c0840
088fe0
0fc840
108840
108840
208bc0
590880
050800
020820
020820
040830
1847e0
602000
001000
0990c0
090020
110210
610210
410300
00fe00
ENDCHAR
STARTCHAR 17-70
ENCODING 12646
SWIDTH 1010 0
DWIDTH 20 0
BBX 20 20 0 -3
BITMAP
0c0c00
080800
080820
09fff0
081200
7e1100
0824c0
084470
08ffe0
094440
084440
0e7fc0
784440
284440
087fc0
084440
080400
080420
380430
1003e0
ENDCHAR
STARTCHAR 17-71
ENCODING 12647
SWIDTH 1010 0
DWIDTH 20 0
BBX 20 20 0 -3
BITMAP
0c0040
0803e0
08fc80
0848c0
082500
7e2500
08ffe0
080800
080820
09fff0
081000
0e1080
783fc0
282080
085100
088a00
090400
0a0b80
3830f0
10c020
ENDCHAR
STARTCHAR 17-72
ENCODING 12648
SWIDTH 1010 0
DWIDTH 20 0
BBX 20 20 0 -3
BITMAP
103200
082200
042200
042100
406100
224100
124080
148080
048040
050060
090030
0a7fa0
584080
304080
304080
104080
104080
104080
107f80
104080
ENDCHAR
STARTCHAR 17-73
ENCODING 12649
SWIDTH 1010 0
DWIDTH 20 0
BBX 20 20 0 -3
BITMAP
100600
080400
048420
04fff0
418020
210140
103f80
140400
044440
047fe0
084440
084440
587fc0
304440
104440
107fc0
101000
1019c0
106030
118010
ENDCHAR
STARTCHAR 17-74
ENCODING 12650
SWIDTH 1010 0
DWIDTH 20 0
BBX 20 20 0 -3
BITMAP
003000
042080
0421c0
082300
306400
20d800
018600
020180
0c00c0
703040
002000
042080
0460c0
085180
70d200
408800
010600
020180
0c00f0
700020
ENDCHAR
STARTCHAR 17-75
ENCODING 12651
SWIDTH 1010 0
DWIDTH 20 0
BBX 20 20 0 -3
BITMAP
0c0600
080420
080ff0
080860
291040
29a080
2a4100
2a0200
6c6820
484ff0
084820
084820
144820
124fe0
124820
114820
214820
204820
204fe0
404820
ENDCHAR
STARTCHAR 17-76
ENCODING 12652
SWIDTH 1010 0
DWIDTH 20 0
BBX 20 20 0 -3
BITMAP
0c0020
08fff0
080900
080900
2a4920
2b7ff0
2a4920
2c4920
684920
487fe0
084620
080400
140400
120440
127fe0
110400
210400
200420
20fff0
400000
ENDCHAR
STARTCHAR 17-77
ENCODING 12653
SWIDTH 1010 0
DWIDTH 20 0
BBX 20 20 0 -3
BITMAP
018600
010420
7ffff0
010400
010400
01fc00
060180
048920
7cfd30
048940
048980
0c8920
748920
24f930
0488e0
000000
110840
108420
604210
404210
ENDCHAR
STARTCHAR 17-78
ENCODING 12654
SWIDTH 1010 0
DWIDTH 20 0
BBX 20 20 0 -3
BITMAP
020600
430440
227fe0
140400
080420
08fff0
140000
244040
447fe0
0a4040
0a4040
127fc0
121a00
223220
426130
03a140
062080
043cc0
3de070
088020
ENDCHAR
STARTCHAR 17-79
ENCODING 12655
SWIDTH 1010 0
DWIDTH 20 0
BBX 20 20 0 -3
BITMAP
040040
063fe0
080040
500040
223fc0
130040
140040
08fff0
120900
211520
7f2530
294d40
089280
2c2680
2aca40
2a1260
2a2230
48c620
081c00
080800
ENDCHAR
STARTCHAR 17-80
ENCODING 12656
SWIDTH 1010 0
DWIDTH 20 0
BBX 20 20 0 -3
BITMAP
0a0300
2a8240
3fc7e0
2a8440
3f8880
2a9100
3fafe0
000920
7fc920
000920
3f8920
208fe0
208820
3f8800
110800
098800
0a0820
03c820
7e0830
1007e0
ENDCHAR
STARTCHAR 17-81
ENCODING 12657
SWIDTH 1010 0
DWIDTH 20 0
BBX 20 20 0 -3
BITMAP
018600
010400
010420
7ffff0
010400
010400
0c0000
089040
0fdfe0
109040
109040
209040
511040
0913c0
0a1080
021000
041020
081020
101830
600fe0
ENDCHAR
STARTCHAR 17-82
ENCODING 12658
SWIDTH 1010 0
DWIDTH 20 0
BBX 20 20 0 -3
BITMAP
010420
7ffff0
010400
200020
3ffff0
202020
23fe20
202020
27ff20
200020
23fe20
220220
23fe20
207120
20aba0
232420
2c2420
202020
3fffe0
200020
ENDCHAR
STARTCHAR 17-83
ENCODING 12659
SWIDTH 1010 0
DWIDTH 20 0
BBX 20 20 0 -3
BITMAP
000600
200440
10ffe0
080400
080420
01fff0
000000
087fc0
7c4040
084040
087fc0
080c20
081430
082740
08c480
0b0460
080420
140400
238000
407ff0
ENDCHAR
STARTCHAR 17-84
ENCODING 12660
SWIDTH 1010 0
DWIDTH 20 0
BBX 20 20 0 -3
BITMAP
0c0d00
080900
140900
120880
211080
211040
421060
3f2030
084020
090000
7f9040
081fe0
4a1040
2b1040
2a1040
2c1040
099040
0e1040
781fc0
201040
ENDCHAR
STARTCHAR 17-85
ENCODING 12661
SWIDTH 1010 0
DWIDTH 20 0
BBX 20 20 0 -3
BITMAP
060880
044fc0
0fe880
104ba0
288920
450830
0267e0
0c8000
77ff00
040100
07ff00
040100
07ff00
040000
07ff80
040020
17fff0
124820
6125e0
412440
ENDCHAR
STARTCHAR 17-86
ENCODING 12662
SWIDTH 1010 0
DWIDTH 20 0
BBX 20 20 0 -3
BITMAP
183000
102000
102040
107fe0
144000
7ea080
10bfc0
112080
102080
103f80
102080
108040
16ffe0
789240
209240
009240
009240
009240
03fff0
000000
ENDCHAR
STARTCHAR 17-87
ENCODING 12663
SWIDTH 1010 0
DWIDTH 20 0
BBX 20 20 0 -3
BITMAP
060300
040200
040200
048500
7fc500
040880
040880
048840
0fd060
089030
08a620
08c100
088080
188080
108c00
108200
118100
210080
2f0040
420040
ENDCHAR
STARTCHAR 17-88
ENCODING 12664
SWIDTH 1010 0
DWIDTH 20 0
BBX 20 20 0 -3
BITMAP
100040
087fe0
040400
040400
000800
420820
22fff0
121000
141000
042040
043fe0
084040
484040
300040
100040
1000c0
100080
100180
100f00
100200
ENDCHAR
STARTCHAR 17-89
ENCODING 12665
SWIDTH 1010 0
DWIDTH 20 0
BBX 20 20 0 -3
BITMAP
062020
043ff0
342220
242220
253fe0
3fa220
242220
242220
443fe0
052020
3f8600
040420
047ff0
040420
040820
058820
061060
782040
20c3c0
030080
ENDCHAR
STARTCHAR 17-90
ENCODING 12666
SWIDTH 1010 0
DWIDTH 20 0
BBX 20 20 0 -3
BITMAP
000000
210420
3f87f0
210420
210420
210420
210420
210420
210420
21fc20
210420
200020
200020
200020
200020
200020
3fffe0
200020
200000
000000
ENDCHAR
STARTCHAR 17-91
ENCODING 12667
SWIDTH 1010 0
DWIDTH 20 0
BBX 20 20 0 -3
BITMAP
003000
002000
002000
042100
07ff80
042100
042100
042100
042100
042100
042120
7ffff0
005000
009000
008800
010400
020300
0401c0
180070
600020
ENDCHAR
STARTCHAR 17-92
ENCODING 12668
SWIDTH 1010 0
DWIDTH 20 0
BBX 20 20 0 -3
BITMAP
004000
006000
108040
1fffe0
100040
123440
112640
112840
17fe40
107040
10a840
112440
162440
104040
104040
7ffff0
008800
030700
0c00f0
700020
ENDCHAR
STARTCHAR 17-93
ENCODING 12669
SWIDTH 1010 0
DWIDTH 20 0
BBX 20 20 0 -3
BITMAP
040800
060400
0c0200
080200
100040
20ffe0
440400
060400
0c0400
080400
180480
287fc0
480400
080400
080400
080400
080400
080420
09fff0
080000
ENDCHAR
STARTCHAR 17-94
ENCODING 12670
SWIDTH 1010 0
DWIDTH 20 0
BBX 20 20 0 -3
BITMAP
001800
001000
081020
0ffff0
080000
080000
081800
080600
080300
080100
083000
082000
08a0c0
18a020
112030
112010
262080
242080
4030c0
001f80
ENDCHAR
STARTCHAR 18-01
ENCODING 12833
SWIDTH 1010 0
DWIDTH 20 0
BBX 20 20 0 -3
BITMAP
062020
043ff0
042220
042220
052220
7fa220
043fe0
042220
042220
05a220
062220
1c3fe0
742220
240200
040200
040200
040200
040200
3c0200
080200
ENDCHAR
STARTCHAR 18-02
ENCODING 12834
SWIDTH 1010 0
DWIDTH 20 0
BBX 20 20 0 -3
BITMAP
000040
44ffe0
7e0400
440400
440400
440400
440400
440400
7c0480
447fc0
440400
440400
440400
440400
7c0400
440400
400400
000420
01fff0
000000
ENDCHAR
STARTCHAR 18-03
ENCODING 12835
SWIDTH 1010 0
DWIDTH 20 0
BBX 20 20 0 -3
BITMAP
0c1980
081140
08ffe0
081100
7e1120
09fff0
180400
1c4440
1a7fe0
1a4440
2a4440
287fc0
284440
484440
087fc0
084040
081000
0839c0
086030
098010
ENDCHAR
STARTCHAR 18-04
ENCODING 12836
SWIDTH 1010 0
DWIDTH 20 0
BBX 20 20 0 -3
BITMAP
000c00
408800
7fc800
400820
411ff0
419220
412240
592280
464200
420200
450200
448600
488500
500500
600880
408880
7fd040
401060
002030
00c020
ENDCHAR
STARTCHAR 18-05
ENCODING 12837
SWIDTH 1010 0
DWIDTH 20 0
BBX 20 20 0 -3
BITMAP
000880
408fc0
7fc880
400880
4108a0
4190a0
4110b0
592060
464000
420040
453fe0
448840
488880
500480
600500
408200
7fc500
4008c0
003070
00c020
ENDCHAR
STARTCHAR 18-06
ENCODING 12838
SWIDTH 1010 0
DWIDTH 20 0
BBX 20 20 0 -3
BITMAP
000000
000040
3fffe0
002000
002000
002000
002000
002000
002000
002100
0fff80
002000
002000
002000
002000
002000
002000
002020
7ffff0
000000
ENDCHAR
STARTCHAR 18-07
ENCODING 12839
SWIDTH 1010 0
DWIDTH 20 0
BBX 20 20 0 -3
BITMAP
010800
018400
020200
048180
18c0f0
618420
010200
023f00
1fc100
0c0100
008020
7fdff0
008020
308c20
088220
0280a0
0c8320
709c20
2789e0
010040
ENDCHAR
STARTCHAR 18-08
ENCODING 12840
SWIDTH 1010 0
DWIDTH 20 0
BBX 20 20 0 -3
BITMAP
0c0400
080600
084c40
0a7fe0
7f4040
0264c0
065540
044440
087fc0
0a4e40
1b7540
2c4540
4a4840
0a0820
0afff0
081200
081100
0820c0
084070
098020
ENDCHAR
STARTCHAR 18-09
ENCODING 12841
SWIDTH 1010 0
DWIDTH 20 0
BBX 20 20 0 -3
BITMAP
044200
022300
022400
200820
3ffff0
60c020
448240
07ff00
040200
07fe00
040200
07fe00
040000
07ff00
040020
07fff0
100020
149060
624bc0
424880
ENDCHAR
STARTCHAR 18-10
ENCODING 12842
SWIDTH 1010 0
DWIDTH 20 0
BBX 20 20 0 -3
BITMAP
000400
410600
7fa880
403fc0
422080
433f80
522080
4a3f80
442080
442020
4a3ff0
4a2000
522020
603ff0
410020
7faaa0
402aa0
006860
0043c0
000080
ENDCHAR
STARTCHAR 18-11
ENCODING 12843
SWIDTH 1010 0
DWIDTH 20 0
BBX 20 20 0 -3
BITMAP
018600
010400
010480
1fffc0
010400
010420
7ffff0
002000
042100
07ff80
042100
07ff00
042100
042100
07ff00
050100
018e00
030180
0400c0
180040
ENDCHAR
STARTCHAR 18-12
ENCODING 12844
SWIDTH 1010 0
DWIDTH 20 0
BBX 20 20 0 -3
BITMAP
200020
3ffff0
200020
220420
210620
208820
209220
27ff20
202020
202020
232320
222220
222220
222220
222220
23fe20
220220
200020
2001e0
200040
ENDCHAR
STARTCHAR 18-13
ENCODING 12845
SWIDTH 1010 0
DWIDTH 20 0
BBX 20 20 0 -3
BITMAP
100600
080400
040400
040400
008420
42fff0
228420
128420
148420
048420
048420
088420
48ffe0
308420
100400
100400
100400
100400
100400
100400
ENDCHAR
STARTCHAR 18-14
ENCODING 12846
SWIDTH 1010 0
DWIDTH 20 0
BBX 20 20 0 -3
BITMAP
018600
010420
7ffff0
010400
010400
000000
010300
318200
0a1220
041230
0a1240
313280
032500
050500
090c80
110880
611040
031060
1e2030
04c020
ENDCHAR
STARTCHAR 18-15
ENCODING 12847
SWIDTH 1010 0
DWIDTH 20 0
BBX 20 20 0 -3
BITMAP
060600
040400
040440
0cffe0
082100
181180
181220
29fff0
280000
487fc0
084040
087fc0
084040
087fc0
084040
080800
08a460
08a510
0b2190
0a1f00
ENDCHAR
STARTCHAR 18-16
ENCODING 12848
SWIDTH 1010 0
DWIDTH 20 0
BBX 20 20 0 -3
BITMAP
080040
0fffe0
080040
080040
0fffc0
080000
080040
0fffe0
086000
084100
084080
0887c0
0bf860
198c20
100800
13ffe0
100800
200820
27fff0
400000
ENDCHAR
STARTCHAR 18-17
ENCODING 12849
SWIDTH 1010 0
DWIDTH 20 0
BBX 20 20 0 -3
BITMAP
0c0600
080400
080440
28ffe0
2c2100
2a1180
6a1220
49fff0
480000
087fc0
084040
087fc0
084040
087fc0
084040
080800
08a460
08a510
0b2190
0a1f00
ENDCHAR
STARTCHAR 18-18
ENCODING 12850
SWIDTH 1010 0
DWIDTH 20 0
BBX 20 20 0 -3
BITMAP
120600
1f0400
120440
12ffe0
122100
121180
1e1220
13fff0
120000
127fc0
124040
127fc0
1e4040
127fc0
124040
220400
225260
225290
2ed0d0
448f80
ENDCHAR
STARTCHAR 18-19
ENCODING 12851
SWIDTH 1010 0
DWIDTH 20 0
BBX 20 20 0 -3
BITMAP
060040
043fe0
040040
050080
7f8900
040600
0c2220
0e3ff0
0d2220
0d2220
14bfe0
14a220
242220
242220
443fe0
042220
042220
042220
0422e0
042240
ENDCHAR
STARTCHAR 18-20
ENCODING 12852
SWIDTH 1010 0
DWIDTH 20 0
BBX 20 20 0 -3
BITMAP
060600
040400
340400
240400
250400
3f8400
240440
447fe0
440400
040400
040400
058400
060400
0c0400
740400
240400
040400
040420
04fff0
040000
ENDCHAR
STARTCHAR 18-21
ENCODING 12853
SWIDTH 1010 0
DWIDTH 20 0
BBX 20 20 0 -3
BITMAP
000200
3fff00
000c00
001800
003000
004000
008000
010000
020000
040000
080000
100000
200000
200000
400000
400020
600020
380030
0fffe0
000000
ENDCHAR
STARTCHAR 18-22
ENCODING 12854
SWIDTH 1010 0
DWIDTH 20 0
BBX 20 20 0 -3
BITMAP
060c00
040800
040820
0dfff0
081200
182100
184cc0
188870
2bffa0
288880
488880
08ff80
088880
088880
08ff80
088880
080800
080820
080830
0807e0
ENDCHAR
STARTCHAR 18-23
ENCODING 12855
SWIDTH 1010 0
DWIDTH 20 0
BBX 20 20 0 -3
BITMAP
0c0420
0807f0
184420
1fe420
220420
420420
024420
7fe420
020420
020420
1a4420
13e420
120420
120420
1205e0
12e440
170400
780400
200400
000400
ENDCHAR
STARTCHAR 18-24
ENCODING 12856
SWIDTH 1010 0
DWIDTH 20 0
BBX 20 20 0 -3
BITMAP
080080
0fffc0
080080
083080
082480
0bfe80
085080
084880
088480
0b0480
080080
0fff80
082080
001000
018840
110820
110110
610110
418180
00ff00
ENDCHAR
STARTCHAR 18-25
ENCODING 12857
SWIDTH 1010 0
DWIDTH 20 0
BBX 20 20 0 -3
BITMAP
104080
087fc0
044080
044080
007f80
424080
224080
127f80
144080
040000
048040
08ffe0
489240
309240
109240
109240
109240
109240
13fff0
100000
ENDCHAR
STARTCHAR 18-26
ENCODING 12858
SWIDTH 1010 0
DWIDTH 20 0
BBX 20 20 0 -3
BITMAP
020040
0f07e0
78fc40
084860
082480
0a2500
7f0040
087fe0
080040
187fc0
1c0040
1a7fc0
190840
290400
280240
28b220
48a090
0b2090
0a20c0
081f80
ENDCHAR
STARTCHAR 18-27
ENCODING 12859
SWIDTH 1010 0
DWIDTH 20 0
BBX 20 20 0 -3
BITMAP
003000
002000
002040
3fffe0
040200
020300
010200
010420
7ffff0
000000
040100
07ff80
040100
040100
07ff00
040100
040100
040100
07ff00
040100
ENDCHAR
STARTCHAR 18-28
ENCODING 12860
SWIDTH 1010 0
DWIDTH 20 0
BBX 20 20 0 -3
BITMAP
000000
000020
7ffff0
002000
002000
002000
002000
003000
002c00
002200
002300
002100
002000
002000
002000
002000
002000
002000
002000
002000
ENDCHAR
STARTCHAR 18-29
ENCODING 12861
SWIDTH 1010 0
DWIDTH 20 0
BBX 20 20 0 -3
BITMAP
018c00
010800
030800
020800
060800
040840
0c08e0
0c0980
140a00
240c00
440800
040800
040800
040800
040800
040800
040820
040820
040c30
0407e0
ENDCHAR
STARTCHAR 18-30
ENCODING 12862
SWIDTH 1010 0
DWIDTH 20 0
BBX 20 20 0 -3
BITMAP
060000
044020
047ff0
0c4000
084000
084000
184040
187fe0
285040
285040
48d080
088880
088900
088500
090600
090600
0a0900
0c10c0
086070
098020
ENDCHAR
STARTCHAR 18-31
ENCODING 12863
SWIDTH 1010 0
DWIDTH 20 0
BBX 20 20 0 -3
BITMAP
060000
040020
04fff0
0c0040
080040
084440
187e40
184440
284440
284440
484440
084440
087c40
084440
084040
080040
080040
080040
0803c0
080080
ENDCHAR
STARTCHAR 18-32
ENCODING 12864
SWIDTH 1010 0
DWIDTH 20 0
BBX 20 20 0 -3
BITMAP
066000
044000
044220
0c43f0
084a20
0bfe20
184a20
184a20
284a20
284a20
484a20
084a20
084a20
08ca20
088a20
088a20
088a20
0913e0
097220
0a2200
ENDCHAR
STARTCHAR 18-33
ENCODING 12865
SWIDTH 1010 0
DWIDTH 20 0
BBX 20 20 0 -3
BITMAP
060000
040020
05fff0
0c1200
081200
081200
189240
18ffe0
289240
289240
489240
089240
089240
089240
089240
089240
089240
089240
08ffc0
088040
ENDCHAR
STARTCHAR 18-34
ENCODING 12866
SWIDTH 1010 0
DWIDTH 20 0
BBX 20 20 0 -3
BITMAP
060600
040400
040400
0c0440
087fe0
080400
180400
180400
280420
29fff0
480000
080600
080400
080440
087fe0
080400
080400
080400
080420
09fff0
ENDCHAR
STARTCHAR 18-35
ENCODING 12867
SWIDTH 1010 0
DWIDTH 20 0
BBX 20 20 0 -3
BITMAP
060000
040000
040420
0407f0
044420
7fe420
044420
044420
044420
044420
044420
0c4420
084420
084420
084420
104420
10c420
2087e0
278420
410400
ENDCHAR
STARTCHAR 18-36
ENCODING 12868
SWIDTH 1010 0
DWIDTH 20 0
BBX 20 20 0 -3
BITMAP
000020
7ffff0
000080
000080
000080
082080
0ff080
082080
082080
082080
082080
082080
0fe080
082080
080080
000080
000080
000080
000780
000100
ENDCHAR
STARTCHAR 18-37
ENCODING 12869
SWIDTH 1010 0
DWIDTH 20 0
BBX 20 20 0 -3
BITMAP
003000
002020
7ffff0
002000
1fffc0
000000
0fff80
080080
0fff80
020400
010600
010820
7ffff0
020000
020840
3fcfe0
044840
084840
13cfc0
608840
ENDCHAR
STARTCHAR 18-38
ENCODING 12870
SWIDTH 1010 0
DWIDTH 20 0
BBX 20 20 0 -3
BITMAP
000020
7ffff0
006000
044100
07ff80
040100
07ff00
040100
07ff00
040100
07ff00
058100
010200
03ff00
050400
188800
607000
00ce00
0703e0
380080
ENDCHAR
STARTCHAR 18-39
ENCODING 12871
SWIDTH 1010 0
DWIDTH 20 0
BBX 20 20 0 -3
BITMAP
0c0300
080200
082220
083ff0
126020
7f40a0
123fc0
120500
220920
221530
2464a0
4406c0
740a80
483240
04c640
0a0a60
123230
10c220
200e00
400400
ENDCHAR
STARTCHAR 18-40
ENCODING 12872
SWIDTH 1010 0
DWIDTH 20 0
BBX 20 20 0 -3
BITMAP
003000
002000
202020
3ffff0
600020
400240
0fff00
00c800
018820
064870
1824c0
007500
019200
061200
387100
00d180
0310c0
0c1060
70f040
002000
ENDCHAR
STARTCHAR 18-41
ENCODING 12873
SWIDTH 1010 0
DWIDTH 20 0
BBX 20 20 0 -3
BITMAP
003000
202020
3ffff0
600020
4fffa0
004000
07ff00
040100
07ff00
040100
07ff00
040120
7ffff0
020400
040300
0ffec0
104270
608220
031e00
1c0400
ENDCHAR
STARTCHAR 18-42
ENCODING 12874
SWIDTH 1010 0
DWIDTH 20 0
BBX 20 20 0 -3
BITMAP
0100c0
078080
3c1880
040480
040480
048080
7fc080
040080
0c3080
0e0880
0d0880
158080
1480a0
1480f0
240f80
447080
040080
040080
040080
040080
ENDCHAR
STARTCHAR 18-43
ENCODING 12875
SWIDTH 1010 0
DWIDTH 20 0
BBX 20 20 0 -3
BITMAP
011020
49fbf0
7d1020
491020
491020
491020
49f3e0
491020
790000
490020
49f7f0
490220
490220
490140
492140
79f080
4901c0
010260
010c30
013020
ENDCHAR
STARTCHAR 18-44
ENCODING 12876
SWIDTH 1010 0
DWIDTH 20 0
BBX 20 20 0 -3
BITMAP
080080
0fffc0
082080
082080
082080
0fff80
082080
082080
082080
0fff80
082080
002020
7ffff0
00e800
01a400
032300
0421c0
182070
602020
002000
ENDCHAR
STARTCHAR 18-45
ENCODING 12877
SWIDTH 1010 0
DWIDTH 20 0
BBX 20 20 0 -3
BITMAP
060000
040420
0447f0
7fe420
044420
044420
084420
084420
1087e0
238420
410000
003000
002020
7ffff0
00e800
01a600
062180
1820f0
602020
002000
ENDCHAR
STARTCHAR 18-46
ENCODING 12878
SWIDTH 1010 0
DWIDTH 20 0
BBX 20 20 0 -3
BITMAP
008c00
7fc800
010800
3d0820
251ff0
3d1220
253240
012280
074200
028200
7fc600
010500
3d0500
250500
250880
3d0880
251040
011060
072030
024020
ENDCHAR
STARTCHAR 18-47
ENCODING 12879
SWIDTH 1010 0
DWIDTH 20 0
BBX 20 20 0 -3
BITMAP
100000
080020
04fff0
040080
000080
424480
227e80
124480
144480
044480
044480
484480
287c80
384480
104080
100080
100080
100080
100780
100100
ENDCHAR
STARTCHAR 18-48
ENCODING 12880
SWIDTH 1010 0
DWIDTH 20 0
BBX 20 20 0 -3
BITMAP
003000
002000
002000
002000
002000
042040
042060
0420c0
042080
086100
185100
30d200
208800
010800
010400
020200
040300
0801c0
100070
600020
ENDCHAR
STARTCHAR 18-49
ENCODING 12881
SWIDTH 1010 0
DWIDTH 20 0
BBX 20 20 0 -3
BITMAP
000000
020020
7f7ff0
080040
080040
082240
083f40
0a2240
7f2240
082240
082240
083e40
082240
082040
0f0040
780040
200040
000040
0003c0
000080
ENDCHAR
STARTCHAR 18-50
ENCODING 12882
SWIDTH 1010 0
DWIDTH 20 0
BBX 20 20 0 -3
BITMAP
0c2080
083fc0
082080
0a2080
7f2480
022780
022480
042480
04a4a0
08fff0
0c8020
1a9120
2a9fa0
4a9120
089120
089f20
089120
089020
0881e0
088040
ENDCHAR
STARTCHAR 18-51
ENCODING 12883
SWIDTH 1010 0
DWIDTH 20 0
BBX 20 20 0 -3
BITMAP
000300
001f80
0ff000
002000
002000
002000
002000
002020
7ffff0
007000
006800
00a400
012200
022100
0420c0
082070
102020
602000
002000
002000
ENDCHAR
STARTCHAR 18-52
ENCODING 12884
SWIDTH 1010 0
DWIDTH 20 0
BBX 20 20 0 -3
BITMAP
020300
0f0200
784220
087ff0
08c020
0a80a0
7f3fc0
080500
180920
1c1530
1a64a0
1906c0
290a80
283240
28c640
480a60
083230
08c220
080e00
080400
ENDCHAR
STARTCHAR 18-53
ENCODING 12885
SWIDTH 1010 0
DWIDTH 20 0
BBX 20 20 0 -3
BITMAP
0c0600
088420
1fcff0
241200
422100
120140
1fffe0
100040
103040
102240
17ff40
102040
11fc40
110440
110440
11fc40
110440
100040
1fffc0
100040
ENDCHAR
STARTCHAR 18-54
ENCODING 12886
SWIDTH 1010 0
DWIDTH 20 0
BBX 20 20 0 -3
BITMAP
018600
010400
010420
7ffff0
010400
010400
000000
031800
021000
061040
0410e0
0c1180
141200
241c00
441000
041000
041020
041020
041830
040fe0
ENDCHAR
STARTCHAR 18-55
ENCODING 12887
SWIDTH 1010 0
DWIDTH 20 0
BBX 20 20 0 -3
BITMAP
030600
020400
020420
7ffff0
020400
020400
000020
7ffff0
000100
082100
0ff100
082100
082100
082100
0fe100
082100
080100
000100
000f00
000200
ENDCHAR
STARTCHAR 18-56
ENCODING 12888
SWIDTH 1010 0
DWIDTH 20 0
BBX 20 20 0 -3
BITMAP
018600
010400
010420
7ffff0
010400
010400
040000
040420
0447f0
7fe420
044420
044420
044420
0c4420
084420
084420
10c420
108420
2787e0
410420
ENDCHAR
STARTCHAR 18-57
ENCODING 12889
SWIDTH 1010 0
DWIDTH 20 0
BBX 20 20 0 -3
BITMAP
018600
010400
010420
7ffff0
010400
010400
0c0000
080020
09fff0
180080
108880
30fc80
308880
508880
108880
10f880
108880
100080
100780
100100
ENDCHAR
STARTCHAR 18-58
ENCODING 12890
SWIDTH 1010 0
DWIDTH 20 0
BBX 20 20 0 -3
BITMAP
018600
010420
7ffff0
010400
010400
000040
3fffe0
042100
042120
7ffff0
042100
042140
3fffe0
002000
002040
3fffe0
002000
002000
002000
002000
ENDCHAR
STARTCHAR 18-59
ENCODING 12891
SWIDTH 1010 0
DWIDTH 20 0
BBX 20 20 0 -3
BITMAP
018600
010420
7ffff0
010400
010400
040100
07ff80
042100
07ff00
042100
07ff00
042100
002020
7ffff0
007000
00ac00
032380
0c20f0
702020
002000
ENDCHAR
STARTCHAR 18-60
ENCODING 12892
SWIDTH 1010 0
DWIDTH 20 0
BBX 20 20 0 -3
BITMAP
189020
10fbf0
109020
549020
7e9020
549020
54f3e0
549020
548000
548020
7cf7f0
548220
108220
148140
12f140
1e8080
728140
228260
008430
009820
ENDCHAR
STARTCHAR 18-61
ENCODING 12893
SWIDTH 1010 0
DWIDTH 20 0
BBX 20 20 0 -3
BITMAP
042020
3e3ff0
002220
022220
7f3fe0
002220
042220
3e2220
003fe0
042220
3e0200
000220
427ff0
7f0700
420680
420a40
421260
422230
7ec220
420200
ENDCHAR
STARTCHAR 18-62
ENCODING 12894
SWIDTH 1010 0
DWIDTH 20 0
BBX 20 20 0 -3
BITMAP
001980
441120
7efff0
441100
441100
440040
44ffe0
442480
4424a0
45fff0
442480
442480
44ffe0
7c0400
440440
40ffe0
000400
000400
000400
000400
ENDCHAR
STARTCHAR 18-63
ENCODING 12895
SWIDTH 1010 0
DWIDTH 20 0
BBX 20 20 0 -3
BITMAP
011840
0390e0
061300
1c1c20
641020
041030
040fe0
000000
040100
07ff80
040100
07ff00
040100
07ff00
040100
07ff00
050100
019e00
0601c0
380040
ENDCHAR
STARTCHAR 18-64
ENCODING 12896
SWIDTH 1010 0
DWIDTH 20 0
BBX 20 20 0 -3
BITMAP
006000
204000
104220
084bf0
0bfe20
004a20
004a20
084a20
7c4a20
08ca20
088a20
088a20
088a20
091a20
0913e0
0a7220
082000
140000
238000
407ff0
ENDCHAR
STARTCHAR 18-65
ENCODING 12897
SWIDTH 1010 0
DWIDTH 20 0
BBX 20 20 0 -3
BITMAP
002080
203fc0
102080
082480
082780
002480
00a4a0
08fff0
7c8020
089f20
089120
089120
089120
089f20
089120
088020
0881e0
140040
238000
407ff0
ENDCHAR
STARTCHAR 18-66
ENCODING 12898
SWIDTH 1010 0
DWIDTH 20 0
BBX 20 20 0 -3
BITMAP
000080
0fffc0
202020
3ffff0
602020
4fafa0
002000
0faf80
200020
3f9ff0
208020
208020
3f9fe0
200040
3f9fe0
200840
210480
3f8300
200cf0
207020
ENDCHAR
STARTCHAR 18-67
ENCODING 12899
SWIDTH 1010 0
DWIDTH 20 0
BBX 20 20 0 -3
BITMAP
0c0300
080200
080200
490200
7f8220
497ff0
491040
491040
491040
490880
7f0880
490500
080700
0a0200
090500
0b8480
0c88c0
709060
202030
00c020
ENDCHAR
STARTCHAR 18-68
ENCODING 12900
SWIDTH 1010 0
DWIDTH 20 0
BBX 20 20 0 -3
BITMAP
062280
047240
0dc220
084220
184200
104220
13fff0
304100
304120
504130
104120
105960
106140
13c080
1140a0
1041a0
104160
104220
11c430
109810
ENDCHAR
STARTCHAR 18-69
ENCODING 12901
SWIDTH 1010 0
DWIDTH 20 0
BBX 20 20 0 -3
BITMAP
181280
103a40
10e220
102220
562200
542220
55fff0
542100
542120
542130
542120
542960
543140
55e080
7ca0a0
4421a0
402160
002220
00e430
004810
ENDCHAR
STARTCHAR 18-70
ENCODING 12902
SWIDTH 1010 0
DWIDTH 20 0
BBX 20 20 0 -3
BITMAP
008c80
01c840
3e0820
040820
040800
040820
7ffff0
040800
040840
040860
04c8c0
070480
0c0500
740300
240200
040520
0408a0
041060
1c6030
098030
ENDCHAR
STARTCHAR 18-71
ENCODING 12903
SWIDTH 1010 0
DWIDTH 20 0
BBX 20 20 0 -3
BITMAP
020080
03ffc0
020400
020400
020400
020400
020400
020400
020420
7ffff0
001c00
003400
004400
008400
010400
060400
180400
600400
003c00
000800
ENDCHAR
STARTCHAR 18-72
ENCODING 12904
SWIDTH 1010 0
DWIDTH 20 0
BBX 20 20 0 -3
BITMAP
000020
7ffff0
002000
002000
002000
322230
23ff20
222220
222220
222220
23fe20
222220
222220
222220
23fe20
220220
220020
200020
3fffe0
200020
ENDCHAR
STARTCHAR 18-73
ENCODING 12905
SWIDTH 1010 0
DWIDTH 20 0
BBX 20 20 0 -3
BITMAP
204300
3fe200
220200
220200
220200
220200
224200
3fe200
204600
204500
204500
3fc500
224500
220c80
220880
220840
225040
3ff060
202030
204020
ENDCHAR
STARTCHAR 18-74
ENCODING 12906
SWIDTH 1010 0
DWIDTH 20 0
BBX 20 20 0 -3
BITMAP
018600
010420
7ffff0
010400
010400
000080
1fffc0
040200
040200
040200
040220
7ffff0
000600
000a00
003200
004200
018200
0e0200
701e00
000400
ENDCHAR
STARTCHAR 18-75
ENCODING 12907
SWIDTH 1010 0
DWIDTH 20 0
BBX 20 20 0 -3
BITMAP
181280
103a40
10e220
542220
7e2200
542220
55fff0
542100
542120
542130
542120
7c2960
543140
11e080
14a0a0
1221a0
1e2160
722220
22e430
004810
ENDCHAR
STARTCHAR 18-76
ENCODING 12908
SWIDTH 1010 0
DWIDTH 20 0
BBX 20 20 0 -3
BITMAP
060000
040840
044fe0
3fe840
084840
084840
084fc0
138840
210100
07ff80
040100
07ff00
040100
07ff00
040100
07ff00
010100
039c00
0603c0
3800c0
ENDCHAR
STARTCHAR 18-77
ENCODING 12909
SWIDTH 1010 0
DWIDTH 20 0
BBX 20 20 0 -3
BITMAP
010880
7f8cc0
121980
121100
122220
123ff0
125100
129100
121140
7f9fe0
061100
061100
0a1140
0a1fe0
121100
121100
221100
421120
0e1ff0
041000
ENDCHAR
STARTCHAR 18-78
ENCODING 12910
SWIDTH 1010 0
DWIDTH 20 0
BBX 20 20 0 -3
BITMAP
0c0940
081d20
147110
121110
211100
2d1110
48fff0
3e1100
221120
3e1130
221120
3e1560
221940
20f080
2050a0
2410a0
221160
2e1160
727230
202410
ENDCHAR
STARTCHAR 18-79
ENCODING 12911
SWIDTH 1010 0
DWIDTH 20 0
BBX 20 20 0 -3
BITMAP
060820
044ff0
7fe820
044820
084820
084820
10cfe0
278820
410100
07ff80
042000
07ff00
042000
07ff00
042020
07fff0
100020
149060
624bc0
424880
ENDCHAR
STARTCHAR 18-80
ENCODING 12912
SWIDTH 1010 0
DWIDTH 20 0
BBX 20 20 0 -3
BITMAP
003000
002000
005000
008800
010400
020200
040180
1800f0
630620
020400
020400
020400
020400
020400
020400
040400
040400
080400
100400
200400
ENDCHAR
STARTCHAR 18-81
ENCODING 12913
SWIDTH 1010 0
DWIDTH 20 0
BBX 20 20 0 -3
BITMAP
003000
006000
00d000
018800
020600
040180
1804f0
67fe20
000000
000000
000040
3fffe0
00c000
008000
010400
010200
020100
043f80
1fc080
0c0080
ENDCHAR
STARTCHAR 18-82
ENCODING 12914
SWIDTH 1010 0
DWIDTH 20 0
BBX 20 20 0 -3
BITMAP
0c0020
091ff0
1f8220
110220
224420
3fe420
5249e0
125040
124300
1fda00
125240
125fe0
126200
1fc200
104220
107ff0
104200
204200
23c200
408200
ENDCHAR
STARTCHAR 18-83
ENCODING 12915
SWIDTH 1010 0
DWIDTH 20 0
BBX 20 20 0 -3
BITMAP
200020
3ffff0
200020
200020
200020
210420
21fe20
210420
210420
210420
210420
210420
210420
21fc20
210420
200020
200020
200020
3fffe0
200020
ENDCHAR
STARTCHAR 18-84
ENCODING 12916
SWIDTH 1010 0
DWIDTH 20 0
BBX 20 20 0 -3
BITMAP
0c0800
080c00
081800
089080
08ffc0
0a8880
7f8880
08ff80
088880
088880
08ff80
0824c0
0b2480
0c24a0
704510
204570
008790
010520
020630
0c03e0
ENDCHAR
STARTCHAR 18-85
ENCODING 12917
SWIDTH 1010 0
DWIDTH 20 0
BBX 20 20 0 -3
BITMAP
0c0300
080200
080220
08fff0
0a0200
7f7fe0
084920
084920
084920
087fe0
080400
0b0420
0cfff0
781220
202230
00e140
032080
003c40
01e070
008020
ENDCHAR
STARTCHAR 18-86
ENCODING 12918
SWIDTH 1010 0
DWIDTH 20 0
BBX 20 20 0 -3
BITMAP
044020
7e7ff0
044020
044020
084920
084fa0
124920
1f4920
224920
224920
024920
224f20
224920
544020
544020
087fe0
144020
130000
20e000
401ff0
ENDCHAR
STARTCHAR 18-87
ENCODING 12919
SWIDTH 1010 0
DWIDTH 20 0
BBX 20 20 0 -3
BITMAP
0c0c00
080800
080800
080880
28ffc0
2c0880
2a0880
290880
690880
4808a0
09fff0
081400
081400
083200
082200
084100
084080
088040
090070
0a0020
ENDCHAR
STARTCHAR 18-88
ENCODING 12920
SWIDTH 1010 0
DWIDTH 20 0
BBX 20 20 0 -3
BITMAP
0c0000
080080
08ffc0
082080
2c1100
2a0a00
290400
290a00
681180
486070
098c20
080800
080880
08ffc0
080800
080800
080800
080820
0bfff0
080000
ENDCHAR
STARTCHAR 18-89
ENCODING 12921
SWIDTH 1010 0
DWIDTH 20 0
BBX 20 20 0 -3
BITMAP
0c3000
082000
082020
087ff0
084000
28a040
2c3fe0
2a2440
292440
692440
482440
09fff0
084840
084840
084840
084840
087fe0
084080
080780
080100
ENDCHAR
STARTCHAR 18-90
ENCODING 12922
SWIDTH 1010 0
DWIDTH 20 0
BBX 20 20 0 -3
BITMAP
0c8020
08fff0
088000
088300
288200
2c9220
2a9230
2a9260
6a9240
48b280
08a200
088600
098500
090500
090880
0a0880
0a1040
0c2060
084030
098020
ENDCHAR
STARTCHAR 18-91
ENCODING 12923
SWIDTH 1010 0
DWIDTH 20 0
BBX 20 20 0 -3
BITMAP
0c0300
080200
080220
09fff0
280200
2c7fe0
2a4920
294920
294920
687fe0
480400
080420
09fff0
081220
082230
08e140
0b2080
083c40
09e070
088020
ENDCHAR
STARTCHAR 18-92
ENCODING 12924
SWIDTH 1010 0
DWIDTH 20 0
BBX 20 20 0 -3
BITMAP
000d00
000880
000880
000820
7ffff0
000800
0cc840
088860
088840
088cc0
7ff480
088580
088500
088200
088600
108920
109120
2020a0
40c070
030030
ENDCHAR
STARTCHAR 18-93
ENCODING 12925
SWIDTH 1010 0
DWIDTH 20 0
BBX 20 20 0 -3
BITMAP
0c2040
083fe0
082040
082040
0a2040
7f2040
083fc0
082040
080000
080020
0f7ff0
780820
280820
081020
081020
082060
082040
0840c0
788780
130100
ENDCHAR
STARTCHAR 18-94
ENCODING 12926
SWIDTH 1010 0
DWIDTH 20 0
BBX 20 20 0 -3
BITMAP
001800
011000
7f9000
011000
011020
013ff0
412080
7f2080
415080
405100
408900
410a00
400600
410400
410600
418900
3f1080
0020c0
00c070
030020
ENDCHAR
STARTCHAR 19-01
ENCODING 13089
SWIDTH 1010 0
DWIDTH 20 0
BBX 20 20 0 -3
BITMAP
0400c0
060880
288480
3fc280
248280
249080
3f8880
248480
2484a0
2480f0
3f8780
0a3880
0a4080
0a4080
1a8080
12a080
13f0a0
229020
220030
41ffe0
ENDCHAR
STARTCHAR 19-02
ENCODING 13090
SWIDTH 1010 0
DWIDTH 20 0
BBX 20 20 0 -3
BITMAP
003000
442000
7e2040
447fe0
444000
44a080
453fc0
442480
7c2480
442480
4424a0
45fff0
444880
444880
7c4880
444880
407fc0
004100
000f00
000200
ENDCHAR
STARTCHAR 19-03
ENCODING 13091
SWIDTH 1010 0
DWIDTH 20 0
BBX 20 20 0 -3
BITMAP
0c0160
080110
080110
080100
0afff0
7f0100
082d00
082900
1c2920
1a2930
1aff20
2a2960
282940
2828c0
484880
0848a0
0889a0
090260
080c30
087010
ENDCHAR
STARTCHAR 19-04
ENCODING 13092
SWIDTH 1010 0
DWIDTH 20 0
BBX 20 20 0 -3
BITMAP
101800
081000
041020
043ff0
002000
405040
229fe0
121240
121240
041240
041240
0cfff0
082440
582440
302440
102440
103fe0
102080
100780
100100
ENDCHAR
STARTCHAR 19-05
ENCODING 13093
SWIDTH 1010 0
DWIDTH 20 0
BBX 20 20 0 -3
BITMAP
080020
0ffff0
080000
080c00
080800
080820
088830
088860
088840
190880
131880
121500
101400
102200
102200
104100
208080
2100c0
460070
180020
ENDCHAR
STARTCHAR 19-06
ENCODING 13094
SWIDTH 1010 0
DWIDTH 20 0
BBX 20 20 0 -3
BITMAP
080080
0fffc0
082080
082080
0fff80
082080
082080
082080
0fff80
088880
010400
030300
0d02f0
710220
010200
020200
020200
040200
080200
100200
ENDCHAR
STARTCHAR 19-07
ENCODING 13095
SWIDTH 1010 0
DWIDTH 20 0
BBX 20 20 0 -3
BITMAP
0c0c00
080840
0888e0
0fc980
080e00
080820
080820
0f8830
7827e0
203000
004000
048100
07ff80
040100
040100
07ff00
040100
040100
07ff00
040100
ENDCHAR
STARTCHAR 19-08
ENCODING 13096
SWIDTH 1010 0
DWIDTH 20 0
BBX 20 20 0 -3
BITMAP
040700
060600
0c0500
080d00
510880
239880
161040
142060
094130
109fa0
7f8000
248020
047ff0
250c00
348880
248840
249040
4413e0
047c20
043020
ENDCHAR
STARTCHAR 19-09
ENCODING 13097
SWIDTH 1010 0
DWIDTH 20 0
BBX 20 20 0 -3
BITMAP
030300
020220
7ffff0
020200
023200
002000
005000
008800
010600
060180
1800f0
630620
020400
020400
020400
020400
040400
040400
080400
100400
ENDCHAR
STARTCHAR 19-10
ENCODING 13098
SWIDTH 1010 0
DWIDTH 20 0
BBX 20 20 0 -3
BITMAP
090020
0f9ff0
114220
3fe420
525860
1fc180
124900
124fe0
1fd100
207ff0
21c100
408100
102040
1fffe0
102040
1fffc0
102080
002040
7fffe0
180020
ENDCHAR
STARTCHAR 19-11
ENCODING 13099
SWIDTH 1010 0
DWIDTH 20 0
BBX 20 20 0 -3
BITMAP
208820
3fcff0
208820
208820
3f8fe0
208820
208820
3f8fe0
208820
200420
23fe20
208820
208820
208a20
27ff20
208820
210820
210820
2209e0
240840
ENDCHAR
STARTCHAR 19-12
ENCODING 13100
SWIDTH 1010 0
DWIDTH 20 0
BBX 20 20 0 -3
BITMAP
446300
7e4220
445230
487ac0
484300
504220
484220
485a30
45e1e0
428400
420600
424840
427fe0
7c4040
484040
407fc0
404040
404040
407fc0
404040
ENDCHAR
STARTCHAR 19-13
ENCODING 13101
SWIDTH 1010 0
DWIDTH 20 0
BBX 20 20 0 -3
BITMAP
040100
07ff80
040100
040100
040100
07ff00
040100
040100
040100
07ff00
040100
040100
040100
07ff00
040100
010000
018e00
0201c0
0c0060
700020
ENDCHAR
STARTCHAR 19-14
ENCODING 13102
SWIDTH 1010 0
DWIDTH 20 0
BBX 20 20 0 -3
BITMAP
030440
3237e0
222440
222440
3fe440
202440
000440
7ff440
000440
3fe440
202440
202440
3fe440
108440
08c440
088440
090850
03e850
7e1050
202030
ENDCHAR
STARTCHAR 19-15
ENCODING 13103
SWIDTH 1010 0
DWIDTH 20 0
BBX 20 20 0 -3
BITMAP
030300
020200
024200
7fe200
060220
041ff0
290220
118220
0b0220
0a0220
048220
08c220
118620
610420
020420
050460
088840
10c840
6053c0
002080
ENDCHAR
STARTCHAR 19-16
ENCODING 13104
SWIDTH 1010 0
DWIDTH 20 0
BBX 20 20 0 -3
BITMAP
060300
040200
044200
0fe200
084200
185200
105200
104a00
284600
44c300
0682c0
028270
010220
020200
020200
040200
080200
100200
200200
400200
ENDCHAR
STARTCHAR 19-17
ENCODING 13105
SWIDTH 1010 0
DWIDTH 20 0
BBX 20 20 0 -3
BITMAP
000600
440400
7e0420
45fff0
440400
440600
440400
442880
4410c0
440900
440a00
440440
440860
7c1080
442100
40c200
000580
000860
003030
01c010
ENDCHAR
STARTCHAR 19-18
ENCODING 13106
SWIDTH 1010 0
DWIDTH 20 0
BBX 20 20 0 -3
BITMAP
003000
002000
202020
3ffff0
600020
403040
002100
0fff80
002000
07ff00
002040
3fffe0
000000
040100
07ff80
040100
040100
040100
07ff00
040100
ENDCHAR
STARTCHAR 19-19
ENCODING 13107
SWIDTH 1010 0
DWIDTH 20 0
BBX 20 20 0 -3
BITMAP
001800
0c1060
081040
0fffc0
100020
1ffff0
100000
101800
101080
13ffc0
101000
101040
17ffe0
101000
101080
23ffc0
201000
201020
4ffff0
000000
ENDCHAR
STARTCHAR 19-20
ENCODING 13108
SWIDTH 1010 0
DWIDTH 20 0
BBX 20 20 0 -3
BITMAP
192040
11f7e0
112240
512240
592240
55e240
552240
512240
512240
11eff0
112080
110080
1140e0
112140
111140
117240
179250
120450
100850
101030
ENDCHAR
STARTCHAR 19-21
ENCODING 13109
SWIDTH 1010 0
DWIDTH 20 0
BBX 20 20 0 -3
BITMAP
0c9040
08fbe0
089140
0a9140
7f9140
08f140
189140
189140
1c9140
1af7f0
2a9080
2a8080
28a0e0
489140
088940
08ba40
0bca50
090450
080850
081030
ENDCHAR
STARTCHAR 19-22
ENCODING 13110
SWIDTH 1010 0
DWIDTH 20 0
BBX 20 20 0 -3
BITMAP
104020
087ff0
044000
044300
004200
424240
225fe0
124200
144200
044220
047ff0
084000
484300
38c200
108240
109fe0
108200
110200
110220
127ff0
ENDCHAR
STARTCHAR 19-23
ENCODING 13111
SWIDTH 1010 0
DWIDTH 20 0
BBX 20 20 0 -3
BITMAP
001040
009fe0
3fd040
041040
041fc0
0c1040
081040
089fc0
1fd040
188020
28fff0
288080
4880a0
08fff0
08a080
0f9080
088880
080880
000380
000100
ENDCHAR
STARTCHAR 19-24
ENCODING 13112
SWIDTH 1010 0
DWIDTH 20 0
BBX 20 20 0 -3
BITMAP
018600
010420
7ffff0
010400
013400
002080
1fffc0
002020
7ffff0
00c100
018080
021fc0
1fe040
060040
080080
0fffc0
088880
0888a0
7ffff0
000000
ENDCHAR
STARTCHAR 19-25
ENCODING 13113
SWIDTH 1010 0
DWIDTH 20 0
BBX 20 20 0 -3
BITMAP
0c6040
0841e0
185000
11f800
204000
204020
4c4bf0
0bfc40
180040
106040
304040
305040
51f840
104040
104040
104c40
107040
13c040
1103c0
100080
ENDCHAR
STARTCHAR 19-26
ENCODING 13114
SWIDTH 1010 0
DWIDTH 20 0
BBX 20 20 0 -3
BITMAP
040300
3e0200
000220
02fff0
7f0400
000600
040400
3e2880
0010c0
040900
3e0a00
000440
420860
7f1080
422100
42c200
420580
420860
7e3030
42c010
ENDCHAR
STARTCHAR 19-27
ENCODING 13115
SWIDTH 1010 0
DWIDTH 20 0
BBX 20 20 0 -3
BITMAP
0c0300
083230
162220
112220
20bfe0
20a020
420000
3f7ff0
080000
0a3fe0
7f2020
082020
0a3fe0
4b0080
2a10c0
2c0980
098900
0e0220
78fff0
200000
ENDCHAR
STARTCHAR 19-28
ENCODING 13116
SWIDTH 1010 0
DWIDTH 20 0
BBX 20 20 0 -3
BITMAP
088180
0fc100
088100
0b8120
0a9ff0
2aa180
3ff100
202200
48aa40
0fc460
088480
088120
0f8230
088440
089880
0f8100
0882c0
088420
0b8810
093010
ENDCHAR
STARTCHAR 19-29
ENCODING 13117
SWIDTH 1010 0
DWIDTH 20 0
BBX 20 20 0 -3
BITMAP
104040
087fe0
044440
044440
004440
427fc0
224440
124440
144440
047fc0
044440
080400
480440
30ffe0
100400
100400
100400
100420
11fff0
100000
ENDCHAR
STARTCHAR 19-30
ENCODING 13118
SWIDTH 1010 0
DWIDTH 20 0
BBX 20 20 0 -3
BITMAP
020440
3fe7e0
020450
1fc870
001080
1fcfc0
124480
1fc300
2004f0
401820
0fff00
002020
7ffff0
032200
0c2180
77ff70
040120
07ff00
040100
07ff00
ENDCHAR
STARTCHAR 19-31
ENCODING 13119
SWIDTH 1010 0
DWIDTH 20 0
BBX 20 20 0 -3
BITMAP
0c0300
080200
080240
081fe0
490200
7f8200
490200
490220
493ff0
490000
490300
7f0200
490240
081fe0
0a0200
090200
098200
0e8220
78bff0
200000
ENDCHAR
STARTCHAR 19-32
ENCODING 13120
SWIDTH 1010 0
DWIDTH 20 0
BBX 20 20 0 -3
BITMAP
0c0040
08ffe0
080000
080000
0a2080
7f3fc0
082080
082080
082080
083f80
082080
082080
0f2080
782080
203f80
002080
000000
000020
01fff0
000000
ENDCHAR
STARTCHAR 19-33
ENCODING 13121
SWIDTH 1010 0
DWIDTH 20 0
BBX 20 20 0 -3
BITMAP
060300
040200
040220
047ff0
050000
7f8300
040200
0c2220
0e3ff0
0d2220
14a220
14a220
242220
242220
442220
0422e0
040240
040200
040200
040200
ENDCHAR
STARTCHAR 19-34
ENCODING 13122
SWIDTH 1010 0
DWIDTH 20 0
BBX 20 20 0 -3
BITMAP
061020
041ff0
041000
249000
3fd020
249ff0
249200
249200
249220
3f93f0
249220
243220
052220
04a420
07a420
7ca420
204860
004840
0093c0
002080
ENDCHAR
STARTCHAR 19-35
ENCODING 13123
SWIDTH 1010 0
DWIDTH 20 0
BBX 20 20 0 -3
BITMAP
0c1800
081000
141000
121020
213ff0
212020
422020
3f4820
088c20
080820
7f8a20
081120
4a1720
2b7920
2a2120
2c0040
098040
0e0040
780780
200100
ENDCHAR
STARTCHAR 19-36
ENCODING 13124
SWIDTH 1010 0
DWIDTH 20 0
BBX 20 20 0 -3
BITMAP
030030
022020
3ff320
022220
7ffa20
022220
3fe220
020220
3fe220
020220
7ff220
000220
3fe220
222220
3fe220
222020
3fe020
000020
7ff1e0
100040
ENDCHAR
STARTCHAR 19-37
ENCODING 13125
SWIDTH 1010 0
DWIDTH 20 0
BBX 20 20 0 -3
BITMAP
00c0c0
508080
78a0a0
53f3f0
508080
508080
508080
50a0a0
57f7f0
514140
514140
756560
555550
455550
0d5550
094140
024340
024240
05c5c0
088880
ENDCHAR
STARTCHAR 19-38
ENCODING 13126
SWIDTH 1010 0
DWIDTH 20 0
BBX 20 20 0 -3
BITMAP
018000
010000
030200
03ff00
060600
090400
108800
605000
002000
00d800
030700
0c01f0
700020
07ff00
040100
040100
040100
040100
07ff00
040100
ENDCHAR
STARTCHAR 19-39
ENCODING 13127
SWIDTH 1010 0
DWIDTH 20 0
BBX 20 20 0 -3
BITMAP
003000
002000
102020
1ffff0
108000
109220
17fbf0
100220
13f240
121280
13f280
100240
102220
17f210
104210
208210
2ff3e0
248240
408200
038200
ENDCHAR
STARTCHAR 19-40
ENCODING 13128
SWIDTH 1010 0
DWIDTH 20 0
BBX 20 20 0 -3
BITMAP
0c0600
080400
080400
088420
08fff0
7e8000
088400
088600
088400
088400
0e8c00
788880
288840
099040
091020
091020
092020
0a23f0
3afe10
146010
ENDCHAR
STARTCHAR 19-41
ENCODING 13129
SWIDTH 1010 0
DWIDTH 20 0
BBX 20 20 0 -3
BITMAP
0c4880
0824c0
082480
088120
7efff0
098020
0940a0
087fc0
084080
087f80
0e4080
787f80
284080
084080
087f80
085280
081220
082220
38c230
1301e0
ENDCHAR
STARTCHAR 19-42
ENCODING 13130
SWIDTH 1010 0
DWIDTH 20 0
BBX 20 20 0 -3
BITMAP
0c1800
081080
081fc0
0a2080
7f2180
085100
184b00
1c8600
1a0600
190900
2910c0
282070
28c020
483fc0
082040
082040
082040
082040
083fc0
082040
ENDCHAR
STARTCHAR 19-43
ENCODING 13131
SWIDTH 1010 0
DWIDTH 20 0
BBX 20 20 0 -3
BITMAP
0c0300
080200
080220
08fff0
0a0400
7f0600
080400
082880
1c10c0
1a0900
190a00
190440
280860
281080
282100
48c200
080580
080860
083030
08c010
ENDCHAR
STARTCHAR 19-44
ENCODING 13132
SWIDTH 1010 0
DWIDTH 20 0
BBX 20 20 0 -3
BITMAP
060880
040fc0
048880
7fc880
0408a0
0408a0
0510b0
3f9060
002000
208020
3fdff0
608420
410440
1e0240
120280
128100
128280
22c4c0
219870
406020
ENDCHAR
STARTCHAR 19-45
ENCODING 13133
SWIDTH 1010 0
DWIDTH 20 0
BBX 20 20 0 -3
BITMAP
020840
437ff0
220840
143300
082220
087ff0
14a200
253fe0
442200
0a3fe0
0a2200
123ff0
122000
220040
427fe0
061080
040900
0c0600
7819f0
10e020
ENDCHAR
STARTCHAR 19-46
ENCODING 13134
SWIDTH 1010 0
DWIDTH 20 0
BBX 20 20 0 -3
BITMAP
000300
010200
7fa220
083ff0
086420
084440
180900
110980
1f9220
313ff0
315200
519240
111fe0
111200
111240
1f1fe0
111200
101220
001ff0
001000
ENDCHAR
STARTCHAR 19-47
ENCODING 13135
SWIDTH 1010 0
DWIDTH 20 0
BBX 20 20 0 -3
BITMAP
020840
0f7ff0
780840
083300
082220
087ff0
7ea200
083fe0
182200
1c3fe0
1a2200
1b3ff0
292000
280040
487fe0
0810c0
080880
080700
0819f0
08e020
ENDCHAR
STARTCHAR 19-48
ENCODING 13136
SWIDTH 1010 0
DWIDTH 20 0
BBX 20 20 0 -3
BITMAP
088100
044380
022200
222420
3ffff0
600020
440240
07ff00
040200
07fe00
040200
07fe00
040200
07fe00
049200
009000
011020
021020
0c1030
700fe0
ENDCHAR
STARTCHAR 19-49
ENCODING 13137
SWIDTH 1010 0
DWIDTH 20 0
BBX 20 20 0 -3
BITMAP
018000
010200
03ff00
040400
0c0840
37ffe0
041040
041040
041040
07ffc0
041040
041040
041040
0fffc0
080040
080040
180040
100040
2003c0
400080
ENDCHAR
STARTCHAR 19-50
ENCODING 13138
SWIDTH 1010 0
DWIDTH 20 0
BBX 20 20 0 -3
BITMAP
060180
040100
050140
3f8fe0
040100
040100
040100
048120
7fdff0
0a0280
2a8aa0
2a4aa0
2a4a90
2a4a90
2a0a90
4a1280
0a0280
120480
120480
260980
ENDCHAR
STARTCHAR 19-51
ENCODING 13139
SWIDTH 1010 0
DWIDTH 20 0
BBX 20 20 0 -3
BITMAP
0c0300
080200
090220
7fbff0
080800
490cc0
7f9020
491010
492010
7f0080
490840
490880
7f0480
490500
080200
090300
7f8480
0808c0
081070
086020
ENDCHAR
STARTCHAR 19-52
ENCODING 13140
SWIDTH 1010 0
DWIDTH 20 0
BBX 20 20 0 -3
BITMAP
060820
040ff0
044820
7fe840
000880
1f8900
108900
108880
1f8840
010820
3f8820
010810
020810
040810
07c9e0
7c0840
240800
040800
1c0800
080800
ENDCHAR
STARTCHAR 19-53
ENCODING 13141
SWIDTH 1010 0
DWIDTH 20 0
BBX 20 20 0 -3
BITMAP
208820
3fcff0
208820
208820
3f8fe0
208820
208820
3f8fe0
200020
208820
20fc20
210820
229020
2c6020
209820
2307a0
2dfd20
210420
21fde0
210440
ENDCHAR
STARTCHAR 19-54
ENCODING 13142
SWIDTH 1010 0
DWIDTH 20 0
BBX 20 20 0 -3
BITMAP
440020
7efff0
440000
482080
483fc0
502080
602080
503f80
488020
48fff0
449220
4492a0
4492e0
7ca1a0
48c020
40bfa0
408420
408420
4085e0
408440
ENDCHAR
STARTCHAR 19-55
ENCODING 13143
SWIDTH 1010 0
DWIDTH 20 0
BBX 20 20 0 -3
BITMAP
018600
010400
010420
7ffff0
010400
010400
01fc00
012400
042100
07ff80
042100
042100
07ff00
042100
002020
7ffff0
002000
002000
002000
002000
ENDCHAR
STARTCHAR 19-56
ENCODING 13144
SWIDTH 1010 0
DWIDTH 20 0
BBX 20 20 0 -3
BITMAP
088200
044380
022200
222420
3ffff0
200020
600440
47fe80
000400
000800
001000
002000
002040
3fffe0
002000
002000
002000
002000
01e000
004000
ENDCHAR
STARTCHAR 19-57
ENCODING 13145
SWIDTH 1010 0
DWIDTH 20 0
BBX 20 20 0 -3
BITMAP
000400
000e00
047000
078000
040080
07ffc0
040400
040400
040400
040420
7ffff0
000000
003000
182060
102040
102040
102040
102040
1fffc0
100040
ENDCHAR
STARTCHAR 19-58
ENCODING 13146
SWIDTH 1010 0
DWIDTH 20 0
BBX 20 20 0 -3
BITMAP
002000
203020
114470
09fec0
090500
010400
01fc00
050480
090460
71fc30
210410
003000
002020
7ffff0
00f000
01ac00
062380
1820f0
602020
002000
ENDCHAR
STARTCHAR 19-59
ENCODING 13147
SWIDTH 1010 0
DWIDTH 20 0
BBX 20 20 0 -3
BITMAP
030020
021ff0
224180
3fe100
604a20
4c4ff0
088820
1fc820
108fe0
290820
460820
098fe0
106820
6fa820
088fe0
088820
088440
088620
0f8810
08b010
ENDCHAR
STARTCHAR 19-60
ENCODING 13148
SWIDTH 1010 0
DWIDTH 20 0
BBX 20 20 0 -3
BITMAP
000020
7bdff0
4a4180
4a4100
4a4a20
7bcff0
000820
010820
3f8fe0
000820
008820
7fcfe0
100820
108820
3fcfe0
208820
008440
010620
0f0810
023010
ENDCHAR
STARTCHAR 19-61
ENCODING 13149
SWIDTH 1010 0
DWIDTH 20 0
BBX 20 20 0 -3
BITMAP
0c30c0
082080
082080
08f880
082080
7e2080
082880
09fcc0
0800a0
083090
0e2090
782080
28f880
082080
082080
082080
083c80
09e080
388080
100080
ENDCHAR
STARTCHAR 19-62
ENCODING 13150
SWIDTH 1010 0
DWIDTH 20 0
BBX 20 20 0 -3
BITMAP
0c0600
088420
1fcff0
241200
422100
020100
003000
002000
002080
1fffc0
000000
040200
020300
020600
010400
010800
010800
001020
7ffff0
000000
ENDCHAR
STARTCHAR 19-63
ENCODING 13151
SWIDTH 1010 0
DWIDTH 20 0
BBX 20 20 0 -3
BITMAP
191000
11f820
1127f0
112220
7dfa20
110940
110940
39f880
352880
352140
352630
51f820
510000
100600
100440
10ffe0
100400
100420
11fff0
100000
ENDCHAR
STARTCHAR 19-64
ENCODING 13152
SWIDTH 1010 0
DWIDTH 20 0
BBX 20 20 0 -3
BITMAP
0c0020
08fff0
080000
083fc0
0a2440
7f3fc0
082440
183fc0
1c0020
1afff0
190000
293fc0
282440
283fc0
482440
083fc0
082040
080020
08fff0
080000
ENDCHAR
STARTCHAR 19-65
ENCODING 13153
SWIDTH 1010 0
DWIDTH 20 0
BBX 20 20 0 -3
BITMAP
0c4040
087fe0
084040
084040
0a4040
7f7fc0
084040
184100
1c4380
1a4600
195a00
294280
2843c0
285e00
48c240
0883e0
08be00
090220
090230
0a01e0
ENDCHAR
STARTCHAR 19-66
ENCODING 13154
SWIDTH 1010 0
DWIDTH 20 0
BBX 20 20 0 -3
BITMAP
1810c0
143880
3ee080
242080
2824a0
7e22b0
2a22a0
2afaa0
2a22c0
3e6080
2a7080
2a6880
2aa940
3ea140
212140
002240
552220
552420
542430
402820
ENDCHAR
STARTCHAR 19-67
ENCODING 13155
SWIDTH 1010 0
DWIDTH 20 0
BBX 20 20 0 -3
BITMAP
100800
084c40
0473e0
044040
004040
427bc0
224040
124040
147fc0
045040
041800
082020
487ff0
388020
130520
105520
105560
119040
1103c0
100080
ENDCHAR
STARTCHAR 19-68
ENCODING 13156
SWIDTH 1010 0
DWIDTH 20 0
BBX 20 20 0 -3
BITMAP
030030
020020
222320
3ff220
602220
432220
020220
1fc220
020220
1fc220
020220
3fe220
000220
104220
1fe220
104020
104020
104020
1fc1e0
104040
ENDCHAR
STARTCHAR 19-69
ENCODING 13157
SWIDTH 1010 0
DWIDTH 20 0
BBX 20 20 0 -3
BITMAP
004080
007fc0
444080
7e4080
447f80
444080
444080
447f80
442080
442020
447ff0
448020
456420
7c4e20
447020
004220
004360
003e40
0001c0
000080
ENDCHAR
STARTCHAR 19-70
ENCODING 13158
SWIDTH 1010 0
DWIDTH 20 0
BBX 20 20 0 -3
BITMAP
0c0600
080400
080a00
080a00
2c1100
2a1100
292080
292040
684060
48bfb0
090020
080000
082080
083fc0
082080
082080
082080
082080
083f80
082080
ENDCHAR
STARTCHAR 19-71
ENCODING 13159
SWIDTH 1010 0
DWIDTH 20 0
BBX 20 20 0 -3
BITMAP
0c0040
0803e0
087e00
080400
0a0400
7f0400
080420
08fff0
080400
080400
0e0400
784440
287fe0
084040
084040
084040
084040
084040
387fc0
104040
ENDCHAR
ENDFONT
